<svg xmlns="http://www.w3.org/2000/svg" viewBox="0 0 62.21 164.17"><g id="Layer_2" data-name="Layer 2"><g id="OBJECTS"><path d="M19.54.07a10.25,10.25,0,0,0,.08,2.52C20,6.25,21.44,16.4,21.68,17.16c.12.38.55,1.76,1,3.11a34.8,34.8,0,0,0,3.09,7A17.58,17.58,0,0,1,28,30.17a3.57,3.57,0,0,0,.64,1c.34.46,1.16,1.58,1.79,2.48a12.59,12.59,0,0,0,1.42,1.81,8.52,8.52,0,0,1,.41,3l.15,2.9-.46-1.16A38.27,38.27,0,0,0,29,34.84c-1.58-2.41-8.73-8.92-11.46-10.44-1.63-.91-4.93-3-5.34-3.34a1.38,1.38,0,0,0-.77-.33c-.69,0-.43.84.67,2.12A11.5,11.5,0,0,1,13.5,24.8,14.39,14.39,0,0,0,15,26.88a18,18,0,0,1,1.59,2.18c.24.45,1.46,2.23,2.71,4A61.51,61.51,0,0,0,29.92,44.61c.26.22,1,.89,1.68,1.52l1.23,1.12,0,5.78c0,3.17,0,6.06,0,6.41s0,.64-.06.64a16.88,16.88,0,0,1-1.52-3.19,12,12,0,0,0-.72-1.81c-.4-.88-.79-1.79-.89-2a62.43,62.43,0,0,0-4.33-7.92,77.24,77.24,0,0,0-6-7.54c-.34-.34-1.36-1.25-2.29-2L14.07,33a25.94,25.94,0,0,0-4.3-3.34c-.84-.4-1.94-.47-1.94-.12A11.34,11.34,0,0,0,9,31.42a69.09,69.09,0,0,1,4.43,7.72,2,2,0,0,0,.47.87,2.23,2.23,0,0,1,.46.8.84.84,0,0,0,.32.5,1.74,1.74,0,0,1,.45.83,10.86,10.86,0,0,0,1.13,2c.54.83,1.45,2.25,2,3.17A24.62,24.62,0,0,0,20,49.88a5.08,5.08,0,0,1,.76,1c0,.4,3.15,4.08,5.79,6.79a40.87,40.87,0,0,1,4.85,5.42,8.42,8.42,0,0,0,1,1.17c.35.31.37.56.18,2.08-.11,1-.31,2.67-.45,3.82a24,24,0,0,1-.39,2.54,12.29,12.29,0,0,0-.29,2l-.13,1.51-.89-2.43a59.74,59.74,0,0,0-3-6.94,40.86,40.86,0,0,0-2.05-3.9,6.57,6.57,0,0,1-.67-1.13c0-.14-2.75-4.25-3.54-5.29l-2.25-2.86c-.95-1.19-2.14-2.69-2.63-3.34C14,47.34,7,41,6.5,41.41c-.23.24.82,2.47,1.93,4.06a14.9,14.9,0,0,1,1,1.57,15.58,15.58,0,0,0,1,1.67c.57.86,1.32,2.11,1.7,2.82.86,1.61,2.66,4.76,3.75,6.59.46.77,1,1.64,1.09,2a11.81,11.81,0,0,0,1,1.62c.43.57,1.2,1.73,1.69,2.55a18.64,18.64,0,0,0,1.52,2.19c.34.38,1.12,1.44,1.72,2.32s1.57,2.25,2.13,3,1.38,1.92,1.83,2.59a28.35,28.35,0,0,0,2.43,2.92c1.84,2,1.85,2,1.3,5.14-.18,1-.4,2.74-.49,3.82s-.31,2.69-.49,3.55a19.24,19.24,0,0,0-.31,3,15.62,15.62,0,0,1-.26,2.68,17.64,17.64,0,0,0-.31,2.29c-.14,2.71-.14,2.74-.35,2.07a18.78,18.78,0,0,1-.32-2.67,30.79,30.79,0,0,0-1.18-6.44c-.19-.63-.57-2-.83-2.91a51.63,51.63,0,0,0-2.19-6.59,18.37,18.37,0,0,1-.7-1.74c-.15-.5-2.43-5-4.41-8.73a18.28,18.28,0,0,0-1.51-2.31c-.49-.61-1.53-2-2.32-3.07-3.31-4.52-4.73-6.05-5.29-5.7-.4.26-.29.65.56,2a20.27,20.27,0,0,1,1.64,3.81c.46,1.42,1,3,1.14,3.4s.58,1.9.94,3.24,1.08,3.68,1.62,5.2,1.11,3.35,1.27,4a71.77,71.77,0,0,0,6,13.42c.31.47,1.34,2.34,2.3,4.19s1.92,3.56,2.13,3.82c1.07,1.31,1.09,1.78.34,8.22-.06.54-.29,3.48-.45,5.8,0,.57-.09,1.5-.1,2.07-.06,1.82-.53.2-1.27-4.28a42.19,42.19,0,0,0-1.13-5.09,14,14,0,0,1-.49-1.85,19.74,19.74,0,0,0-1-3.42c-.17-.48-.41-1.27-.53-1.74s-.49-1.6-.82-2.48-.73-2-.86-2.44a4.86,4.86,0,0,0-.42-1,21,21,0,0,1-.92-2.09c-.4-1-1.09-2.61-1.52-3.52-.77-1.64-2.93-6.71-4-9.4-.15-.36-.57-1.56-.93-2.66A28.85,28.85,0,0,0,11,73.51a5.25,5.25,0,0,1-.59-1.11c-.16-.42-.41-.72-.56-.67-.45.15-.28,5.11.31,8.83.12.78.28,1.81.35,2.32s.23,1.44.36,2.08.38,2.1.58,3.24S12,91,12.2,91.79a93.62,93.62,0,0,0,3.62,11.35c2.5,6.15,3.71,8.54,6.08,12s3.51,5.08,3.91,5.51c.71.74.76,1.41.82,10.21.06,7.32,0,8.94-.22,8.63a1.42,1.42,0,0,1-.29-.59,15.18,15.18,0,0,0-.73-1.74c-.4-.86-.88-1.95-1.08-2.47a8.56,8.56,0,0,0-.53-1.15c-.09-.13-.72-1.54-1.4-3.12a37,37,0,0,0-4.55-8c-.8-1.14-2.43-3.52-3.64-5.31C12,113.83,9.93,111,9.33,110.26a1.89,1.89,0,0,1-.36-.53,7.87,7.87,0,0,0-.61-1.09l-1.42-2.26c-.89-1.42-1.43-2.27-2.64-4.17-.45-.7-1.29-2.16-1.87-3.24C.57,95.49.3,95.05.09,95a4,4,0,0,0,0,1.78c.09,1,.2,2.53.23,3.43a42.42,42.42,0,0,0,.7,7.06c.18.7.52,2.11.76,3.13s.68,2.48,1,3.24L3.58,116a6.45,6.45,0,0,0,.55,1.18,11.82,11.82,0,0,1,.81,1.39c.33.63.94,1.66,1.36,2.29s.93,1.47,1.14,1.86.52.9.68,1.15c2.67,4.24,2.77,4.37,4.77,6.49.73.77,1.81,2,2.43,2.73a30.23,30.23,0,0,0,2.78,2.75c4.81,4.1,8.27,7.27,8.67,7.94.51.86.67,2.21,1,7.81a26.59,26.59,0,0,0,.77,6.08q1,3.57,1.53,3.93a.74.74,0,0,1,.24.56,3.14,3.14,0,0,0,.77,1.29c1.32,1.53,2.1.48,1.09-1.48a65.51,65.51,0,0,1-2.41-7.89,30.07,30.07,0,0,1-.49-3.94c-.07-1.34-.21-3.47-.31-4.75l-.19-2.31.71-.66A18.89,18.89,0,0,1,31.32,141c.63-.43,1.88-1.36,2.77-2.06,10.38-8.21,13.06-11.11,16.1-17.42.9-1.87,1.79-3.69,2-4a2.75,2.75,0,0,0,.33-.89,8.5,8.5,0,0,1,.56-1.59c.3-.71.83-2.19,1.17-3.27s.72-2.19.83-2.44.48-1.44.82-2.64.76-2.51.93-2.92c.47-1.12.77-2.64.54-2.78A24.51,24.51,0,0,0,54,104.1c-1.75,1.81-3.5,3.56-3.86,3.89-.75.67-7.74,8.63-8.23,9.37a10.48,10.48,0,0,1-1,1.2,21.47,21.47,0,0,0-1.41,1.77c-.4.57-1.39,1.92-2.17,3s-1.65,2.26-1.91,2.64-.83,1.2-1.28,1.84a52.26,52.26,0,0,0-4.35,7.65,12.23,12.23,0,0,1-1.11,2.18,9,9,0,0,1-.41-2.25c-.29-2.38-.22-12.48.09-13.42.15-.46,2.27-2.19,4.06-3.32a65.76,65.76,0,0,0,6.94-7c.83-1,1.92-2.27,2.45-2.83s1.57-1.8,2.31-2.74,1.84-2.31,2.41-3l2.31-2.79c.71-.86,1.76-2.08,2.35-2.74C52.32,96.18,56,91.39,56.88,90a44.36,44.36,0,0,0,3.73-6.55c0-.13-.16-.24-.36-.24-.5,0-4,2.44-5.33,3.73-.64.61-1.51,1.39-2,1.76a166.63,166.63,0,0,0-17.13,17.2l-1.41,1.72a38.66,38.66,0,0,0-5.28,8.09c-.16.37-.31.62-.35.57s0-1.17.11-2.51.29-4.1.42-6.13l.25-3.7,3.17-3c4.19-4,10-9.84,12.93-13,4.41-4.8,5.45-6,6.08-6.79.34-.45,1.21-1.52,1.9-2.33a52.46,52.46,0,0,0,5-7.43,7.84,7.84,0,0,1,.7-1.39,24.52,24.52,0,0,0,1.25-2.58,8.73,8.73,0,0,1,1.16-2.16c.49-.44.62-1,.22-1s-1.19.48-3.46,2.17a109.79,109.79,0,0,0-13.4,11.83c-.59.64-1.32,1.4-1.66,1.72-.66.64-3.4,3.77-5.11,5.82a65.28,65.28,0,0,0-7.19,10.76c-1.28,2.39-1.25,2.67-.41-3.6,1.73-12.83,1.85-13.39,3.08-13.78a39.22,39.22,0,0,0,5-3.31,67.38,67.38,0,0,0,10.64-9.74,27.9,27.9,0,0,0,3.95-5c.54-.88,1.13-1.77,1.29-2,1.23-1.48,4-8,5.39-12.88.63-2.11.64-2.9.05-2.68-.41.15-.74.52-4,4.34-.82,1-2.12,2.36-2.88,3.09A155,155,0,0,0,40.46,65.48c-.45.6-1.32,1.72-1.92,2.5s-1.6,2.16-2.21,3.06a28.08,28.08,0,0,1-2.95,4,10.62,10.62,0,0,1,.12-1.92c.21-1.79.52-5.87.58-7.56,0-.73.28-1.13,1.64-2.56a76.92,76.92,0,0,0,7.42-8.87,53.32,53.32,0,0,0,4.23-6.65,67.34,67.34,0,0,0,3.8-7.94,66.45,66.45,0,0,0,3-9.83c1.6-6.73,2.08-10,1.8-12.44-.13-1.07-1,.4-4.43,7.19-4.19,8.4-5.92,11.72-7.09,13.62a11.66,11.66,0,0,0-.79,1.43c0,.06-.54,1-1.19,2.17a133.25,133.25,0,0,0-7.28,14.77l-1,2.78V47.34l1.12-1.68c2.26-3.34,4.47-9,5.93-15.21a74.77,74.77,0,0,0,2.32-16.73c.19-3.88.06-4.85-.66-4.75-.36,0-.53.25-.57.65A50.63,50.63,0,0,1,40,17a20.46,20.46,0,0,0-.71,2c-.1.38-.52,1.58-.93,2.66a72.06,72.06,0,0,0-3.1,9.48c-.17.7-.66,2.58-1.09,4.16-.65,2.41-.8,2.78-.93,2.21-.79-3.68-.93-4.62-.91-6.15a23.3,23.3,0,0,0-1-6.46A6.51,6.51,0,0,1,31,23.35a5.57,5.57,0,0,0-.43-1.51A11,11,0,0,1,30,20a19.24,19.24,0,0,0-1.28-3.12c-1.46-3-2.8-5.88-2.8-6.07a1.23,1.23,0,0,0-.32-.51c-.17-.2-1-1.68-1.89-3.27s-1.82-3.32-2.11-3.82S20.87,2,20.67,1.62c-.74-1.46-1-1.79-1.13-1.55Zm1.13,3.57a30.46,30.46,0,0,0,2.81,5.69A7.91,7.91,0,0,1,24.37,11,6,6,0,0,0,25,12.29a21.72,21.72,0,0,1,1.86,3.9,2,2,0,0,0,.42.86,8.44,8.44,0,0,1,.85,1.71,10.08,10.08,0,0,0,.59,1.39A4.34,4.34,0,0,1,29,21.3c.29,1.59,1,4.69,1.37,5.65a11.27,11.27,0,0,1,.45,2.26L31,30.56l-.35-1.15c-.19-.64-.51-1.58-.72-2.09-.73-1.85-1.26-3.25-1.61-4.28a54.2,54.2,0,0,0-4.58-10c-.55-.9-.61-.95-.48-.34a18.83,18.83,0,0,0,1.14,2.79,84,84,0,0,1,3.61,9c.66,1.89,1.12,3.07,2,5.14a5.28,5.28,0,0,1,.31.86,11.37,11.37,0,0,0,.59,1.4,11.09,11.09,0,0,1,.58,1.43,13.92,13.92,0,0,1-1.39-1.89c-.76-1.13-1.75-2.53-2.17-3.1a53.08,53.08,0,0,1-4.54-9.15A70.29,70.29,0,0,1,21.21,10c-1.09-6-1.29-7.54-1-7.54a5.93,5.93,0,0,1,.47,1.21ZM42.93,14.18a93.45,93.45,0,0,1-1.08,10.25c-1.73,8-3.91,14.91-5.68,18.06-.18.32-.66,1.22-1.07,2a7.06,7.06,0,0,1-.82,1.38,27.28,27.28,0,0,1,1.07-2.83,77.41,77.41,0,0,0,4.78-15.72c.36-1.8.26-2.31-.15-.79-.15.56-.67,2.27-1.15,3.79s-1.17,3.72-1.52,4.86-1,3-1.38,4A27.08,27.08,0,0,0,35,42a1.9,1.9,0,0,1-.36.88.87.87,0,0,0-.22.64c0,.49,0,.49-.25-.06s-.1-3,.37-4.85l.94-3.72c.33-1.34.7-2.85.83-3.36s.28-1.14.33-1.39c.21-1,1.32-4.28,3.82-11.22.53-1.48,1.05-3,1.15-3.47s.41-1.55.67-2.43.46-1.65.47-1.69.07-.06.15-.06a15,15,0,0,1,0,2.95Zm12.12,7.37c-.11.88-.26,2.13-.33,2.76s-.19,1.42-.26,1.74-.28,1.32-.47,2.22a65.16,65.16,0,0,1-5.33,15.28c-2.54,5.22-5.63,9.77-10.87,16-1.28,1.52-2.6,3.12-3,3.56l-.63.81.46-.93a40.88,40.88,0,0,1,2.69-4.32,58.66,58.66,0,0,0,4.38-6.77c.86-1.52,1.83-3.33,2.17-4a19.15,19.15,0,0,1,1-1.87,73.64,73.64,0,0,0,5-10.07c1.12-3.33,1.68-5.28,1.59-5.54s-.15-.13-.23.09-.58,1.61-1.11,3.13A36.05,36.05,0,0,1,45.55,43c-.52.77-2.13,3.77-3.48,6.48a79.17,79.17,0,0,1-5.64,9.26c-1.61,2.36-1.8,2.57-1.66,1.79A60,60,0,0,1,38.59,51c.31-.57,1.26-2.33,2.1-3.92s1.88-3.51,2.31-4.28,1.49-2.75,2.34-4.41,1.92-3.57,2.36-4.24S50,30,51.82,26.4s3.34-6.55,3.37-6.52a11.76,11.76,0,0,1-.14,1.67ZM15.17,24.08a37.27,37.27,0,0,1,5.51,4c.64.59,1.94,1.76,2.87,2.58a29.53,29.53,0,0,1,8.08,11.68c.91,2.25.95,2.85.14,1.87-.63-.75-3.42-4.76-4.16-6-.56-.92-4.4-5.65-5.82-7.17A37.25,37.25,0,0,0,17.15,27a9,9,0,0,0,1.45,1.67,85.1,85.1,0,0,1,8.34,10.15,61.91,61.91,0,0,0,4.28,5.68.44.44,0,0,1,.22.36c0,.54-5.57-4.74-8.69-8.25a51.86,51.86,0,0,1-4.93-6.7c-.95-1.41-1.91-2.77-2.14-3a42.43,42.43,0,0,1-2.87-4.28s1.1.67,2.36,1.5Zm-3.53,8.11,4.15,3.43a55,55,0,0,1,9,10.42A76,76,0,0,1,30,56c.13.38.5,1.39.81,2.2,1.36,3.58,1,3.35-1-.64a88.48,88.48,0,0,0-6.08-9.79c-.24-.31-.82-1.14-1.3-1.85a82.75,82.75,0,0,0-6.85-8.54c-.64-.54-.39,0,.61,1.35.53.71,1.34,1.83,1.77,2.46a20.84,20.84,0,0,0,1.42,1.84c.58.63,2.86,3.86,4.3,6.11.3.47.9,1.35,1.36,2a49.37,49.37,0,0,1,3.51,5.56c.31.64.86,1.64,1.21,2.2,1.16,1.87,1,1.86-.85-.06-1-1-2.14-2.25-2.59-2.71a71.43,71.43,0,0,1-7.64-9.79c-.19-.35-1-1.66-1.77-2.89S15,40.28,14.41,39.14a75.61,75.61,0,0,0-4.58-7.72c-1.09-1.48-.72-1.32,1.81.77Zm-.92,13.68A57.54,57.54,0,0,1,17.33,53c2.26,2.78,5.78,7.75,5.78,8.18a.85.85,0,0,0,.34.48,3.89,3.89,0,0,1,.65.91c.16.33.52,1,.77,1.43.91,1.6,1.69,3.15,2.73,5.4C28.72,71.86,29,73.09,28,71c-.35-.71-1-1.89-1.52-2.66s-1.39-2.34-2-3.49A58.25,58.25,0,0,0,21,59,57.21,57.21,0,0,0,16,53.15l-.88-.83.44.74c.24.41,1.18,1.67,2.09,2.81A93.55,93.55,0,0,1,25,66.68a16.78,16.78,0,0,0,1,1.66c.12.15.9,1.65,1.74,3.35s1.7,3.34,1.92,3.66a6.45,6.45,0,0,1,.56,1.05c.22.61-1.06-.93-2.5-3-.62-.9-1.45-2-1.85-2.47s-1-1.19-1.24-1.62-1.19-1.66-2-2.72-1.66-2.28-1.91-2.69-.77-1.22-1.13-1.77-1-1.61-1.49-2.36-1.21-1.93-1.68-2.66c-1.23-1.94-2.79-4.6-3.56-6.09-.38-.72-1.25-2.11-1.91-3.06A14.71,14.71,0,0,1,9.67,46a6.29,6.29,0,0,0-.82-1.2,9.63,9.63,0,0,1-.8-1.11c0-.23.46.14,2.67,2.15Zm48.61.26a62.61,62.61,0,0,1-4.15,10.14,41.13,41.13,0,0,1-5.67,8.18A67.1,67.1,0,0,1,35.32,77.07c-1.15.73-1,.25.44-1A159.3,159.3,0,0,0,47.23,63.32c1.16-1.51,4.42-6.1,5.51-7.76,2.07-3.12,1.85-3-.9.64C50.73,57.66,49,59.88,48,61.13s-2,2.51-2.19,2.79c-1.06,1.54-12.71,14.2-12.45,13.51.11-.3,2.25-3.5,5.85-8.77,2.59-3.79,8.64-10.76,14.69-16.93a55.44,55.44,0,0,0,4.31-4.81,17,17,0,0,1,1.23-1.42s0,.28-.08.63Zm-45.83,19,1.55,2a62.51,62.51,0,0,1,5.14,8.57c.47,1,1.26,2.69,1.74,3.71,2.17,4.58,5.58,17,5.55,20.22v1.08l-.7-2c-.39-1.08-.79-2.29-.89-2.67s-.77-2.51-1.51-4.74-1.54-4.72-1.79-5.55-.55-1.72-.66-2L20.65,80.7a67.21,67.21,0,0,0-3.06-6.55,1.81,1.81,0,0,0-.44-.64c-.06,0-.07.07,0,.18.3.61.66,1.43.94,2.13.17.45.66,1.66,1.08,2.67.75,1.85,3.58,9.82,3.94,11.11.11.38.83,2.56,1.61,4.85,2.11,6.2,2.11,6.15,0,2.1C23.93,95,23.15,93.61,23,93.42a3.11,3.11,0,0,1-.46-.91,10.49,10.49,0,0,0-.85-1.7,21.67,21.67,0,0,1-1.24-2.64c-.31-.81-.72-1.81-.9-2.23a52.68,52.68,0,0,1-2.33-6.28c-.34-1.16-1-3.13-1.42-4.41s-.95-2.89-1.13-3.59-.89-2.92-1.6-4.93A24.5,24.5,0,0,1,12,63.19a22.84,22.84,0,0,1,1.55,1.92Zm46.86,1.12c0,.8-4.52,8-6.09,9.7A5.44,5.44,0,0,0,53.42,77c0,.35-5.51,6.39-11.39,12.47l-7,7.28a17.07,17.07,0,0,1-2.55,2.4c-.08-.07.27-.59.75-1.14s1.59-2,2.46-3.22,2.18-2.88,2.89-3.71,1.58-1.88,1.92-2.33,1.8-2.08,3.25-3.6c2.81-2.93,4.67-5,5.92-6.55,1.48-1.83,3.73-4.87,4-5.4s-1.51,1.37-2.09,2.23a5.65,5.65,0,0,1-.57.72c-.14.12-.83.91-1.52,1.73-2.39,2.83-3.09,3.61-6.88,7.67-.52.56-1.52,1.72-2.18,2.53s-2,2.39-2.86,3.47-2.16,2.64-2.79,3.48a64.22,64.22,0,0,1-4.66,5.69A37.64,37.64,0,0,1,33,95c2-3.11,3.79-5.77,4.71-7,2-2.58,3.73-4.72,4.1-5.06.21-.18,1.06-1.13,1.88-2.08A110.11,110.11,0,0,1,54.59,70.38c5.09-4.06,5.77-4.55,5.77-4.15Zm-48,12.37c.62,1.85,1.57,4.47,2.13,5.86s1,2.59,1,2.7a18.26,18.26,0,0,0,.83,2c.46,1,1.05,2.35,1.3,3,.41,1.06.59,1.5,1.45,3.46a37.85,37.85,0,0,1,1.87,4.74c.2.71.47,1.59.6,2,.46,1.38,1.63,5.6,1.95,7.08.18.82.48,2,.65,2.65,1.1,3.92,1.4,6.68.5,4.63-.22-.51-1-2.21-1.76-3.75s-1.51-3.27-1.7-3.81-.61-1.61-.94-2.39a19.2,19.2,0,0,1-.82-2.2c-.11-.44-.31-1.19-.44-1.63-.18-.68-1.38-5.43-2.12-8.4a31.62,31.62,0,0,0-2-4.94,8.91,8.91,0,0,0,.4,1.68c.25.88.83,3,1.28,4.72s1.08,4.06,1.39,5.21.66,2.45.79,2.9c.19.72,1.54,4.25,2.08,5.44.11.26.43,1,.7,1.63.58,1.35.67,1.57,1.62,3.66a7.26,7.26,0,0,1,.62,1.68,36.73,36.73,0,0,1-3-4.68c-.72-1.31-3.44-7.29-4.1-9a100.55,100.55,0,0,1-3.66-12.15c-.57-2.65-.95-4.55-1.15-5.78-.94-5.62-1.4-8.85-1.4-9.83V73.86l.42.7a35.09,35.09,0,0,1,1.53,4Zm46.17,7c-1.68,3.28-5.71,8.67-10.24,13.69-.92,1-1.86,2.11-2.12,2.45-1.83,2.45-12.27,13.75-14.35,15.53s-2.64,2-1.2.5a4.54,4.54,0,0,0,.87-1.06A18.67,18.67,0,0,1,34,113.41c.57-.65,1.52-1.79,2.09-2.52s1.88-2.23,2.92-3.33,2.9-3.25,4.14-4.77,2.41-2.92,2.58-3.08c.33-.32,1.57-1.9,4.83-6.16,2.75-3.6.88-1.54-6.91,7.58-1.29,1.53-3.48,4-4.87,5.45s-3,3.26-3.46,4-1.47,1.89-2.12,2.66-1.65,2.1-2.2,2.91c-1.45,2.12-2.42,3.25-2.21,2.56a35,35,0,0,1,3.49-6.5,1.46,1.46,0,0,0,.34-.53,33.68,33.68,0,0,1,3.11-4.08,15.28,15.28,0,0,0,1.08-1.32c.32-.49,1.78-2.14,4.94-5.62,1.85-2,9.63-9.55,12.52-12.09,1-.88,4.29-3.44,4.43-3.44s0,.25-.19.53ZM3.53,102.32c.86,1.53,2,3.36,2.52,4.06s1.26,1.74,1.62,2.32c.69,1.06,1.05,1.61,4.16,6.21a31.9,31.9,0,0,1,1.77,2.8,1.45,1.45,0,0,0,.47.6,1.37,1.37,0,0,1,.46.64,5.92,5.92,0,0,0,.73,1.3c3.61,5.29,4.51,6.73,5.32,8.51.51,1.12,1.36,2.94,1.86,4s1.17,2.48,1.46,3.12,1.08,2.29,1.74,3.66a14.64,14.64,0,0,1,1.1,2.61c-.12.12-1.1-1.41-1.1-1.72a124.33,124.33,0,0,0-6.94-10.89c-.58-.75-1.45-1.88-2-2.57s-1.24-1.59-1.65-2.06S13,122,11.26,119.49s-3.33-4.92-3.62-5.33-.73-1-1-1.42-.46-.55-.46-.38c0,.51.71,1.69,5.15,8.53.6.92,1.79,2.58,2.65,3.68s2.12,2.75,2.79,3.66,1.36,1.81,1.52,2c.36.43,2.19,3.13,4.15,6.12,2.57,3.93,3,4.59,2.83,4.71a11.27,11.27,0,0,1-2.15-1.85c-1.1-1.08-2.64-2.49-3.39-3.11A96.25,96.25,0,0,1,11.39,127C9,123.73,4.12,115.1,3.63,113.24c-.1-.39-.3-1.13-.43-1.59-.67-2.4-.76-2.76-1.64-6.83a32.47,32.47,0,0,1-.35-3.48C1.14,100,1,98.55,1,98.17c-.1-.61,0-.56.44.34.3.57,1.26,2.29,2.12,3.81Zm23.22-2.07c-.06.07-.2-.06-.28-.28s-.11-.36.12-.14.23.35.16.42Zm28.86,4.89c-.45,1.38-.92,2.7-1,2.92a2.06,2.06,0,0,0-.22.85.8.8,0,0,1-.21.58,1.69,1.69,0,0,0-.37.84c-.16.74-2.27,5.91-3.25,8-.29.63-1,2.09-1.51,3.24a27,27,0,0,1-5.8,8.22A57.74,57.74,0,0,1,36,136.12c-1.15.87-2.59,2-3.2,2.54a18.4,18.4,0,0,1-3.06,2.44c-.3,0,.83-1.67,2.87-4.25,3.1-3.92,4.94-6.32,6.89-8.95,1-1.35,2.29-3.05,2.91-3.82a14.69,14.69,0,0,0,1.28-1.73c.09-.18,1.51-2.37,3.17-4.86s3.09-4.68,3.2-4.87c.46-.86-2.32,2.4-3.46,4.06-2.15,3.13-4.55,6.47-5.64,7.87-.57.72-1.61,2.14-2.32,3.13s-2,2.63-2.78,3.63a31.68,31.68,0,0,0-1.94,2.51A11,11,0,0,1,33,135a23.73,23.73,0,0,0-3.62,5.09c-.7,1.3-.75,1.34-.75.66a28.1,28.1,0,0,1,2.74-6,8.22,8.22,0,0,0,.49-1.06,11.25,11.25,0,0,1,1-1.74c.34-.51,1.06-1.66,1.58-2.54a129.44,129.44,0,0,1,9.38-12.85c.39-.46,1.13-1.35,1.63-2,1.18-1.43,2.66-3.13,5.09-5.79,4.4-4.85,5.79-6.33,5.86-6.26a24.9,24.9,0,0,1-.77,2.59Z" fill="#221244"/><path d="M40.6,24.32a2.24,2.24,0,0,0-.12.76c0,.22.11.08.22-.29.22-.73.14-1.09-.1-.47Z" fill="#221244"/></g></g></svg>