<svg xmlns="http://www.w3.org/2000/svg" viewBox="0 0 148.64 190.62"><g id="Layer_2" data-name="Layer 2"><g id="OBJECTS"><path d="M46.44.26c-.62,2.42-.93,3.71-1.08,4.56a58.52,58.52,0,0,1-2.07,6.59,17.4,17.4,0,0,0-.58,2.43,53.23,53.23,0,0,1-1.38,5.58c-.17.57-.49,2.1-.72,3.42a13.22,13.22,0,0,0-.14,4.95c.29,2.56,1.08,6.12,1.46,6.53a1.07,1.07,0,0,1,.2.62,55.59,55.59,0,0,0,3.52,6.35A22.25,22.25,0,0,1,49,47.46a43.22,43.22,0,0,0,4.63,8.77,8.68,8.68,0,0,0,4.18,3.32,9.56,9.56,0,0,1,2.1,1.35c1.55,1.37,4.58,2.23,8.16,2.28l2.35,0,.49,1c.27.52.81,1.47,1.21,2.11a15.86,15.86,0,0,1,1.1,2.08,28.93,28.93,0,0,0,1.58,2.9c.66,1.08,1.38,2.27,1.59,2.63s.61,1,.88,1.43a6.08,6.08,0,0,1,.65,1.26c.13.44.1.48-.26.28s-2-.78-4-1.44-4.32-1.55-5.21-2-2.13-1-2.75-1.24a11.32,11.32,0,0,1-2.88-2.28,44.67,44.67,0,0,0-7.52-6.1,17.46,17.46,0,0,0-7.1-3.2c-1.21-.26-3.14-.74-4.28-1.07-5.42-1.56-7.48-1.69-11.24-.69-1.35.36-3,.78-3.7.94s-1.91.49-2.66.73-1.91.59-2.54.75-1.67.44-2.3.62a37.1,37.1,0,0,1-4.06.66,33.51,33.51,0,0,0-4,.67,17.7,17.7,0,0,0-6.53,4.3c-3,3.22-3.83,3.92-4.6,4.08C1.3,71.83,0,72.44,0,72.68s.45.2,1,.2a29.64,29.64,0,0,1,3.54.45,58.71,58.71,0,0,0,6.13.61c5.2.22,7.35.8,12.5,3.36,3.66,1.83,4.08,1.92,8.22,1.74a37.16,37.16,0,0,1,7.72.4,25.78,25.78,0,0,0,5.32.36c.59-.09,2.06-.3,3.28-.45a17.41,17.41,0,0,0,6.68-1.85,5.35,5.35,0,0,1,1.43-.7A15.5,15.5,0,0,0,60,75.34a23.14,23.14,0,0,1,3.81-2.44c.69-.28.93-.24,2.67.45a20.88,20.88,0,0,1,2.15.94c.13.1,1.71.81,3.52,1.58,5,2.14,5.23,2.3,7.22,4.77a27.14,27.14,0,0,1,4.17,6.59,34.45,34.45,0,0,0,1.87,3.6A19.19,19.19,0,0,1,87,94.41a20.44,20.44,0,0,0,1.06,2.71,2.38,2.38,0,0,1,.33,1.08,5.27,5.27,0,0,0,.43,1.57c.24.55.77,2.13,1.19,3.55s.94,3,1.17,3.47a18.51,18.51,0,0,1,1,4.72,4.14,4.14,0,0,1-1.19-.61,35.48,35.48,0,0,0-9.94-4.23c-1.1-.28-1.18-.36-1.42-1.25a12.27,12.27,0,0,0-2.51-3.55c-3.08-3.55-4.27-4.27-8.39-5a9.88,9.88,0,0,0-3.94-.15,46.74,46.74,0,0,1-6.4.11c-5.67-.16-7.86.09-10.23,1.21a36.9,36.9,0,0,1-3.47,1.39,12.89,12.89,0,0,0-2.88,1.39,19,19,0,0,1-2,1.23,7,7,0,0,0-2.82,3.39,18.51,18.51,0,0,1-2.82,5,24,24,0,0,0-3.39,5.6,10.36,10.36,0,0,1-2.57,4.17c-.72.75-1.23,1.41-1.15,1.49a7.38,7.38,0,0,0,2.06-.29,30.28,30.28,0,0,1,8.75-.22,13.48,13.48,0,0,0,3.68-.08,6.57,6.57,0,0,1,2.54,0c2.43.43,10.55,1.47,12.19,1.56a22.44,22.44,0,0,0,7.19-1c1.3-.6,2.36-1.49,5.19-4.33a15.2,15.2,0,0,1,2.86-2.49c.83,0,4.45-2.19,6.06-3.67a7.86,7.86,0,0,0,2.13-2.86c.19-.35.52-.63.74-.63a16.13,16.13,0,0,1,5.57,1.85c.32.21,1.26.73,2.08,1.14,1.83.92,3.48,2.07,3.48,2.43a3.09,3.09,0,0,0,.54,1,3.26,3.26,0,0,1,.59,2c.06,1.35.4,4.41.73,6.55.12.76.32,2.36.44,3.55a16.27,16.27,0,0,0,.36,2.36c.06.11.17,3.35.23,7.21a117.84,117.84,0,0,1-.35,13c-.26,3.3-.57,6.49-.69,7.06l-.4,1.93-.17.89-.46-.54c-.26-.29-.92-1.21-1.49-2.05a13.57,13.57,0,0,0-1.71-2.09l-.68-.58.36-1.5c.6-2.45.67-3.33.37-4.77A12.79,12.79,0,0,0,87,141.93a15.21,15.21,0,0,1-1.58-2.78,10.7,10.7,0,0,0-4.07-5,25.82,25.82,0,0,0-6.48-3.7c-.64-.24-2.23-1-3.57-1.63a13.45,13.45,0,0,0-7.89-1.62,10.06,10.06,0,0,1-3-.12,31.78,31.78,0,0,0-4.4-.44A28.17,28.17,0,0,1,51.2,126a5,5,0,0,0-1.57-.29,4.3,4.3,0,0,0,.82,1.35,3.3,3.3,0,0,1,.94,2.75,14,14,0,0,0,1.27,5.55c3.47,6.84,4,7.6,6.4,9.18a16.85,16.85,0,0,1,2.8,2.44,19.36,19.36,0,0,0,6.31,4.69c1.41.75,2.81,1.52,3.13,1.74a10.23,10.23,0,0,0,4.52,1.51c1.28.2,3,.49,3.81.63a9.92,9.92,0,0,0,5.58-.28,20.58,20.58,0,0,1,1.93-.84c.86-.31,1-.3,1.47.2a6.46,6.46,0,0,1,.91,1.22,11.78,11.78,0,0,0,1,1.54,3,3,0,0,1,.66,1.4,5.31,5.31,0,0,0,.57,1.71c.57,1.14.57,1.15.24,3.22-.18,1.16-.54,3.07-.79,4.28s-.57,3.07-.71,4.16a54.43,54.43,0,0,1-1.17,6.37c-.12.39-.31,1.32-.44,2.09-.2,1.25-.61,3.24-1.42,6.84-.32,1.45-.14,2.89.39,3.1a1.41,1.41,0,0,0,1.48-.79,19,19,0,0,0,1.08-6.1,20.62,20.62,0,0,1,.42-3.71A42.41,42.41,0,0,0,92,173.54c.13-1.76.37-2.55,1-3.21a6.56,6.56,0,0,0,.79-1.11,26.72,26.72,0,0,1,1.79-2.4,20.87,20.87,0,0,0,1.77-2.47,11.64,11.64,0,0,1,2.71-3.43l1.28-1.2,1.21.81a12.79,12.79,0,0,0,6.55,2c3.57.33,4.7.3,6.48-.16s4.06-2,6.71-4.37a35.57,35.57,0,0,1,5.2-3.47c1.38-.71,3.24-2.3,6.86-5.85,3-2.92,3.49-3.74,4.61-7.12a15.85,15.85,0,0,1,1.54-3.36,15.76,15.76,0,0,0,1.26-2.1,50.3,50.3,0,0,1,3.16-6,13.79,13.79,0,0,1,3.21-3.51c1.18-.46.52-.67-1.81-.59a23.37,23.37,0,0,1-4.94-.35c-5.2-.89-8.95-.42-12.77,1.62-4.07,2.17-4.59,2.36-6.83,2.56-5.78.51-12.37,4-14.9,7.88a29.88,29.88,0,0,1-2.41,2.77,14.74,14.74,0,0,0-4.43,8.58c-.42,2.27-.4,7.54,0,8.69l.36.92L97.59,162c-3.55,4.28-4.78,5.58-4.66,5,0-.25.24-1.3.44-2.31s.47-2.63.61-3.58.36-2.21.48-2.78.26-1.59.32-2.27a6.49,6.49,0,0,1,.22-1.39,11.13,11.13,0,0,0,.15-2c0-1,.13-2.59.24-3.48.37-3.13.74-10,.73-13.3A14.44,14.44,0,0,1,97.23,129a61.06,61.06,0,0,1,5-9.74c.5-.7.59-.73,1.87-.63a28.77,28.77,0,0,0,7.23-.86c3.68-.86,10.85-4.93,12.93-7.33,1.65-1.91,2.34-3.64,2.8-7,.11-.82.31-2,.43-2.55s.39-2,.59-3.13.6-2.86.86-3.81c.41-1.47.49-2.37.5-5.9a37.55,37.55,0,0,0-.28-5.56,18.16,18.16,0,0,0-1.64-4.76,8.09,8.09,0,0,1-.54-.91,15.62,15.62,0,0,0-.83-1.38,23.41,23.41,0,0,1-2.4-4.35c-.42-1.26-.85-1.25-.85,0a8.87,8.87,0,0,1-.48,2.39c-.41,1.12-.86,1.7-2.85,3.65a17.14,17.14,0,0,0-3.09,3.7A9.92,9.92,0,0,1,115,82.94,45.09,45.09,0,0,0,111,88.16a25.58,25.58,0,0,1-1.73,2.18C106,94,104.76,96.16,104.4,99a25.54,25.54,0,0,1-1.37,6c-.49,1.61-1,3.58-1.2,4.41-.37,1.8-.4,7.48,0,8.35.22.53.19.68-.22,1a5.1,5.1,0,0,0-.91,1.29,62.62,62.62,0,0,1-4.81,7.36,7.31,7.31,0,0,1-.56-2.14c-.21-1.17-.49-2.56-.61-3.06a23.41,23.41,0,0,1-.94-5.47,55.89,55.89,0,0,0-.71-7A71.7,71.7,0,0,0,90.62,100,32.85,32.85,0,0,0,89,95.81a10.91,10.91,0,0,1-.59-1.63c-.16-.58-.48-1.56-.71-2.2s-.52-1.62-.65-2.19a35.31,35.31,0,0,1-.39-7.3l.16-1.06h2a15.89,15.89,0,0,0,10.21-3.24,24.84,24.84,0,0,0,8.39-9.37,22.92,22.92,0,0,0,2-4.63c.53-1.48.56-1.83.43-4.38a42.79,42.79,0,0,0-.59-5c-1-5-1.05-5.86-.38-8.79,1.28-5.6,1.24-7.48-.21-10.72-3.2-7.14-4.13-9.14-4.61-9.9-.19-.31-.68-1.3-1.07-2.18a7.18,7.18,0,0,1-.6-4.7c.13-.35.11-.52,0-.52-.54,0-7.9,11.83-8.93,14.37-2.07,5.07-4,8.64-5.45,10.3a35.4,35.4,0,0,0-5.12,9.76c-.43,1.65-.46,2.14-.28,5.62.25,5.21.21,6.42-.36,9.37-.82,4.26-.74,6,.41,8.89a18.72,18.72,0,0,0,2.75,4.34c.4.41.42.63.25,2-.11.82-.28,2.26-.37,3.21-.15,1.54-.19,1.66-.44,1.16a5.49,5.49,0,0,1-.39-1.14c-.12-.57-.82-1.76-2.47-4.21a25.28,25.28,0,0,1-2.65-4.5A33.26,33.26,0,0,0,77.6,74c-.6-1-1.73-3-2.5-4.53s-1.93-3.7-2.57-4.9l-1.17-2.21,1-2c.53-1.08,1.5-2.9,2.16-4.05a18.37,18.37,0,0,0,1.55-3.47c.74-2.84.24-12-.78-14.33A11.4,11.4,0,0,1,74.69,37a9.79,9.79,0,0,0-1.34-2.2,18.6,18.6,0,0,1-1.76-2.84c-.32-.71-.89-1.89-1.27-2.66s-.88-1.75-1.1-2.21a23.82,23.82,0,0,0-2.83-3.24L64,21.38l-.75-2.32c-.41-1.27-1-2.83-1.29-3.48A20.1,20.1,0,0,0,55,7.82a25.4,25.4,0,0,1-7.33-6.77C46.85,0,46.57-.23,46.44.26Zm1.35,7.23c.45,2.56.93,5.56,1.07,6.71s.29,2.26.36,2.48c.2.7-.08.44-.91-.81a39.94,39.94,0,0,1-2.7-5.07,4.66,4.66,0,0,0-.23-.78c-.37-.95-.55-.52-.25.62A19.23,19.23,0,0,0,49,18a11.29,11.29,0,0,1,1.31,2.08c.28.59,1,1.8,1.5,2.69,1.37,2.22,2.08,3.59,1.88,3.59a40,40,0,0,1-5.09-4.12c-.43-.46-1.42-1.68-2.19-2.69s-1.47-1.91-1.54-2a5.76,5.76,0,0,1-.53-.69c-.21-.31-.4-.45-.4-.31,0,.44,2.7,4.34,4,5.71a33.12,33.12,0,0,0,3.8,3.19c2.63,1.9,2.67,1.95,3.33,3.58l.67,1.65-1.91-1.21c-4.55-2.85-6-4.15-9-8.16a19.57,19.57,0,0,0-1.72-2.14c-.47,0,2.66,4.55,4.46,6.49a32.12,32.12,0,0,0,6.62,4.75,5,5,0,0,1,2.54,3.12c.82,2,4.55,13.28,4.43,13.4s-.29-.09-.51-.28a51.19,51.19,0,0,0-7.2-3.28C47.11,40.91,45.86,40.07,44,37A19.71,19.71,0,0,1,41.33,28l-.15-1.74L42,27.6a41.6,41.6,0,0,0,3,4.21,32,32,0,0,0,5.26,3.79,19,19,0,0,1,2,1.16,17.62,17.62,0,0,0,2.06,1.15A16.25,16.25,0,0,1,56.23,39a11.27,11.27,0,0,0,1.93,1c.46,0-1.57-1.62-2.82-2.25a84.58,84.58,0,0,1-8.16-5c-1.59-1.16-2.26-1.95-4.67-5.5l-1.35-2,.17-1.56a5.67,5.67,0,0,1,.32-1.67A7,7,0,0,1,43,23.78a31.19,31.19,0,0,0,9,8.66c1.61,1,1.32.61-.35-.52a40.84,40.84,0,0,1-8.06-8l-2-2.6.89-3.67c.5-2,1-4.19,1.05-4.83a4.66,4.66,0,0,1,.35-1.4,66.05,66.05,0,0,0,2.2-6.68,9.44,9.44,0,0,1,.69-2c.05,0,.46,2.16.92,4.72ZM49,5.26a31.55,31.55,0,0,1,.42,3.39,16,16,0,0,0,.34,2.54c.21.51.09-2.91-.16-5L49.47,5l.59.44,2,1.49,1.4,1,.28,1.93a48.87,48.87,0,0,1,.18,6.45c0,2.76,0,4.26.11,3.86A82,82,0,0,0,54.1,9.28c-.15-.86-.13-1,.22-.83a16.91,16.91,0,0,1,3.8,3,15.09,15.09,0,0,1,3.59,5.84c.53,1.45.54,1.61.32,4.87-.13,1.85-.33,3.88-.45,4.49a11.22,11.22,0,0,0-.22,1.88,15.37,15.37,0,0,1-1,4.21,2.48,2.48,0,0,0-.25,1,3.44,3.44,0,0,0,.55-1c1.14-2.52,1.6-4.88,1.84-9.44l.14-2.67.66,1.11a10.38,10.38,0,0,0,2.58,2.92l.86.78-.11,1.76a59.49,59.49,0,0,1-1.11,8C64.89,38,62.12,46.47,62,46c-.07-.2-.46-1.34-.86-2.55s-.86-2.5-1-2.89-.53-1.49-.81-2.43-.7-2.27-.94-2.9-1-2.6-1.62-4.39l-1.19-3.23.4-1.85c.22-1,.59-2.4.81-3.07a28.3,28.3,0,0,0,.85-8.59c-.17-3.58-.62-4-.6-.6a34,34,0,0,1-1,8.64c-.27.95-.62,2.38-.76,3.13L55,26.69l-.63-1.22c-.35-.69-.91-1.65-1.27-2.2a28.16,28.16,0,0,1-1.44-2.51l-.78-1.54L51.29,17c.77-3.86.53-10.28-.38-10.28-.14,0-.19.29-.11.64a35.07,35.07,0,0,1-.25,9.77c-.15.79-.17.76-.56-.81a15.19,15.19,0,0,1-.43-2.5,17.06,17.06,0,0,0-.35-2.42c-.27-1.31-1-5.49-1.41-8l-.11-.7.54.67a5.65,5.65,0,0,1,.8,2Zm52.83,16.52a9.88,9.88,0,0,0,.45,1.45c.35.77,1.39,3.37,1.85,4.61a17,17,0,0,0,.79,1.85c.5.93.48,1.17-.19,2.89a29,29,0,0,1-4.1,6.9c-1.82,2.42-2.56,3.34-2.16,2.64.1-.17.26-3.08.36-6.48.18-6.63.52-9.33,1.47-11.73.31-.77.69-1.77.85-2.26a3.72,3.72,0,0,1,.37-.87,5,5,0,0,1,.31,1ZM99,25.15c-.52,1.57-.64,3.09-.71,8.77-.06,4.88-.46,9.08-.82,8.71A59.53,59.53,0,0,1,95,33.77a9.8,9.8,0,0,1-.17-2.54c.22-.88,4.24-7.51,4.44-7.32a3.8,3.8,0,0,1-.3,1.24ZM68.56,27.74c.18.32.57,1.05.9,1.62a24.11,24.11,0,0,1,1.13,2.42,15.13,15.13,0,0,0,1.17,2.32c1.14,1.7,1,4.45-.35,8.84-.34,1.09-.43,1.39-1,3.55C69.9,48.17,68.62,52,68,53.72a9.06,9.06,0,0,0-.6,2.26c0,.38-.09.7-.19.7a43.77,43.77,0,0,1-3.46-5.56c-.15-.32-.53-1.32-.85-2.25l-.59-1.67,1.13-2.85c2.64-6.66,3.72-11.53,3.72-16.73V25.77l.56.69a8.82,8.82,0,0,1,.87,1.28Zm38.14,5.39c1.31,2.82,1.91,4.55,1.77,5.07-.1.35-.08.43.06.22.32-.45.51.2.51,1.74s-.42,2.41-2.08,4.68a33.13,33.13,0,0,1-5.17,5.09,47.14,47.14,0,0,0-7.12,6.17c-.17.31-.36.52-.41.47a24.78,24.78,0,0,1,1.36-4.41c.54-1.53,1.52-4.77,2-6.49a8.94,8.94,0,0,1,1.9-3.7,35.88,35.88,0,0,0,6-9.55c.14-.41.32-.75.39-.75a6.63,6.63,0,0,1,.81,1.46ZM95.17,37.58a35.2,35.2,0,0,0,1.84,6c.26.65.13,1.16-1.58,6.36-1,3.11-1.9,5.87-2,6.12s-.36-.47-.7-1.62-1.19-3.79-1.89-5.86c-1.07-3.13-1.29-4-1.29-5.36A3.22,3.22,0,0,1,90,41.13a34.76,34.76,0,0,0,2.29-4.36c.23-.53.26-.49.27.5,0,1.81,2.51,10.49,2.89,10.1A7.22,7.22,0,0,0,95,45.43c-1.89-5.86-2.54-10-1.73-11.09a5.6,5.6,0,0,0,.49-1.17l.31-.92.19,1.16c.1.63.51,2.52.91,4.17Zm-20.91,1a28.5,28.5,0,0,1,1.59,10.27,23.43,23.43,0,0,1-.47,3.73,14.1,14.1,0,0,1-1.87,3.81c-.16.2-.84,1.31-1.52,2.51a18.1,18.1,0,0,1-1.4,2.25c-.29.19-3-3.72-3-4.32s.3-1.39,1.85-5.51a69.68,69.68,0,0,0,2.21-6.94l1.14-4.25a8.14,8.14,0,0,0,.45-3.12c-.23-1.36.24-.64,1,1.57ZM52.18,43.69c1.92.67,7.11,2.77,8.21,3.32s1.06.6,1.69,2.54A26.39,26.39,0,0,0,64,53.72a17.11,17.11,0,0,1,1.18,2.21,1.39,1.39,0,0,1-.62-.16c-.86-.33-4.08-1.23-6.79-1.9a18.87,18.87,0,0,1-5.27-2.26,4,4,0,0,1-1.9-2.14c-.63-1.41-.73-1.94-.32-1.69.15.1.19,0,.1-.1s-.25-.21-.37-.14-.81-1.47-.62-1.67a4.61,4.61,0,0,1,1.48.58,56,56,0,0,0,7.7,2.89c.66.12.59.06-.36-.29-2.91-1.11-7.28-3-8.22-3.54a4.3,4.3,0,0,1-1.38-1.26c-.19-.36-.62-1.13-1-1.73L47,41.44l2,.93c1.1.51,2.52,1.1,3.15,1.32Zm37.28,2.93c.63,2.12,1.29,4.09,1.53,4.61.12.25.53,1.43.91,2.62,1,3.24,1,4.43-.48,8.47-.63,1.79-1.25,3.47-1.36,3.73s-.48-.14-1.75-2.78c-2.48-5.21-3.46-8.13-3.81-11.33a4.13,4.13,0,0,1,.62-3.23,19,19,0,0,1,1.34-2.32,12.42,12.42,0,0,0,.94-1.52,9.92,9.92,0,0,1,.9-1.4l.48-.6.13,1.19a17.89,17.89,0,0,0,.55,2.56Zm18.6-.48c-.45,1.87-.46,2.11-.08,6.72A17.5,17.5,0,0,0,108.3,55l.24,1-1.31,1.24A42.38,42.38,0,0,1,96.39,64a37.77,37.77,0,0,0-3.75,2,7.63,7.63,0,0,1-2.12,1.08c0-.11.43-1.33.94-2.7s1.18-3.2,1.48-4c.71-2,2.65-4.38,5.59-6.79,6.63-5.45,7.92-6.6,8.88-7.9.57-.77,1-1.4,1.07-1.39s-.17.86-.42,1.88ZM84.2,53.6a22.93,22.93,0,0,0,.71,3.19,78.89,78.89,0,0,0,3.61,8.75c1,1.78,1,2.43.4,4.14C88.46,71,87.85,73,87.59,74.11l-.15.67-.5-.9c-.27-.48-1-1.68-1.65-2.63-1.84-2.78-2.34-4.2-2-5.8l.2-1,1.07,2.2c1.09,2.25,2.72,4.92,2.73,4.48a37.28,37.28,0,0,0-1.83-3.85c-1.83-3.59-1.84-3.61-1.92-5.66,0-1.12-.06-2.08,0-2.11a6.86,6.86,0,0,1,.44,1.17c.7,2.13,4.51,9,4.69,8.51a5.79,5.79,0,0,0-.82-1.81c-2.84-5-4.26-8.29-4.57-10.74-.16-1.26.25-4.83.56-4.83a6.16,6.16,0,0,1,.42,1.8ZM55.7,54a14.94,14.94,0,0,0,2.46.8c.31,0,2.71.66,6.86,1.89.92.27,1.54.89,3,3l1.41,2c.33.46.29.46-2.18.31-3.26-.2-5.55-.9-7.34-2.25a10.08,10.08,0,0,0-2.2-1.31,7.49,7.49,0,0,1-2.91-2,10.47,10.47,0,0,0-.78-.88,17.36,17.36,0,0,1-1.91-3.16c0-.09.35,0,.77.29A27.49,27.49,0,0,0,55.7,54ZM109,61.24c0,2.56-.37,3.45-2.08,4.87-2.15,1.78-3.86,2.59-10.65,5a25.35,25.35,0,0,0-2.89,1.19c-.56.36-.35.38.51,0a24.72,24.72,0,0,1,3-1,32,32,0,0,0,10.32-5c.57-.46.92-.67.78-.48a8.77,8.77,0,0,0-.65,1.44c-1.09,2.95-5.07,4.74-15.34,6.9a22.83,22.83,0,0,0-2.31.66,5,5,0,0,1-1.44.37,29.89,29.89,0,0,1,1.33-5.09c.65-2,.67-2.08,2-2.94.76-.48,3.44-1.9,6-3.17,4.91-2.44,7.25-3.89,9.48-5.89L108.45,57l.28,1.42a18.51,18.51,0,0,1,.3,2.86Zm-70.4-2A29.65,29.65,0,0,1,42.2,60a6.14,6.14,0,0,1,3.44,2.14A28.39,28.39,0,0,1,50,67.61c.45.79.45.86.08.86a5.8,5.8,0,0,1-1.22-.23c-.44-.13-1.56-.39-2.51-.59a4,4,0,0,1-2.55-1.19,90.52,90.52,0,0,0-7.87-6c-1.5-1-1.63-1.17-1.14-1.29a10.07,10.07,0,0,1,3.86,0ZM35.3,60.84c1,.75,2.32,1.7,2.88,2.11a44.49,44.49,0,0,1,5.34,4.13c0,.13-.76.18-1.8.12L37.79,67c-2.35-.13-2.74-.27-5.27-2a23.67,23.67,0,0,0-5.65-2.89l-1.25-.41,1.13-.43a5.87,5.87,0,0,1,1.37-.39,2.77,2.77,0,0,0,.88-.24,4.35,4.35,0,0,1,1.05-.28,9.47,9.47,0,0,0,1.55-.44,7.19,7.19,0,0,1,1.5-.43,9.37,9.37,0,0,1,2.2,1.35Zm10.93.33a14.09,14.09,0,0,1,3.85,4.3c1.51,2.29,2.22,3.22,2.23,2.89a3.61,3.61,0,0,0-.57-1.09,5.34,5.34,0,0,1-.57-1,15.79,15.79,0,0,0-2.81-3.82c-.68-.68-1.06-1.18-.83-1.09a10.26,10.26,0,0,0,1,.31c1,.22,2.31,1.64,3.68,4a10.3,10.3,0,0,0,1.39,2c.19-.2-1.66-3.42-2.56-4.45s-.83-1-.39-1c.65,0,2.52,1.76,3.63,3.42.48.72,1.34,1.93,1.88,2.66l1,1.33-.64-.1c-.36-.06-1.26-.15-2-.22-2.73-.24-2.91-.36-4.54-2.86a29.88,29.88,0,0,0-3.15-3.94c-1.66-1.66-1.8-2-.6-1.35ZM27.51,63a47.7,47.7,0,0,1,4.34,2.26l2.48,1.48L33,66.91a48.11,48.11,0,0,1-5.08,0l-3.72-.17-2.3-1.12C20.6,65,19,64.3,18.3,64.08c-1.37-.44-1.28-.57.59-.79,1-.11,1.59,0,3.93.83,1.52.53,3.26,1.21,3.88,1.52a3.74,3.74,0,0,0,1.21.47c.26-.26-2.2-1.46-4.52-2.21l-2.67-.85,1.28-.4a7,7,0,0,1,5.51.36Zm-10.2,1.22c.61.21,2.14.89,3.41,1.51L23,66.86l-2.21,0a21.82,21.82,0,0,0-2.9.19,5.54,5.54,0,0,1-2.42-.36,14,14,0,0,0-2.78-.57A9,9,0,0,1,11.11,66c-.55-.15-.54-.18.5-.8l1.07-.64,3,.82a19.6,19.6,0,0,0,3.08.71c.06-.06,0-.17-.22-.23a33.36,33.36,0,0,0-4.15-1.16l-1-.18.7-.31a4.36,4.36,0,0,1,3.29.06Zm39.55,2.59a29.81,29.81,0,0,0,1.77,2.51c.58.66.62.77.26.77-.75,0-1.1-.4-3.25-3.7a17.52,17.52,0,0,0-1.33-1.83L53.82,64l1,.53a6,6,0,0,1,2.07,2.27Zm3.24,1.71c2.36,2,2.82,2.64,1.76,2.43-1.68-.34-1.78-.44-4.58-4.19l-.84-1.12.77.54c.43.3,1.72,1.35,2.89,2.34ZM14.67,67c.64.09,1.05.24.94.35-.28.27-3.09.32-5.18.09l-1.74-.2.76-.59.76-.6,1.66.4c.93.22,2.17.47,2.8.55Zm7.22,1.18a38,38,0,0,0-5.51,3.65c-.86.88-2.21,1.59-2.6,1.37s0-.47,1.32-1.41c2.25-1.62,4.59-3.57,4.46-3.71s-4.41,3-6.24,4.67c-.51.45-.86.49-1.92.18a3,3,0,0,0-1.39,0,4.9,4.9,0,0,1-1.68,0c-.57-.09-.92-.18-.78-.2a7.68,7.68,0,0,0,1.53-1.13c3.24-2.77,3.4-2.84,7.34-3.39,2-.27,4.27-.52,5.11-.54l1.51,0-1.15.58ZM30,67.71c.68.08,1.22.22,1.22.32,0,.34-4.94,4.16-7.1,5.5a11.91,11.91,0,0,0-2.05,1.4,19.84,19.84,0,0,0,4.37-2.35,33.21,33.21,0,0,0,3.4-2.88c2-1.9,2-1.91,3.22-1.91h1.23L32.5,69.15c-1,.76-2.49,2-3.31,2.74A17.15,17.15,0,0,1,24,75.29a4.4,4.4,0,0,1-3.77-.3A29.45,29.45,0,0,0,17,73.92c-1.5-.38-1.77-.52-1.41-.77l2.62-1.86a42.6,42.6,0,0,1,4.39-2.71,6.35,6.35,0,0,1,4.09-1c1.15,0,2.64.06,3.31.14Zm-19.76.55c.12.11-.07.26-.45.35a21.8,21.8,0,0,0-2.61,1.16l-1.95,1L6,70c.43-.44.84-.73.94-.67a1.21,1.21,0,0,0,.71-.11C8.2,69,8.19,69,7.53,69l-.7,0,.69-.56a1.66,1.66,0,0,1,1.62-.43,3.25,3.25,0,0,1,1.14.32ZM43,68.16l1,.13-1.13.6a35.64,35.64,0,0,0-7.6,5.59c-1.79,1.61-3.54,3.15-3.91,3.43-1.18.92-3.39.63-6.76-.89l-1.57-.7,1.68-.74A24.44,24.44,0,0,0,30,71.83c5.07-4.22,4.55-4,8.6-3.88,1.87,0,3.84.14,4.39.21Zm6.42,1.3c.05.06-.29.37-.77.69a31.64,31.64,0,0,0-3,2.62,59.25,59.25,0,0,1-4.59,3.86l-2.43,1.81-1.44-.24A27.3,27.3,0,0,0,34,78H32.3L34,76.33a51.53,51.53,0,0,1,8.11-6.25L45,68.32l2.2.51a19.52,19.52,0,0,1,2.29.63Zm34.12.11a13.12,13.12,0,0,0,1.29,2.27C86.06,73.43,87,75.41,87,76.27a9.29,9.29,0,0,1-1,3.42c-.48.53-2.45-2.31-3.11-4.47-.17-.58-.32-1.12-.32-1.19A35,35,0,0,1,85,77.62c.4.66.64.92.56.59a8.57,8.57,0,0,0-1.3-2.53,16.09,16.09,0,0,1-1.14-2.08,4.93,4.93,0,0,1-.54-3.43,6.89,6.89,0,0,1,.3-1.92,4.87,4.87,0,0,1,.72,1.32ZM9.92,69.7c-.05,0-.5.41-1,.86s-.78.64-.62.42c.5-.66-.05-.48-1.2.39-.6.46-1,.95-1,1.11.07.32,0,.32-1.65.07-1.39-.21-1.34-.34.31-.92.64-.22,1.38-.5,1.63-.62C8,70.28,10.61,69.3,9.92,69.7Zm42.77.41a14.47,14.47,0,0,0,2.55.34l2.06.16-3.12,3.17c-3.84,3.91-4.73,4.53-6.74,4.75-3.63.38-4.65.4-6.1.14l-1.52-.28,1.66-1.17A36,36,0,0,0,45.24,74c1.15-1.15,2.72-2.6,3.48-3.21,1.33-1.06,1.44-1.1,2.44-1a9.44,9.44,0,0,1,1.53.33Zm9.47,1.69,1.16.31-.7.42c-.38.23-1.51.94-2.52,1.59-1.5,1-4.73,2.35-4.94,2.13,0,0,.78-.89,1.79-1.93A19.17,19.17,0,0,0,59,71.91c.15-.29-.8.55-2.09,1.85a15.74,15.74,0,0,0-2.23,2.51c.33.34-2.34,1.7-3.33,1.7-.23,0,1.06-1.45,3.18-3.56l3.57-3.56,1.43.32c.79.18,2,.46,2.59.63ZM105.34,71a.84.84,0,0,1-.34.47,8.18,8.18,0,0,0-1,1.36c-.77,1.21-3.7,3.74-4.33,3.74a15.18,15.18,0,0,0-2.38.68A32,32,0,0,1,90,79.13c-1.38.19-2.19.39-2.09.54s3.66,0,4.52-.28A16.29,16.29,0,0,1,94,78.93a24,24,0,0,0,3.18-1.16A14.8,14.8,0,0,1,99.32,77a23.42,23.42,0,0,1-4.48,2.67c-2.31.92-5.92,1.4-7.47,1l-.48-.12.57-2.28c.65-2.56.42-2.37,4.1-3.23C100,73,102.5,72.31,104.08,71.37c1-.6,1.26-.67,1.26-.36Zm-97.47.33a1.63,1.63,0,0,1-.41.4c-.37.3-.38.29-.09-.07s.5-.53.5-.33Zm115.84,3.44a12.68,12.68,0,0,1,.13,4.8l-.29,1.28-.43-1.39c-.65-2.09-.77-3.57-.34-4.39a3.08,3.08,0,0,0,.37-1c0-.56.4-.07.56.71ZM125,75c.82,1.44.84,1.61.35,3.09-.55,1.64-.69,1.61-.61-.14a8.93,8.93,0,0,0-.29-2.82c-.55-1.85-.46-1.87.55-.13Zm-2.21,5.12c.62,2.31.46,3.48-.87,6.26-.31.63-.86,1.79-1.2,2.54l-.64,1.38-.28-1.15c-.15-.62-.57-2-.94-3.12a10.8,10.8,0,0,1-.67-4.24V79.56l1-.9a8.25,8.25,0,0,1,1.15-.91A11.08,11.08,0,0,1,120.5,80a6.91,6.91,0,0,0,.28,2.63c.16.2.22.39.15.47s0,.33.13.55.23.19.12-.74c-.08-.64-.22-2.13-.31-3.35-.16-2.14-.15-2.2.42-2.7l.58-.5.27,1.2c.14.66.43,1.82.64,2.57Zm4.4-1.39.65,1.27-.53.77c-.29.41-1,1.24-1.47,1.81a23.14,23.14,0,0,0-2.12,2.65c-.69,1-.19.86.73-.29.5-.61,1-1.15,1-1.22s.68-.83,1.32-1.69c1.11-1.5,1.44-1.69,1.44-.83s-1.09,2.24-3.75,4.89c-1.5,1.49-2.79,2.71-2.85,2.71a13.36,13.36,0,0,1,.93-2.14,30,30,0,0,0,1.48-3.63c.56-1.88,2.16-5.77,2.33-5.66a7.73,7.73,0,0,1,.79,1.36Zm-9.72,2.44a19.66,19.66,0,0,0,1.16,6.24c1,2.91,1.09,3.73.68,4.52a38.49,38.49,0,0,0-2.3,5.91c-.69,2.43-1.25,3.74-1.52,3.57a1,1,0,0,1-.2-.7c0-.32-.43-2.31-1-4.45a22.19,22.19,0,0,1-1-7c0-3.52,0-3.6,2.16-6a10.39,10.39,0,0,0,1.42-2,6,6,0,0,1,.59-1,3.25,3.25,0,0,1-.05.92Zm11.27,4,.07,1.54-2.3,2.46a50.61,50.61,0,0,1-4.38,4.12,27.05,27.05,0,0,0-2.44,2.1c-.33.41-.32.41.34,0a40.65,40.65,0,0,0,8.44-7.77l.47-.58-.13,2.54c-.2,3.88-.23,3.94-2.58,5.71a34.79,34.79,0,0,1-4.72,3.19A28.54,28.54,0,0,0,119,100c-1.31.78-2.31,1.27-2.25,1.1s.51-1.59,1.33-4.24a37.72,37.72,0,0,1,1.57-3.89,9.08,9.08,0,0,1,3-4A43.41,43.41,0,0,0,128,83.33c.35-.53.37-.53.53-.09a11,11,0,0,1,.23,2Zm-15.5,9.62c.25,1,.75,2.92,1.13,4.4a30.41,30.41,0,0,1,.68,3.13,3.77,3.77,0,0,1-.81,1.5l-1.66,2.18-.86,1.15-.28-1.49c-.15-.81-.39-2.44-.54-3.58-.27-2-.38-2.69-1-5.62-.62-3.23-.38-.58.5,5.38.19,1.3.5,3.13.82,4.91a1.76,1.76,0,0,1-.4,1.52c-1,1.4-1.17,1.28-1.6-1-.78-4.14-1.27-10.5-.94-12.39.44-2.6.53-2.89,1.05-3.41a22.55,22.55,0,0,0,2.57-3.38l.45-.77.2,2.86a33.18,33.18,0,0,0,.64,4.58Zm-5.47-.73a31.36,31.36,0,0,0-.14,3.65,49.42,49.42,0,0,0,1.06,10.34,11.25,11.25,0,0,1,.36,1.74,8.62,8.62,0,0,1-1.81,2.2l-1.8,1.79-.78-2.6c-.92-3.06-1.17-5.66-.66-6.9l.33-.81.18,1c.67,4.13,1.52,7.21,1.52,5.56a46.55,46.55,0,0,0-1.41-6.71,4.06,4.06,0,0,1,.14-1.63,14.14,14.14,0,0,0,.33-2.27,9,9,0,0,1,.92-3.38,17,17,0,0,1,.32,3.76,39.11,39.11,0,0,0,.87,8.27c.26.8.16-1.35-.23-5.49s-.47-7.17-.19-7.7a3.82,3.82,0,0,1,1-1.28s0,.19,0,.43Zm20,2c-.11.64-.26,1.37-.33,1.64-.21.89-4.57,3.44-10.39,6.1-1.45.66-1.24.82.35.27a34.73,34.73,0,0,0,9.21-5.11c.31-.27.58-.45.62-.41a7.48,7.48,0,0,1-.22,1.52,3.85,3.85,0,0,1-1.19,2.37c-1.54,1.59-5.78,4-9.15,5.25-1.65.61-5.66,1.89-5.71,1.83s.73-1,1.68-2.24,2.14-2.82,2.66-3.6c1-1.54,1.55-1.92,6.35-4.7,1.79-1,3.92-2.38,4.74-3s1.52-1.11,1.55-1.1a8.14,8.14,0,0,1-.17,1.18ZM69.16,97.67a3.77,3.77,0,0,0,1.15.21A10.58,10.58,0,0,1,74,99.69a23.05,23.05,0,0,1,1.61,1.78c.63.78,1.57,1.85,2.11,2.43a5.82,5.82,0,0,1,1.14,1.6c.15.53.12.55-.67.42s-1.31-.61-3.07-2.36a25.13,25.13,0,0,0-5.71-4.49c-1.15-.65-.86-.07.33.66a9.74,9.74,0,0,1,1.21.82c.15.13.51.41.8.61a32.92,32.92,0,0,1,4.34,4.07c-.33.33-2.47-.84-3.72-2A52.38,52.38,0,0,0,66,98.33l-1.26-.8.66-.15a10,10,0,0,1,3.75.29Zm-7.94,0a15.6,15.6,0,0,1,3.13.62,29.71,29.71,0,0,1,6.29,4.54l1.06,1-2.62-.06-2.61,0L63.16,102c-3.92-2-5.83-2.84-6.92-3-.69-.13-.66-.09.27.29,1.37.55,4.6,2.17,7.27,3.63L65.85,104l-1.2.08c-1.12.07-1.53-.09-5.9-2.23s-7.18-3.3-8.11-3.3c-.59,0-.51-.43.11-.57a39.09,39.09,0,0,1,10.47-.31Zm-9.5,1.81A63.5,63.5,0,0,1,58,102.27c4.1,2.06,4.15,2.09,3.13,2.13-2,.06-2.66-.08-5.31-1.19a21.73,21.73,0,0,0-8.11-1.94l-2.21-.13,3,.54a22.27,22.27,0,0,1,6.57,1.81l2.43,1-1.19.4a32.36,32.36,0,0,0-3.3,1.46,7,7,0,0,1-2.35.92,46.07,46.07,0,0,0-4.83-1.35,20.62,20.62,0,0,0-6.23-.77l-1.64.11.41-.7c.7-1.2,4.22-3.37,7-4.31,1.46-.5,1.82-.63,3-1.13.87-.36,1.08-.33,3.35.41Zm74.19,6.08c-.93,3-2.48,5-4.3,5.72a38.28,38.28,0,0,1-7.61,1.54c-1.21.12-1.69.23-1.39.34a2.11,2.11,0,0,0,.93.07c.25-.06,1.27-.16,2.24-.22a23.67,23.67,0,0,0,3.47-.56,10,10,0,0,1,1.77-.35c.08.08-.6.56-2.85,2a6.77,6.77,0,0,1-2.09.85c-2,.37-9.74-.37-9.55-.92a16.87,16.87,0,0,1,1.52-1.69c1.6-1.65,2-1.83,6.88-3.38a44.31,44.31,0,0,0,10.21-4.85c1.39-1.09,1.5-.9.77,1.41Zm-54.79-.77a5.33,5.33,0,0,1,1.22.29c.06.06-.28.51-.77,1a59,59,0,0,0-5.67,7.83l-2.17,3.8a17.31,17.31,0,0,1-2.24,3.34,21.12,21.12,0,0,1-6.31.38l-2.58-.33a5.39,5.39,0,0,1-1.21-.24c0-.09,2.9-4.37,5.47-8.07a32.89,32.89,0,0,1,5.29-6.45l1.41-1.2,2.54-.3c1.38-.16,2.69-.33,2.88-.38a1.51,1.51,0,0,1,.7,0c.19.06.83.18,1.44.28Zm-9.39.43c.17.11-.4.87-1.62,2.15a74.82,74.82,0,0,0-8.46,12.08l-.77,1.35-1.42-.14c-.77-.08-1.84-.24-2.35-.35a16.27,16.27,0,0,0-2.37-.21H43.3l.75-1c.83-1.1,2.1-3.13,4-6.41a25,25,0,0,1,2-3.06,8.79,8.79,0,0,0,1-1.31c.43-.79,4.12-2.59,6.39-3.11a16.76,16.76,0,0,1,4.21,0Zm13.85.76c.25.11,1.08.37,1.85.59a7.56,7.56,0,0,1,1.59.57c.36.34-1.09,2.58-2.28,3.51-2.35,1.84-3.22,2.47-3.3,2.39a44.17,44.17,0,0,1,2.64-5.38c.93-1.6.24-1-.91.81A16.42,16.42,0,0,0,73,112.92a.91.91,0,0,1-.66.79,6.18,6.18,0,0,0-1.58.93c-.57.43-1.12.72-1.21.64s-.1,0,0,.12-.21.54-.72.92-1.18.94-1.57,1.29a3.1,3.1,0,0,1-.85.64c-.33,0,1.78-3.79,3.75-6.72,1.56-2.34,1.93-3,1.63-3-.59,0-5.79,8.82-5.79,9.83a9.26,9.26,0,0,1-2.85,2.28c-.56.2-.51,0,.35-1.2.41-.59,1.43-2.22,2.24-3.61a49.74,49.74,0,0,1,6.45-9.07c1.59-1.54,1.63-1.55,3.4-.77Zm-29.52.7c1.21.28,2.67.64,3.25.78l1,.27-1.12.44a2.59,2.59,0,0,1-2.2.13,20.94,20.94,0,0,0-5.82-.89c-1,0-1.32.07-.82.11,1.18.1,4.5.68,6.11,1.06l1.25.29-1.84.77a24.19,24.19,0,0,0-3.32,1.77c-1.19.8-1.58,1-2,.79a12.14,12.14,0,0,0-4.92-.22,5.62,5.62,0,0,1-1.57.15,4.19,4.19,0,0,1,.89-1.36c1-1.2,1.08-1.27,2.38-1.42a33.19,33.19,0,0,1,4.28,0c2.53.11,2.76.09,1.75-.14a25.42,25.42,0,0,0-4-.28,13.22,13.22,0,0,1-2.83-.16,9.53,9.53,0,0,1,1-2.47c.41-.5,5.62-.24,8.49.43Zm57.66,4.21c.25,1,.6,2.23.78,2.75.3.86.29,1,0,1.5-.21.29-.46.54-.53.54a4.06,4.06,0,0,1-.7-1.21,6.61,6.61,0,0,1-.55-3.29,11.13,11.13,0,0,1,.21-2.55l.21-.46.09.46c0,.25.29,1.27.54,2.26Zm-54.48-1.37a34.19,34.19,0,0,0-2.31,3.65c-.82,1.46-1.72,3-2,3.53s-.91,1.42-1.41,2.08c-.9,1.2-.9,1.2-2.71,1.49-2,.32-3.31.37-3.31.13a5.65,5.65,0,0,1,.77-1.1c.78-1,3.88-5.52,4.19-6.15.45-.92-1.9,2-3.6,4.41-2,2.89-2.25,3.07-3.54,2.55-.41-.16-.39-.22.25-.73a19.23,19.23,0,0,0,2.14-2.48,13.38,13.38,0,0,1,2.41-2.54,15.41,15.41,0,0,0,1.47-1.05,2.2,2.2,0,0,1,.81-.47,6.17,6.17,0,0,0,1.35-.76c.57-.39,1.31-.86,1.62-1l.58-.3-.61.79a25.23,25.23,0,0,0-1.59,2.65c-.54,1-1.49,2.6-2.1,3.52s-1,1.68-.93,1.68c.43,0,1.8-1.88,2.9-4,2.23-4.26,2.76-4.94,4.6-5.94.92-.51,1.71-.93,1.76-.94a5.71,5.71,0,0,1-.74,1Zm-8.72,3.11A5.84,5.84,0,0,1,39.2,114l-1.32,1.12-2.79.14c-1.55.08-2.83.12-2.87.09a12.83,12.83,0,0,1,1.23-2.3c.26-.43.57-.47,3.68-.55,2.11-.06,3.39,0,3.39.14Zm62.65,2.57c.21.46.41.9.45,1s-.21.43-.56.8l-.63.68-.13-2c-.14-2,0-2.73.29-1.85.11.29.36.91.58,1.37Zm5.28.15a29,29,0,0,0,4.16.35h2.32l-.82.43a13.09,13.09,0,0,1-5,1.18,6.26,6.26,0,0,1-2.51-.58c-1.9-.84-2.15-.69-.38.22l1.5.77-2,.17a8.82,8.82,0,0,1-2.17,0,4.69,4.69,0,0,1,1-1.52c1.23-1.55,1.19-1.55,3.93-1.06Zm-71.63.71a58.69,58.69,0,0,1-5.21,3c-1.94,1-2,1.06-1.53.44a7.24,7.24,0,0,0,.83-1.41c.29-.72.36-.75,1.6-.75.7,0,1.29-.11,1.29-.24s-.53-.23-1.17-.23c-1.15,0-1.3-.1-1-.61s5.16-.55,5.16-.18Zm0,.92a13.33,13.33,0,0,1-1.44,1.63L34,120.1h-3l2.31-1.2c1.28-.66,2.58-1.38,2.89-1.61.64-.45.71-.47.71-.28Zm100.07,9.42a14.35,14.35,0,0,0-2.31,3.42l-.94,1.74c-.14.25-.48,1-.75,1.54a5.24,5.24,0,0,1-2.22,2.27c-1.5,1-1.72,1.13-1.72.71a23.52,23.52,0,0,1,2.12-6.79,4.89,4.89,0,0,0,.54-1.33,6.44,6.44,0,0,0-.93,1.22,16.73,16.73,0,0,0-2.1,6.15,6,6,0,0,1-.29,1.56,10.48,10.48,0,0,1-2.47,2.14,10.6,10.6,0,0,1,.36-2.42c1.36-6.26,2-8.12,3.28-8.88a32.56,32.56,0,0,1,5.73-1.92c.32,0,1-.11,1.49-.13l.91,0-.7.75Zm4.12-.23,1.35.27L141,127.7a6.12,6.12,0,0,0-1.38,1.53,11.93,11.93,0,0,1-3.44,2.09c-.19-.17,2.25-3,3.17-3.76,1.16-.88.93-1-.3-.16a8.61,8.61,0,0,0-2.73,3.15c-.69,1.17-2.36,2.72-2.63,2.45s2.83-5.42,3.9-6.59c.54-.59,1.41-.65,3.44-.23ZM54.63,128c.78,1.12,1.88,3.25,1.59,3.08a45.06,45.06,0,0,1-4.82-4c-.35-.67,2.74.24,3.23,1Zm90.53-1.19a5.2,5.2,0,0,1-1.46.81l-2.43,1.07a6.58,6.58,0,0,1-1.11.43,7.83,7.83,0,0,1,1.32-1.23c1.33-1.12,1.58-1.24,2.57-1.25.62,0,1.11.07,1.11.17Zm-85.77.88c1.94.46,2.55,1,3.88,3.64a30.08,30.08,0,0,1,2.16,4.91,4.72,4.72,0,0,1-1.1-.59c-1.22-.78-3.79-2.22-5.51-3.08-1.09-.55-1.34-.83-2.15-2.32a16,16,0,0,0-1.27-2.09c-.2-.22-.29-.49-.2-.63.22-.37,2.32-.29,4.19.16Zm86.1.24a12.2,12.2,0,0,1-4.55,1.88,31.73,31.73,0,0,1,5-2.52c.12,0-.09.28-.46.64Zm-78.21.18c.86.14,1,.26,1.43,1.23a37.22,37.22,0,0,1,1.77,8,22.49,22.49,0,0,0,.7,3.53c.19.46.22.77.09.77a19.54,19.54,0,0,1-2.51-2.32A12.75,12.75,0,0,1,65.15,134a45.1,45.1,0,0,0-2.23-4.39c-.48-.75-.88-1.41-.88-1.45a18.69,18.69,0,0,1,3.81-.22c.26,0,.9.13,1.43.22Zm-13.61,1.67c.73.63,1.57,1.3,1.89,1.51l.57.39h-.85a11.89,11.89,0,0,1-2-.26l-1.16-.25v-1.26a3.2,3.2,0,0,1,.13-1.25,11.39,11.39,0,0,1,1.44,1.12Zm16.79-.61c1.15.56,1.26.74,2,3.43.26,1,.58,2.06.69,2.44s.38,1.63.59,2.78.44,2.33.5,2.63.19.47.29.36c.45-.5-.5-5.52-1.63-8.65-.81-2.2-.81-2.12,0-1.84a5.39,5.39,0,0,1,.73.29s.15,1,.32,2.12.51,3,.75,4.15c.64,3.09.64,1.32,0-2.53a15,15,0,0,1-.36-3.32,1.8,1.8,0,0,1,.87.28c1,.53,1.37,2.33,1.51,7.42a25.09,25.09,0,0,0,.48,5.28c.34,1.11.34,1.11-.17,1a19.91,19.91,0,0,1-2.63-1.45l-2.12-1.3-.46-1.51a27.85,27.85,0,0,1-.74-3.26,51.91,51.91,0,0,0-1.64-7.69c-.24-.62-.33-1.1-.21-1.1a5.87,5.87,0,0,1,1.24.51Zm57.16,0c-.68.89-1.92,5.8-2.28,9.08a3.17,3.17,0,0,1-1.12,2.4,35,35,0,0,1-5.15,4.14,80.07,80.07,0,0,1,1.23-9.3,15.88,15.88,0,0,1,1.69-4.43,2.08,2.08,0,0,1,1.2-.61,16.56,16.56,0,0,0,2.65-.93c1.83-.81,2.19-.88,1.78-.35Zm16.34,1.1c-1,1.67-1.49,1.86-6.21,2.53-2.85.4-2.86.4-2.32,0a29.14,29.14,0,0,1,2.53-1.61c1.69-1,2.13-1.15,3.13-1.14a6.21,6.21,0,0,0,2.19-.4c1.48-.61,1.48-.61.68.67Zm-22.42.35a2.49,2.49,0,0,1-.35.66,23.73,23.73,0,0,0-1.74,5,63.92,63.92,0,0,0-.72,7.32,3.55,3.55,0,0,1-.3,1.66c-.26.21-1.58.93-5,2.75l-1.74.92,0-1.52c.13-6.17.92-10.43,2.52-13.58a2.93,2.93,0,0,1,2.1-1.94c2.51-1,5.22-1.67,5.22-1.3Zm-66.09,1.64c2,.16,1.56,0,7.23,3.27L65,136.93l-4.69.13c-2.58.07-5,.08-5.31,0a1.88,1.88,0,0,1-1.1-.87c-.59-.95-.58-1.08.05-.82a27.2,27.2,0,0,0,6,.69c2.53,0,1.37-.37-1.8-.56s-3.55-.24-4.11-.44l-.73-.25c-.18-.06-.44-.55-.58-1.12s-.32-1.21-.41-1.45,0-.39.52-.26a24.84,24.84,0,0,0,2.53.29ZM81,134.85c3.28,2.57,3.61,3.27,3.25,6.7-.13,1.26-.3,3.51-.38,5l-.14,2.76-1-.82a19.74,19.74,0,0,0-2-1.44l-1-.63.08-2.69a35.18,35.18,0,0,0-.65-7.8c-.11-.38-.26-1-.34-1.35s-.19-.62-.26-.56a13.58,13.58,0,0,0,.25,2.5,89.55,89.55,0,0,1,.69,9.68c0,.05-.38-.09-.78-.33-1.06-.62-1.45-2.6-1.65-8.31a50.29,50.29,0,0,0-.34-5.17c-.17-.53-.14-.52,1.05.18.67.4,2.11,1.42,3.17,2.25Zm61.61-2.18c-.79,1.51-1.12,1.75-3.28,2.45-1.18.37-3.59.95-5.38,1.29s-3.52.66-3.87.74-.63.08-.63,0a38.26,38.26,0,0,1,5-3.2,33.85,33.85,0,0,1,3.71-.7,26.65,26.65,0,0,0,3.83-.79l.81-.33s-.06.23-.2.52Zm-29,1.35c-1.2,2.17-2.21,7.34-2.21,11.28a16.62,16.62,0,0,1-.28,2.81c-.26,1.25-.34,1.36-1.68,2.21a25.24,25.24,0,0,0-3.18,2.59l-1.76,1.7.09-1.7c.25-4.41.6-8.47.8-9.3.13-.52.66-2,1.18-3.29a10.54,10.54,0,0,1,4-5.37,20.47,20.47,0,0,1,3.57-2,4.24,4.24,0,0,1-.5,1.07Zm27.59,1.25c-.67,1.48-4.47,2.85-10.51,3.8-1.54.24-3.21.5-3.71.59l-.9.15,1-.93a5.11,5.11,0,0,1,1.51-1c.25-.05,2.32-.43,4.59-.83a35.32,35.32,0,0,0,6.13-1.5c1.11-.42,2-.78,2.05-.8a2,2,0,0,1-.21.56ZM139,138.56a19.39,19.39,0,0,0-.79,1.82c-.21.59-.47.78-1.58,1.13-.72.23-1.69.5-2.14.59-2.22.48-3.43.71-4.16.82-2.18.31-2.54.39-2.69.62s.11.19.64.09,1.52-.26,2.4-.39a36.74,36.74,0,0,0,6.33-1.51c1-.42,1-.42.68.31-.45,1-.59,1.12-4.23,2.11a34,34,0,0,1-4,.49l-5.56.46c-1.35.13-2.8.22-3.22.22h-.77l1.13-.83c.62-.46,1.4-1.09,1.72-1.38s1-.59,2.77-.78a60.87,60.87,0,0,0,7.65-1.3c.68-.2,1.61-.45,2-.56a2.69,2.69,0,0,0,1-.43c.14-.12-.26-.07-.9.12a37.15,37.15,0,0,1-5.29,1.13l-3.35.57a15.39,15.39,0,0,1-2.08.22h-.81l.93-.93.94-.94,3.37-.43a49.46,49.46,0,0,0,9-1.87,14.31,14.31,0,0,1,1.42-.44c.08,0-.09.47-.4,1.09Zm-72.21-.47a12.77,12.77,0,0,1,1.74,1.76,16.33,16.33,0,0,0,1.92,1.93l.64.44-2.61.27c-1.45.15-4.17.34-6.09.42-3.09.13-3.56.1-4.27-.28-1-.52-1.27-1.15-.44-.92,1.88.53,8.44.34,9-.27.17-.16-.09-.16-.77,0a35.73,35.73,0,0,1-5,.16l-4-.08-.9-1.62a12.27,12.27,0,0,1-.91-1.84c0-.34,11.09-.31,11.69,0Zm18.61,2.85c.43,0,.73,1.36.52,2.33-.4,1.86-.42,7,0,6.8a4.18,4.18,0,0,0,.19-1.81c0-2.45.29-5.74.56-5.64s1.33,2,1.69,3.37a9.12,9.12,0,0,1,0,4.89l-.38,1.61-1.48-1.14c-.81-.62-1.65-1.22-1.86-1.34s-.37-.52-.24-2.83c.15-2.87.69-7.26.81-6.64,0,.22.15.4.24.4Zm19.9.42a23.63,23.63,0,0,0-1.12,6.57c-.15,1.85-.24,3.51-.22,3.69s0,1.06,0,2l0,1.64-1.29,1.34c-.7.73-1.36,1.26-1.44,1.18-.43-.43-.69-4-.49-6.82.3-4.27,1-6.18,3.58-9.14,1-1.2,1.34-1.33,1-.42Zm-32.36,2.17c.43.33,1.4,1,2.13,1.41l1.33.8-1.27.16a30,30,0,0,0-3.07.61c-4.7,1.2-5.35,1.32-7,1.2l-1.63-.11-1.1-1.28a14.75,14.75,0,0,0-2-1.94l-.9-.66h2.42a41.27,41.27,0,0,0,7.5-.81,7.3,7.3,0,0,1,1.51,0,3.18,3.18,0,0,1,2.08.66Zm64.11.3a2.84,2.84,0,0,1-1.32,1.53,21.17,21.17,0,0,1-5.27.92,25.37,25.37,0,0,0-3.13.32l-1.74.31,1.5,0a44.46,44.46,0,0,0,7.76-.68,2,2,0,0,1,.7-.18c.19.19-3.17,3.32-3.75,3.49a22,22,0,0,1-8.31,1.1A51.89,51.89,0,0,1,115,150c-2.45-.39-2.54-.54-.88-1.37,1.26-.63,1.51-.69,2.07-.45.75.31,11.75.34,13,0,.45-.11-1.93-.19-5.79-.19-3.62,0-6.77-.08-7-.18s-.23-.31,1.05-.95,1.85-.79,4.63-1c1.71-.14,3.91-.26,4.88-.26a31.91,31.91,0,0,0,8.27-1.25c1.78-.63,1.89-.66,1.89-.49ZM79.28,147.2A26.18,26.18,0,0,1,81.9,149l1,.83-.66.28a10.35,10.35,0,0,1-1.43.43,14.4,14.4,0,0,0-2.3.86,17,17,0,0,1-4.72,1.71c-.93.14-1.25.06-2.71-.7-.9-.47-1.65-.88-1.65-.9a9.67,9.67,0,0,1,1.41.06,12.66,12.66,0,0,0,5.18-.88c.5-.22,1.64-.69,2.5-1A6,6,0,0,0,80,148.9a27.31,27.31,0,0,0-3.27.94,13.55,13.55,0,0,1-6,1c-3.15,0-4.1-.3-5.82-1.86l-1-.9,1.13.15a17.82,17.82,0,0,0,5.71-.8A46.05,46.05,0,0,1,77,146.28a5.5,5.5,0,0,1,2.32.92Zm36.16,3.5c1.92.41,3,.49,7.25.49s5.22-.07,6.71-.47a12.83,12.83,0,0,1,1.8-.42c.2.19-3.59,3.22-4.81,3.83a18.49,18.49,0,0,0-3.5,2.22c-1.7,1.33-6.77,1.24-13.52-.24a16.74,16.74,0,0,0-3.05-.36c-.79,0-1.44-.1-1.44-.22a34.85,34.85,0,0,1,4.67-4.41,2.25,2.25,0,0,0,.82-.47c.77-.6,2.13-.59,5.07,0Zm-29.5,1.4a5.43,5.43,0,0,1,1.1,1.08,4.23,4.23,0,0,1-1.32.79,10.25,10.25,0,0,1-4.5.92l-2.71-.41c-2.16-.32-3-.58-1.81-.58a32.75,32.75,0,0,0,5.93-1.84c.77-.51-.73-.22-3.57.68-3.07,1-4.53,1.23-3.29.58a2.87,2.87,0,0,1,1-.34,9.68,9.68,0,0,0,1.9-.8A21.11,21.11,0,0,1,82,150.93c1.94-.51,1.94-.51,4,1.17ZM110.87,157a36.18,36.18,0,0,0,8.4.77,9.28,9.28,0,0,1,1.81,0,15.72,15.72,0,0,1-1.52,1.27c-1.63,1.28-3.62,2.32-4.43,2.32a3.61,3.61,0,0,0-1.1.23c-.63.23-4.92,0-7.41-.49-1.3-.23-4.52-1.73-4.52-2.1,0-.14.29-.53,1.61-2.09.31-.37.67-.41,3-.32a26.48,26.48,0,0,1,4.15.45Z" fill="#221244"/><path d="M46.29,6.78A7.59,7.59,0,0,0,47,10.51c.67,1.76,1.11,2.57,1.11,2.05a22.74,22.74,0,0,0-.71-2.31c-.39-1.15-.79-2.49-.9-3s-.22-.72-.25-.47Z" fill="#221244"/><path d="M44.58,15.43a8.92,8.92,0,0,0,.79,1.15c.2.21.67.81,1,1.32,1.29,1.74,4.3,4.68,4.3,4.21a15.88,15.88,0,0,0-1.18-1.34c-.65-.69-2-2.17-2.93-3.32-2.27-2.69-2.55-3-2-2Z" fill="#221244"/><path d="M47.24,30c1.36,1.45,6.32,5.17,6.58,4.91a4.92,4.92,0,0,0-1.33-1.14c-.78-.57-2.33-1.79-3.44-2.71-2-1.7-2.82-2.16-1.81-1.06Z" fill="#221244"/><path d="M42.59,32.47c0,.34,1,1.63,2.77,3.44A30.82,30.82,0,0,0,54.23,42c1.83.74,3.4,1.14,2,.52a35.08,35.08,0,0,1-6.88-3.83A44.62,44.62,0,0,1,43,32.84c-.21-.31-.4-.48-.4-.37Z" fill="#221244"/><path d="M55.27,12.36a9.55,9.55,0,0,0-.19,2.39,36.68,36.68,0,0,1-.3,4.27c-.4,2.84-.07,2.73.41-.13.39-2.32.45-6.9.08-6.53Z" fill="#221244"/><path d="M59.19,17.21c-.42,6.06-.7,9.13-1,10.54A7.62,7.62,0,0,0,58,29.34c.19.18.62-1.3.81-2.76.29-2.25.72-9.71.64-10.89-.05-.63-.15,0-.26,1.52Z" fill="#221244"/><path d="M63.36,26.49a1.47,1.47,0,0,0-.15.73,46.87,46.87,0,0,1-1.15,5.38,24.73,24.73,0,0,0-.86,4.32c.15.15.23-.13,1.28-4.32.82-3.28,1.36-6.26,1.12-6.26a.47.47,0,0,0-.24.15Z" fill="#221244"/><path d="M65.42,28.63a14.34,14.34,0,0,0-.49,2.15c-.2,1.06-.46,2.38-.58,2.92-.59,2.56-.77,3.28-1.16,4.68a24.89,24.89,0,0,0-.56,2.55c-.09.76.09.38.69-1.38.45-1.35.9-2.84,1-3.36.28-1.29.87-4.36,1.18-6.1.25-1.39.21-2-.09-1.46Z" fill="#221244"/><path d="M101,25.07c-.16,1.14-.5,3.18-.76,4.5s-.5,3.1-.55,3.93,0,1.27,0,1c1.1-5.58,1.82-10.31,1.68-11,0-.25-.22.48-.39,1.62Z" fill="#221244"/><path d="M103,26.7c-.09.39-.22,1.27-.31,2A30.62,30.62,0,0,1,100.47,36a11.14,11.14,0,0,0-.84,2.34c.17.17,1.94-3.7,2.56-5.6a21.77,21.77,0,0,0,1-6.13c-.09-.56-.09-.56-.24.12Z" fill="#221244"/><path d="M97.42,27.27a68.9,68.9,0,0,0-.66,7.67c0,1.39.58,3.68.93,3.68.13,0,.14-.22,0-.53-.44-1.16-.51-2.93-.25-6.15s.25-5.41,0-4.67Z" fill="#221244"/><path d="M68.91,33a19.52,19.52,0,0,0-.15,2.48,35.17,35.17,0,0,1-.9,6.59c-.12.45-.5,1.74-.84,2.87a9.68,9.68,0,0,0-.51,2.16c.17.17,1.95-5.62,2.21-7.21a61,61,0,0,0,.42-7.76,2.38,2.38,0,0,0-.23.87Z" fill="#221244"/><path d="M70.09,40.74c-.18.67-.46,1.91-.61,2.73a25.45,25.45,0,0,1-1.94,5.8c-1.42,3.11-1.79,4-1.71,4.1a9.33,9.33,0,0,0,1.3-2.14s.27-.68.62-1.43a31.51,31.51,0,0,0,2.16-6.57c.13-.82.33-1.94.45-2.52.29-1.46.13-1.45-.27,0Z" fill="#221244"/><path d="M105,36.7a30.23,30.23,0,0,1-4.5,7.08c-1.79,2-1.92,2.61-.16.75a29.73,29.73,0,0,0,5.56-8.75c1.08-2.55.53-2-.9.92Z" fill="#221244"/><path d="M105.59,39.48a19.83,19.83,0,0,1-4.4,6.31c-2.71,2.28-2.93,2.63-.57.9a21.34,21.34,0,0,0,6.08-8.47c.8-2,.2-1.36-1.11,1.26Z" fill="#221244"/><path d="M107.61,39.83C106,43.08,103,46.51,98.09,51a14,14,0,0,0-2.25,2.3c0,.15.55-.26,1.21-.89s1.9-1.76,2.71-2.46c4.26-3.66,6.25-6.19,8.39-10.66.42-.87-.07-.35-.54.57Z" fill="#221244"/><path d="M91.21,40.32a79.61,79.61,0,0,0,2.84,8.36c.16.16.2.11.11-.13s-.5-1.64-1-3.23C91.72,40.25,91.64,40,91.43,40s-.22.13-.22.31Z" fill="#221244"/><path d="M89.92,42.25c.08.21.24.83.37,1.41s.76,2.39,1.41,4.06,1.39,3.7,1.64,4.5c.52,1.63.75,1.9.5.58C93.51,51,90.26,41.86,90,41.86c-.11,0-.13.17,0,.39Z" fill="#221244"/><path d="M94,49.4c0,.26.07.32.14.14a.51.51,0,0,0,0-.44c-.08-.08-.14.06-.12.3Z" fill="#221244"/><path d="M94.24,50.56c0,.26.06.32.13.14a.46.46,0,0,0,0-.45c-.07-.08-.13.06-.12.31Z" fill="#221244"/><path d="M72.47,43.84a16.53,16.53,0,0,1-.47,2.5c-.25,1-.5,2.15-.55,2.46a5.33,5.33,0,0,1-.22.93c-.07.19-.35,1.14-.63,2.08s-.69,2.31-.94,3c-.57,1.66-.57,2,0,.73a58.51,58.51,0,0,0,2.66-8.86c.64-3.07.68-3.44.35-3.44-.12,0-.22.26-.22.59Z" fill="#221244"/><path d="M50.78,48.06a22.47,22.47,0,0,0,5,2.72c1.89.79,6.23,2.07,6.41,1.88s-.7-.56-2.82-1.16a39.63,39.63,0,0,1-7.43-3c-.73-.41-1.25-.63-1.16-.48Z" fill="#221244"/><path d="M87.87,46.48a27.59,27.59,0,0,0,1,4.29,64.38,64.38,0,0,1,2,6.65c.26,1.41.53,1.24.31-.19a55.09,55.09,0,0,0-2.06-7.61c-.4-1.15-.86-2.62-1-3.25l-.31-1.16.1,1.27Z" fill="#221244"/><path d="M86.49,47.53a14.29,14.29,0,0,0,.34,1.62c.12.38.37,1.37.56,2.23s.67,2.45,1,3.55a48.5,48.5,0,0,1,1.84,6.9c0,.22.09.36.2.3.49-.31-.43-4.2-2.14-9.05-.58-1.65-1.06-3.15-1.07-3.35A10.53,10.53,0,0,0,86.81,48c-.37-1.15-.43-1.23-.32-.46Z" fill="#221244"/><path d="M85.54,51.41a50.82,50.82,0,0,0,2.57,9.17c.76,1.72.91,1.36.22-.53-.31-.86-.72-2.23-.92-3.09-1.16-4.94-2.59-9.2-1.87-5.55Z" fill="#221244"/><path d="M104.87,51.27A70.36,70.36,0,0,1,96,58.67c-1.23.82-2.25,1.53-2.25,1.58,0,.21,2.76-1.29,4.08-2.22,2.76-2,7.39-6.31,8.26-7.77.29-.5.06-.31-1.23,1Z" fill="#221244"/><path d="M106,53.32a32.59,32.59,0,0,1-5.82,4.59l-2.4,1.43c-.51.32-1.32.79-1.79,1-1.19.64-1.35,1-.17.46a76.69,76.69,0,0,0,7.16-4.4,23.31,23.31,0,0,0,4-3.87c.31-.53,0-.33-1,.75Z" fill="#221244"/><path d="M106.84,54.32a35.12,35.12,0,0,1-6,5.23c-.86.55-2.8,1.65-4.3,2.43a25.75,25.75,0,0,0-3.54,2.13c-.55.48-.62.6-.22.37s2-1.09,3.8-2a30.3,30.3,0,0,0,7.58-5c1.72-1.54,3.91-4,3.51-4a3.08,3.08,0,0,0-.88.87Z" fill="#221244"/><path d="M55.09,55.28c1.35,1.06,3.88,2.07,7.54,3,.89.23,2.06.57,2.61.76,1.05.38,1.36.08.33-.32-.36-.14-1.57-.49-2.72-.79a26,26,0,0,1-6.48-2.28c-1.67-.93-2.15-1.07-1.28-.38Z" fill="#221244"/><path d="M60.89,58.62a14.17,14.17,0,0,0,3.38,1c.06-.06-.38-.27-1-.46a6.25,6.25,0,0,0-2.38-.53Z" fill="#221244"/><path d="M104.74,61.57a57.68,57.68,0,0,1-8.51,5.75c-2.36,1.3-3.16,2.08-1,1A53.75,53.75,0,0,0,105.91,61a10.41,10.41,0,0,0,1.27-1.28c-.07,0-1.16.84-2.44,1.86Z" fill="#221244"/><path d="M106,63.46a48.57,48.57,0,0,1-10.38,6.07c-3.11,1.33-5.39,2.46-5.25,2.59a1.66,1.66,0,0,0,.89-.23c.43-.2,1.32-.58,2-.86s1.81-.76,2.49-1.07a8.67,8.67,0,0,1,1.4-.56c.25,0,5.16-2.93,6.88-4.1,1.43-1,3.34-2.58,3.09-2.6a6.16,6.16,0,0,0-1.15.76Z" fill="#221244"/><path d="M36.58,59.76c0,.13,3.92,2.72,6.37,4.21,1,.62,2,1.29,2.3,1.49.42.34.43.34.15,0-.58-.75-8.82-6.05-8.82-5.67Z" fill="#221244"/><path d="M40.83,60.8a70.58,70.58,0,0,0,5.82,4.43c.36,0-.59-.85-2.67-2.4-2.31-1.72-3.38-2.41-3.15-2Z" fill="#221244"/><path d="M32,60.84a.21.21,0,0,0,.23.22,22.8,22.8,0,0,1,2.72,1.69c4.17,2.81,5.87,3.71,2.69,1.42C34,61.56,32,60.36,32,60.84Z" fill="#221244"/><path d="M28.84,61.29a25.39,25.39,0,0,0,2.53,1.4,40.84,40.84,0,0,1,3.55,2,14.58,14.58,0,0,0,3.15,1.88c.14,0,0-.11-.22-.27s-1.3-.88-2.31-1.64c-2.16-1.6-7.81-4.49-6.7-3.42Z" fill="#221244"/><path d="M23.15,62.56c0,.35,6.64,3.53,6.88,3.29.09-.09-6.48-3.4-6.75-3.4a.12.12,0,0,0-.13.11Z" fill="#221244"/><path d="M13.4,70.4c-2.88,2.18-3.61,3.22-.83,1.2,2-1.47,3.06-2.38,2.91-2.53A8.09,8.09,0,0,0,13.4,70.4Z" fill="#221244"/><path d="M11.68,70.06c-1,.73-2.61,2.36-2.35,2.36a21.36,21.36,0,0,0,3.41-2.83c0-.28-.09-.24-1.06.47Z" fill="#221244"/><path d="M25.86,69.49A44.71,44.71,0,0,0,20,73.76a6.5,6.5,0,0,0,1.67-1l3.56-2.4,2.44-1.62c.33-.21.35-.28.09-.28a7.88,7.88,0,0,0-1.92,1Z" fill="#221244"/><path d="M39,70c-1.59,1.08-3.79,3.23-3.79,3.69,0,.09.44-.31,1-.86a25.8,25.8,0,0,1,2.76-2.31c1.55-1.13,2.28-1.79,2-1.79-.05,0-.93.58-1.94,1.27Z" fill="#221244"/><path d="M35.21,69.65A37.68,37.68,0,0,0,29,74.28,25.15,25.15,0,0,1,27,76c-.33.22-.62.5-.62.61s1.17-.44,2-1.2a59.93,59.93,0,0,1,7.21-5.48c.95-.54,1.53-1,1.29-1a6.19,6.19,0,0,0-1.71.71Z" fill="#221244"/><path d="M36.24,70.63c-1.76.93-5.75,4.34-5.44,4.65a7,7,0,0,0,1.75-1.42,20.23,20.23,0,0,1,3.64-2.68,9.18,9.18,0,0,0,2-1.32c0-.28.11-.32-2,.77Z" fill="#221244"/><path d="M45,70c-4.48,3.25-6.25,4.75-7.09,6-.38.56-.21.45.76-.46a47,47,0,0,1,5.4-4.3c1.24-.79,2.59-1.95,2.44-2.1A4.53,4.53,0,0,0,45,70Z" fill="#221244"/><path d="M42.12,70.63c-.71.43-1.73,1.07-2.3,1.43-1.24.79-5.22,4.7-5,4.92a7.24,7.24,0,0,0,1.94-1.64A33.87,33.87,0,0,1,41,71.9c2.71-1.83,3-2,2.65-2a7.58,7.58,0,0,0-1.49.77Z" fill="#221244"/><path d="M45.24,71.66a42,42,0,0,0-5.42,4.53c0,.39.44.1,2.2-1.37,1-.85,2.66-2.16,3.63-2.9a18.47,18.47,0,0,0,1.92-1.6c.32-.52-.35-.14-2.33,1.34Z" fill="#221244"/><path d="M83.12,71.91c.28.79,3,5.11,3,4.76a18.35,18.35,0,0,0-1.26-2.36A20,20,0,0,1,83.58,72a.92.92,0,0,0-.35-.49c-.31-.25-.33-.2-.11.42Z" fill="#221244"/><path d="M47.53,73.31a47.36,47.36,0,0,1-4,3.52c-1.41,1-1.79,1.63-.42.74a34.37,34.37,0,0,0,5.75-4.95c1.2-1.37,1.73-2.07,1.55-2s-1.34,1.24-2.89,2.73Z" fill="#221244"/><path d="M53.58,71.34c-.12.14-.53.64-.88,1.08s-1.65,1.83-2.87,3.06a9.55,9.55,0,0,0-1.94,2.25c.68,0,6.38-6.23,6-6.57,0,0-.18,0-.32.18Z" fill="#221244"/><path d="M48.3,74.54a28.59,28.59,0,0,0-2.69,3.08c0,.13.7-.5,1.54-1.38l2.8-3a5.42,5.42,0,0,0,1.15-1.46,25.46,25.46,0,0,0-2.8,2.72Z" fill="#221244"/><path d="M59,73.7c-1.41,1.43-1.39,1.76,0,.4.8-.76,1.51-1.68,1.3-1.68,0,0-.63.57-1.33,1.28Z" fill="#221244"/><path d="M101.77,73.7a47.41,47.41,0,0,1-8.36,3c-3.11.75-3.23.79-3,1s2.45-.27,4.65-.9c3.11-.89,9.4-3.73,8-3.63a8.69,8.69,0,0,0-1.3.57Z" fill="#221244"/><path d="M121.11,78.79a11.37,11.37,0,0,0,.7,3.7c.27.28.19-.55-.26-2.67-.34-1.54-.43-1.76-.44-1Z" fill="#221244"/><path d="M118.83,81a22.79,22.79,0,0,0,1.46,6l.35.59-.12-.69c-.07-.38-.28-1.43-.48-2.31s-.51-2.36-.69-3.23c-.45-2.1-.69-2.25-.52-.34Z" fill="#221244"/><path d="M116.46,85.62a16.16,16.16,0,0,0,1.41,5.27c.84,2,1.15,1.94.4-.09-.27-.75-.79-2.4-1.15-3.68-.49-1.74-.65-2.11-.66-1.5Z" fill="#221244"/><path d="M115.17,87c.19,1.61,1.55,6.94,1.77,6.94s.2-.15-.88-4.38c-.93-3.62-1.06-4-.89-2.56Z" fill="#221244"/><path d="M114.14,88.44c0,.22.37,2.2.82,4.4s.88,4.44,1,5a2.34,2.34,0,0,0,.36,1.13q.51.3-.88-6.35c-.73-3.5-1.24-5.2-1.25-4.17Z" fill="#221244"/><path d="M116.94,94.64c0,.31,0,.44.12.29a1,1,0,0,0,0-.58c-.07-.15-.12,0-.12.29Z" fill="#221244"/><path d="M124.66,89c-1.14,1.14-1.66,1.75-1.15,1.35A21.05,21.05,0,0,0,126.86,87a17.66,17.66,0,0,0-2.2,2Z" fill="#221244"/><path d="M125.67,93.12A42.1,42.1,0,0,1,121,97a17.12,17.12,0,0,0-2.38,1.77,13.26,13.26,0,0,0,2.27-1.13,18.34,18.34,0,0,0,4.67-3.7A23.43,23.43,0,0,0,128,91.17c0-.13,0-.23-.06-.22s-1.06,1-2.29,2.17Z" fill="#221244"/><path d="M111.22,91.69a37.29,37.29,0,0,0,.5,3.7,56.18,56.18,0,0,1,.88,6.06c.19,2,.37,1.88.37-.24,0-1.66-.14-2.65-1-6.79-.13-.71-.33-2-.43-2.87-.29-2.32-.56-2.22-.37.14Z" fill="#221244"/><path d="M125.58,101.43a32.16,32.16,0,0,1-5.21,3.11,45.07,45.07,0,0,0-5.09,2.45,59.35,59.35,0,0,0,6.59-2.66,21.35,21.35,0,0,0,4.51-3.08c.57-.68.15-.59-.8.18Z" fill="#221244"/><path d="M72.81,100.89a.49.49,0,0,0,.37.23c.14,0,.17-.1.09-.23a.49.49,0,0,0-.37-.23c-.14,0-.17.1-.09.23Z" fill="#221244"/><path d="M73.77,101.63a17.09,17.09,0,0,0,2.82,2.84,13.7,13.7,0,0,0-2.78-3.13c-.12,0-.14.13,0,.29Z" fill="#221244"/><path d="M57.05,98.08a.64.64,0,0,0,.51.26c.81,0,4.28,1.36,7.24,2.83A26.39,26.39,0,0,0,68,102.64a17.73,17.73,0,0,0-3.19-2c-2.74-1.48-8.23-3.27-7.77-2.53Z" fill="#221244"/><path d="M40.56,103.08c.16.18,1,.3,6.2,1a39.45,39.45,0,0,1,6.09,1.16c.22.06.39,0,.39-.13,0-.35-2.78-1.14-5.31-1.52s-7.59-.71-7.37-.47Z" fill="#221244"/><path d="M124.87,105.74a25.33,25.33,0,0,1-3,1.48,43.49,43.49,0,0,1-8.73,2.87,2.24,2.24,0,0,0-1.09.39c-.18.22.06.22,1.09,0a39,39,0,0,0,10-3.32c1.39-.7,2.64-1.63,2.23-1.64a.69.69,0,0,0-.47.22Z" fill="#221244"/><path d="M123,108.4a60.49,60.49,0,0,1-8.73,2.94,10.78,10.78,0,0,0-3,1c0,.13.23.17.52.1s1.16-.25,2-.39a30.14,30.14,0,0,0,3.49-.92c2.05-.67,6.51-2.65,6.51-2.88s0-.18-.82.2Z" fill="#221244"/><path d="M68.49,107.32a45.77,45.77,0,0,0-5.14,6.57l-.43.77.54-.6c.3-.32,1.45-1.74,2.55-3.13s2.55-3.13,3.21-3.86c1.68-1.83,1.12-1.65-.73.25Z" fill="#221244"/><path d="M63.74,108.93a48.81,48.81,0,0,0-8.38,10.64c-1.18,2-.5,1.39,1.24-1.12A53.58,53.58,0,0,1,63,110.29c2.41-2.55,3.32-3.61,3.12-3.61,0,0-1.12,1-2.4,2.25Z" fill="#221244"/><path d="M65.15,109.41a51.93,51.93,0,0,0-6.34,9.28c-.73,1.37.31,0,1.58-2a90.88,90.88,0,0,1,5.32-7.46,10,10,0,0,0,1.36-2.09s-.9,1-1.92,2.27Z" fill="#221244"/><path d="M56.46,107.68A58.58,58.58,0,0,0,50,116.25c-1,1.91-.84,2.29.14.46.72-1.34,1.07-1.83,4.57-6.31,2.81-3.59,2.87-3.69,1.72-2.72Z" fill="#221244"/><path d="M53.07,109.81a37.46,37.46,0,0,0-5.57,7l-1.62,2.55c-.22.33-.28.53-.13.44a23.22,23.22,0,0,0,1.8-2.44,67.11,67.11,0,0,1,5.86-7.47,10.5,10.5,0,0,0,1.17-1.37,15,15,0,0,0-1.51,1.28Z" fill="#221244"/><path d="M73.46,107.21a8.46,8.46,0,0,0-.74,1.35c-.13.33-.75,1.66-1.38,2.91S70.13,114,70,114.33c-.25.88,1.69-2.47,2.69-4.65.5-1.08,1.06-2.25,1.26-2.61.48-.87.08-.77-.53.14Z" fill="#221244"/><path d="M76.91,108.35c-1.73,2.3-2.55,3.71-1.93,3.32a30.24,30.24,0,0,0,3-4.44c-.06-.06-.53.44-1,1.12Z" fill="#221244"/><path d="M132.66,127.93c-1.36,2.67-2.58,6.86-1.88,6.42a2,2,0,0,0,.38-1A38.16,38.16,0,0,1,133,128c.52-1.13.21-1.2-.36-.09Z" fill="#221244"/><path d="M57,128.61c.58.6,1.67,1.84,2.39,2.73s1.38,1.67,1.44,1.73,0-.09-.07-.36c-.41-1.16-4-5.2-4.58-5.2-.13,0,.23.49.82,1.1Z" fill="#221244"/><path d="M58.8,128.57c0,.44,3.84,5.44,4,5.25a24.75,24.75,0,0,0-3-4.52c-.6-.77-1.07-1.1-1.07-.73Z" fill="#221244"/><path d="M65.76,132.19c1.7,3.85,2.37,5.28,2.45,5.2.29-.29-3-7.81-3.39-7.81a10.05,10.05,0,0,0,.94,2.61Z" fill="#221244"/><path d="M66.47,130.42l1.09,3,1.13,3.12c.26.76.33-.26.08-1.1a26.46,26.46,0,0,0-2-4.92c-.2-.2-.32-.25-.27-.11Z" fill="#221244"/><path d="M122.38,132.12c-.9,2.25-1.92,8.15-1.53,8.82.12.2.21.24.21.11,0-.56,1.17-6.68,1.52-8.09.44-1.77.34-2.19-.2-.84Z" fill="#221244"/><path d="M123.23,133.89c-.27.89-.57,2-.65,2.42s-.21,1-.27,1.21,0,.4.11.4.29-.33.38-.75a20.55,20.55,0,0,1,.88-3.55,1.76,1.76,0,0,0,.13-.91c0-.23-.31.3-.58,1.18Z" fill="#221244"/><path d="M140.79,130.65c-2.16.56-3.3,1-2.58,1a26.61,26.61,0,0,0,5-1.41c.3-.31.11-.28-2.38.38Z" fill="#221244"/><path d="M117.87,133.93c-1.22,3.17-2,6.92-1.69,8.07.15.58.2.44.32-1,.14-1.69.41-2.8,1.59-6.55a12.51,12.51,0,0,0,.58-2.26,6.09,6.09,0,0,0-.8,1.71Z" fill="#221244"/><path d="M116,135c-1.83,4.43-2.37,7.24-2,10.45.25,2.28.49,1.63.41-1.11s.17-3.92,1.47-7.87c.89-2.69,1-3.46.15-1.47Z" fill="#221244"/><path d="M80.85,141.92a35.56,35.56,0,0,0,.22,4.8c.51,0,.44-8.85-.08-9.38-.13-.14-.19,1.54-.14,4.58Z" fill="#221244"/><path d="M110.12,137.63a36.71,36.71,0,0,0-1.32,6c-.23,1.35-.32,4.47-.13,4.28a14.55,14.55,0,0,0,.36-2.18,47.63,47.63,0,0,1,1.56-8.51,3,3,0,0,0,.23-1.23,5.33,5.33,0,0,0-.7,1.69Z" fill="#221244"/><path d="M108.55,140.28a26.89,26.89,0,0,0-1,6c-.07,1.35,0,1.92.08,1.49a8.44,8.44,0,0,0,.22-1.77,23.32,23.32,0,0,1,.82-4.92c.38-1.81.31-2.33-.12-.79Z" fill="#221244"/><path d="M107,140.55a4.07,4.07,0,0,0-.26,1.09c0,.18.16-.12.35-.67a3.57,3.57,0,0,0,.27-1.09s-.2.25-.36.67Z" fill="#221244"/><path d="M106.38,142.83a35.63,35.63,0,0,0-.58,5.69c0,3,.35,1.79.61-2a36.89,36.89,0,0,1,.42-4c.1-.24.06-.41-.08-.41s-.3.33-.37.75Z" fill="#221244"/><path d="M58,140a38.08,38.08,0,0,0,7.65,0c.28-.12-1.34-.19-4-.19-3,0-4.21.08-3.6.21Z" fill="#221244"/><path d="M66.39,139.93a.44.44,0,0,0,.44,0c.08-.08,0-.13-.29-.12s-.33.07-.15.14Z" fill="#221244"/><path d="M87.08,146.6l0,2.78.17-2.29a11.07,11.07,0,0,0,0-2.78c-.12-.3-.19.6-.18,2.29Z" fill="#221244"/><path d="M102.91,144.69a17.74,17.74,0,0,0-1.28,7.16,15.12,15.12,0,0,0,.1,2.49,18.25,18.25,0,0,0,.24-2.64,21.46,21.46,0,0,1,1.1-6.6,7.69,7.69,0,0,0,.46-1.63,6,6,0,0,0-.62,1.22Z" fill="#221244"/><path d="M70.14,144.94a38.32,38.32,0,0,1-4.33.25c-1.87,0-2.74.11-2.58.27.59.59,8,0,8.43-.62.07-.12.1-.19.06-.17s-.74.14-1.58.27Z" fill="#221244"/><path d="M69.68,146a36.38,36.38,0,0,1-3.65.35c-3.15.19-3.42.57-.4.56a15.23,15.23,0,0,0,5.32-.87l.46-.27-.46,0a9.19,9.19,0,0,0-1.27.21Z" fill="#221244"/><path d="M75.18,148.24a13,13,0,0,1-3.88.82l-3.35.42-1.39.19,1.76,0a20.55,20.55,0,0,0,6.77-1.11c.53-.25.79-.45.59-.47a.75.75,0,0,0-.5.12Z" fill="#221244"/><path d="M110.65,152a6.18,6.18,0,0,0,2.14.62l3.18.6a32.44,32.44,0,0,0,7.07.64c2.81-.18,2.54-.54-.42-.56a44,44,0,0,1-7.8-.78c-.57-.11-1.51-.26-2.08-.32a12.06,12.06,0,0,1-1.57-.26c-.29-.09-.52-.06-.52.06Z" fill="#221244"/><path d="M108.45,153.65c-.39.15-.31.21.46.35l2,.38c3.94.76,11.71,1.53,12.06,1.19.13-.13-.47-.28-1.59-.38a81.61,81.61,0,0,1-8.53-1.17c-2.36-.45-3.88-.58-4.41-.37Z" fill="#221244"/><path d="M82.19,153.32c-1.72.66-2.44,1-2,1,.75,0,5-1.57,5-1.86s-.11-.27-3,.83Z" fill="#221244"/><path d="M107.08,159.13a22.48,22.48,0,0,0,6.72.43c.74-.16.35-.22-2.1-.35-1.65-.08-3.64-.21-4.4-.29l-1.39-.15,1.17.36Z" fill="#221244"/></g></g></svg>