<svg xmlns="http://www.w3.org/2000/svg" viewBox="0 0 172.05 156.14"><g id="Layer_2" data-name="Layer 2"><g id="OBJECTS"><path d="M118.18.19A34.3,34.3,0,0,0,111.45,2c-.52.18-2.1.86-3.51,1.51l-3.62,1.67c-.59.27-1.5.74-2.07,1.07l-2.4,1.39a38.23,38.23,0,0,0-6.4,5.21,48.57,48.57,0,0,0-7.89,12.44c-3.21,7.78-4.46,15.36-4.46,27a19.68,19.68,0,0,1-.19,3.89c-.12,0-.19-.13-.19-.3,0-.33-3.72-8.62-5.66-12.63-.74-1.52-2.54-4.73-4-7.09a44.66,44.66,0,0,0-6-8.08,29.19,29.19,0,0,0-3.77-3.76,1.51,1.51,0,0,1-.82-.45c-1-.95-6.86-3.36-9.27-3.79-.6-.11-3.37-.8-6.17-1.54l-5.08-1.35-4.21.15c-5.21.19-6.35.51-11.2,3.17-6.16,3.37-7.83,4.8-7.83,6.7a21.33,21.33,0,0,0,1.48,7.14c2.5,5.86,2.44,5.77,5.92,9.31.95,1,2.95,3.21,4.42,5a75.3,75.3,0,0,0,9.16,8.88c2.19,1.77,9.25,5.33,18,9.1a7,7,0,0,1,2,1c-.06.07-3.66.17-8,.22-7.81.1-10.62.35-13.48,1.21C30,71,24.44,74.72,18.55,81.11A55.75,55.75,0,0,0,9.93,92.78c-1,1.71-2.31,3.88-2.91,4.86C1.91,106,.61,108.28.21,109.71c-.44,1.58-.2,2.51.83,3.31.38.3,1.44,1.18,2.36,2,2.1,1.79,2.82,2.12,5.19,2.38a15.85,15.85,0,0,0,5.52-.56c3.54-.76,4-.77,7.29-.28a31,31,0,0,0,13.74-1.25,65.76,65.76,0,0,0,7.24-3.42l2.8-1.64c1-.61,2.09-1.23,2.34-1.4a71.54,71.54,0,0,0,6.88-5.27l3.28-2.84c1.41-1.18,7.14-6.29,8.86-7.89l3.38-3.1c1-.88,3.12-3.14,4.8-5a24.28,24.28,0,0,1,3.19-3.3,9.94,9.94,0,0,1-.41,2.38,42.27,42.27,0,0,0-.83,5.41c-.14,1.74-.39,4.43-.55,6A29,29,0,0,0,76,99.39c.08.82.19,3.39.26,5.75.25,8.9.88,12.75,2.8,17.12,2.3,5.21,2.11,5,13.39,16.69,2.36,2.46,4.89,5,5.6,5.55a5.94,5.94,0,0,1,1.28,1.28,3.46,3.46,0,0,0,1,.93,61,61,0,0,1,6.81,6c2.43,2.45,3.52,3.16,5.21,3.41,1,.15,1.14.08,2-1a6.49,6.49,0,0,0,.91-1.35,3.22,3.22,0,0,1,1-.84,4.06,4.06,0,0,0,1.75-3.74,47.15,47.15,0,0,1,2-9.85,42,42,0,0,0,1.35-6.15,78.63,78.63,0,0,0,.29-14.6,76.44,76.44,0,0,0-3.56-16.46,118,118,0,0,0-6.46-13.59c-.48-.81-1.23-2.11-1.66-2.86-2.28-4-2.84-4.94-3.91-6.26-.82-1-1-1.39-.64-1.28s1.5.38,2.69.65,2.46.59,2.83.73,1.66.46,2.84.74,4.34,1.08,7,1.79c9.62,2.54,14.12,2.59,25.22.26,8.42-1.77,10.38-2.34,14.3-4.15,1.87-.87,3.5-1.58,3.59-1.58a18.71,18.71,0,0,0,2.26-1.8,27.48,27.48,0,0,1,3.29-2.47c1.64-.93,2.37-1.85,2.57-3.28a1.76,1.76,0,0,0-.59-2,2.75,2.75,0,0,0-1.09-.78,1.13,1.13,0,0,1-.67-.52,23.24,23.24,0,0,0-2.5-2.37c-1.19-1-2.71-2.42-3.37-3.1a45.69,45.69,0,0,0-11.4-8.69c-4.64-2.36-6.09-2.81-12.2-3.84-1-.18-3-.54-4.46-.81a31.5,31.5,0,0,0-11.84.16c-1.41.35-3.12.76-3.79.9a26.28,26.28,0,0,0-2.82.87l-1.61.61.7-.82a65.64,65.64,0,0,0,5.32-8,43.08,43.08,0,0,0,4.5-12.3c.22-1,.78-3,1.25-4.58,1.19-3.93,1.18-7,0-11.93-.48-1.94-1-4-1.08-4.61a13.74,13.74,0,0,0-1.14-2.95A16.88,16.88,0,0,1,124,1.66C123.67.1,122.16-.28,118.18.19Zm4.73,1.24a4.23,4.23,0,0,1,.56,1.2c.28.86.2,1.19-1,3.75-.7,1.54-1.43,3.28-1.63,3.85-2.09,6.05-5.85,12.6-12.14,21.2-3.16,4.32-5.93,8.25-5.81,8.25s3.63-4.57,7-9.12c5.68-7.58,8.91-13.18,11.3-19.57.49-1.32,1.19-3.12,1.56-4s.78-1.94.92-2.33l.26-.7.54,1c1,2,3.19,11.53,3,13.36-.26,2.5-3,7.61-7.48,14.21-2.08,3-2.12,3.11-.67,1.43a52.92,52.92,0,0,0,5.76-8.36c.33-.71.66-1.23.73-1.15a9.9,9.9,0,0,1-.44,2.31c-.31,1.21-.67,2.7-.8,3.36a46.44,46.44,0,0,1-5,12.1c-.47.65-1.33,2-1.94,2.95-1.45,2.33-2.94,3.88-4.12,4.29-1.44.5-7,2.88-8.24,3.51-.6.31-2.26,1.12-3.72,1.8a29.46,29.46,0,0,0-3.6,2c-.51.39-1,.65-1.08.58s2.6-2.56,5.81-5.08l3.59-2.83a78.13,78.13,0,0,0,8.13-8.66c.76-1-.43.14-2.66,2.5A78.43,78.43,0,0,1,99.44,53.9a28,28,0,0,0-2.84,2.36l-3.33,3.47c-4.12,4.31-2.14,1.77,3.56-4.58,3-3.34,5.09-5.78,4.61-5.41A142.84,142.84,0,0,0,90,61.81c-1.1,1.38-1.23,1.47-.83.59.55-1.2,8.26-9.66,14.78-16.22A77,77,0,0,0,119.1,25.73a71.84,71.84,0,0,0,3.32-7c-.09.09-1.15,2-2.36,4.15-5.5,9.91-8.59,14.44-13.59,19.89-3.54,3.86-10.78,11-11.14,11a46,46,0,0,0-3.63,3.63c-1.88,2-3.43,3.57-3.43,3.5a112.44,112.44,0,0,1,6.44-11c.54-.73,1.21-1.73,1.49-2.22.93-1.63-.29-.26-2.74,3.09a57.36,57.36,0,0,0-5.93,9.91c-.39.9-.76,1.56-.83,1.47s0-.33.13-.53a12.65,12.65,0,0,0,.74-2.15,98.35,98.35,0,0,1,6.5-16.23,157.43,157.43,0,0,1,10.78-16.79c2.64-3.57,5.62-7.8,5.91-8.4s0-.22-3.94,5c-9.43,12.61-14.14,20.51-18,30.22L87,58.12a37,37,0,0,0-1.24,3.49c-.36,1.63-.36.65,0-2.38.47-4,1.14-6.77,3.25-13.51,1.91-6.09,2.25-7.32,1.57-5.73-2.64,6.24-5.79,18.32-5.79,22.21,0,.54-.1.79-.25.62-.6-.69,1.26-15,2.79-21.34.21-.89.63-2.7.93-4a68,68,0,0,1,3.47-9.88,112.5,112.5,0,0,1,7.55-12.67c.4-.56.51-.84.25-.62-1.19,1-4.66,6.3-7,10.65-3.94,7.34-5.95,14.18-7.72,26.37-.31,2.1-.64,4.94-.74,6.27a7.18,7.18,0,0,1-.33,2.26c-.26-.28-.06-8.14.36-14.4a69.35,69.35,0,0,1,1.12-10.06c.11-.47.09-.5-.12-.14-.42.73-1.35,6.13-1.66,9.61-.16,1.77-.37,6.19-.46,9.78s-.23,6.5-.3,6.42-.29-2-.5-4.35a81.85,81.85,0,0,1,1.55-22.3C85.06,28.23,88.81,20,92,16.29a51.86,51.86,0,0,1,5.92-5.95,53.88,53.88,0,0,1,8.14-4.86c.67-.29,2.22-1,3.48-1.58a19.66,19.66,0,0,1,3.24-1.25A10.12,10.12,0,0,0,114.64,2c.49-.22,1-.35,1-.28a6.28,6.28,0,0,1-1.45,1.57c-2.31,2.14-3.58,3.39-4.47,4.37a74.62,74.62,0,0,0-6.34,8.37c-1.6,2.55-4.82,8.87-4.52,8.87a6,6,0,0,0,.87-1.54A61.47,61.47,0,0,1,111.33,7.13c1.46-1.44,2.79-2.77,3-2.94,2.47-2.72,2.7-2.88,4.75-3.11s3.42-.12,3.88.35Zm-83,17a37.27,37.27,0,0,1,4.72,1c1.4.41,4.19,1.16,6.2,1.66a26.72,26.72,0,0,1,10,4.28c4,2.9,8.31,8.51,12.1,15.64,1.32,2.48,4.72,9.55,6,12.47s3.28,9.12,3.16,9.77-1.62-2.3-2.74-5.34A71.54,71.54,0,0,0,70.8,41.79c-1.83-2.58-9-10.64-9.42-10.64a13.74,13.74,0,0,0,2.11,2.57,67.24,67.24,0,0,1,14.62,24c.55,1.55,1.19,3.27,1.43,3.83s.65,1.69.92,2.5L81,65.49l-.54-.73-1.54-2.07c-.55-.73-2-3-3.14-5-2.54-4.35-4.81-7.92-6.86-10.75A119.78,119.78,0,0,0,57,33.81a90.77,90.77,0,0,0-8.63-6.93c-.77-.46.13.33,2,1.76a86.46,86.46,0,0,1,23.2,26.8c1.85,3.39,3.83,7,5.36,9.77l.48.87-.77-.9A103.4,103.4,0,0,1,72,55.86c-4.23-6.41-7-9.89-10.52-13.3-2.15-2.09-2.15-2.09.69,1.14,3.65,4.13,4.58,5.39,8.61,11.62a84.42,84.42,0,0,0,6.7,9.55c3.41,4-4-3.11-10.86-10.46C58.1,45.33,56.19,43.54,51,39.77c-3.57-2.61-10-6.54-10-6.12a18.71,18.71,0,0,0,2.41,1.49,91.62,91.62,0,0,1,12.43,9c1.55,1.35,6.53,6.55,11,11.52s9.24,9.93,10.48,11a14.5,14.5,0,0,1,2.06,1.94c-.12,0-2.06-1-4.32-2.33a92.45,92.45,0,0,1-13.61-9.58,124.57,124.57,0,0,0-12.3-9,84.52,84.52,0,0,0-8.14-4.13c-.1,0,1.7,1,4,2.3A83.84,83.84,0,0,1,59.05,55.4,150.84,150.84,0,0,0,74.61,67.18c2.2,1.51,2.64,2.19,1.18,1.86a86,86,0,0,1-9.5-3.32c-2.41-1-7.55-3.81-12-6.43-5.18-3.07-8.43-4.89-8.52-4.78-.28.31,15.92,9.92,20.64,12.25.66.32.66.33-.14.22-.44-.07-1.78-.21-3-.31A34.58,34.58,0,0,1,59,65.92c-1.18-.3-2.78-.68-3.54-.84a7.84,7.84,0,0,1-2.31-.9A16.73,16.73,0,0,0,50.65,63a9.71,9.71,0,0,1-1.86-.86,7.61,7.61,0,0,0-1.38-.7A41.3,41.3,0,0,1,37.68,56l-1.85-1.64c-2.93-2.57-9.38-9.37-8.27-8.72.9.52,8.45,3.56,8.55,3.44s-4.52-2.34-8-3.88a19.71,19.71,0,0,1-5.94-5c-.9-1.07-2.79-4.63-2.58-4.86a3.42,3.42,0,0,1,1.18.75c1.06.85,4.6,2.39,8.14,3.56a43.28,43.28,0,0,0,6.91,1.73c.07-.08-.28-.23-.77-.34a60.68,60.68,0,0,1-13.36-5.19L19,34.4l-.7-1.95a10.63,10.63,0,0,1-.66-2.29,10.35,10.35,0,0,0-.15-1.71c-.29-2-.05-2.46,1.77-3.68l1.64-1.09,3.93.19c5.06.25,6.93.77,16.1,4.49,3.08,1.25,1.62.32-1.9-1.21-6.7-2.91-10.3-3.87-15.2-4L22.12,23l2.39-1.36c5.39-3.08,9.55-4,15.35-3.23ZM135.57,48c8,1.24,10.44,1.82,14.3,3.43A26.5,26.5,0,0,1,156.26,55c1.19,1,1.19,1.05,0,.56-2.81-1.17-9.89-2.13-13.89-1.89-6,.37-6.12.61-.21.62,5.19,0,6.12.09,9.14.79,7,1.61,7.71,2,12,6.1.77.73,1.79,1.67,2.3,2.11l.91.78-1.49-.38c-.82-.2-2.49-.72-3.7-1.13a49.43,49.43,0,0,0-11.94-2.13l-3.11-.12,3.11.4a71.32,71.32,0,0,1,11.86,2.5c1.41.46,3.29,1,4.16,1.2,1.46.34,3,1.27,5.22,3.18.6.52.62.61.23,1.62-1.18,3.14-7.07,4-21.88,3-1.76-.11-1.54,0,1.21.34,3.56.51,12.91.7,15.2.31,1.53-.26,1.38,0-.9,1.58A11.55,11.55,0,0,1,158,76.87a72.06,72.06,0,0,1-13.15-.22c-.52-.1-.89-.11-.81,0,.35.42,6.71,1.15,10.08,1.15h3.77l-1.26.52c-2.78,1.16-3.85,1.27-9.62,1.06-3.06-.11-6-.26-6.5-.32-3.08-.37-4.41-.46-4.27-.31s5.71,1,9.53,1.24l3.52.22-1.9.37c-14.3,2.77-16.41,2.77-27.63-.07-7.83-2-8-2-10.78-2.63a22.43,22.43,0,0,1-3.21-.92c-1-.42-3.38-2.44-3.19-2.65.06-.06,2.7.6,5.88,1.48s6.45,1.73,7.27,1.91c1.39.3,8.41,1.22,9.35,1.22,1.19,0-.29-.32-4.73-1A113.41,113.41,0,0,1,109,75.37c-3.55-1-6.63-1.77-6.84-1.77a9.31,9.31,0,0,1-3.14-2.13c0-.25,1.31-.15,5.24.39,4.19.58,5.13.68,9,1,3.61.28,7.29.44,13.35.57,5.65.12,5.73.11,1.75-.13-12.25-.74-15-.94-18.44-1.33-2-.24-5-.63-6.47-.86s-3.4-.44-4.22-.47a8.78,8.78,0,0,1-2-.27c-.47-.19-.46-.23.15-.39,3.93-1.07,22.19-.92,31.26.25.64.08,1.1.06,1,0-.44-.49-13.9-1.8-20-2a11.13,11.13,0,0,1-2.92-.26,23.77,23.77,0,0,1,3.94-.53c2.14-.19,4.45-.41,5.19-.49,1.65-.17,19-.17,19.26,0,.1.06,2.56.18,5.43.26,3.72.11,4.59.09,3-.09a215.63,215.63,0,0,0-32.79-.45c-2.8.25-5.39.51-5.76.59-1.1.24-9.52,1.07-9.63.95a8.27,8.27,0,0,1,2-.63c1.16-.29,2.47-.64,2.92-.79a172.44,172.44,0,0,1,17.79-3.55c1.75-.28,2.16-.42,1.47-.5-1.64-.19-7.94.53-13.87,1.58-2.83.5,5.75-2.07,9.71-2.9a77.91,77.91,0,0,1,17.49-2l4.62,0-2.83-.25c-3.32-.28-6.42-.13-12.94.65A63.87,63.87,0,0,0,111,61.71a40.46,40.46,0,0,1-4.31.87c-1.47.15-3,.54-7.5,1.93-2.8.86-4.13,1-2.28.27l2.49-1.06A137.63,137.63,0,0,1,113.05,59a86.19,86.19,0,0,1,9.7-2.35,37.54,37.54,0,0,1,4.84-.46c1.29,0,1.9-.1,1.66-.26-.5-.35-4.93-.11-8.24.45a110.47,110.47,0,0,0-23.6,7.42C93,65.86,92.68,66,93,65.69s6.9-4,9-5a91.57,91.57,0,0,1,26.55-8c1.51-.17,1.79-.25.95-.28-3.32-.11-13,2.08-19.42,4.38a96.28,96.28,0,0,0-12,5.31,17.29,17.29,0,0,1-2.77,1.36c-.24-.26,3.88-2.95,9.78-6.39a50.58,50.58,0,0,1,8.86-4c.87-.27,1.51-.55,1.44-.63s-5.47,1.45-7.47,2.29a89.73,89.73,0,0,0-13.36,7.29c-2.62,1.78-2.46,1.45.54-1.11,2.77-2.35,16.1-9.29,20-10.38l5.08-1.43a41.28,41.28,0,0,1,5.25-1.24,7,7,0,0,0,1.66-.26c1.22-.41,4.67-.29,8.5.31ZM93.66,64.58a2.55,2.55,0,0,1-.82.57c-.46.25-.75.32-.66.16a1.84,1.84,0,0,1,.76-.55c.72-.31.72-.31.72-.18Zm12.6,3.59a.51.51,0,0,1-.53,0c-.21-.09-.14-.17.17-.19s.44.06.36.16ZM64.39,69a53.84,53.84,0,0,1,7.67.85,15.84,15.84,0,0,1,3,.66,18.75,18.75,0,0,1-3.88,0C60.43,70,58.28,70,55.22,70.31a82.44,82.44,0,0,0-12.28,2.25c-3,.83-7.89,2.52-7.75,2.67a17.44,17.44,0,0,0,3-.89c8.68-3,17.64-4.1,28.27-3.42,3,.19,6.79.38,8.38.41s2.79.17,2.66.31a31.4,31.4,0,0,1-5.44.18c-13.77-.2-18.51.48-27.48,3.94-2.28.88-5,2-6.06,2.48a80.43,80.43,0,0,0-8.37,4.43,4.23,4.23,0,0,0,1.41-.61A118.12,118.12,0,0,1,43.2,76.84a59.61,59.61,0,0,1,12.35-3.23c3.55-.55,4.33-.57,9.85-.29,3.29.17,7.28.22,8.83.11a13,13,0,0,1,2.71-.05c-.13.14-4.7,1.15-9.32,2.05a157.85,157.85,0,0,0-16.71,4.76c-4.55,1.68-8,3.15-7.89,3.32a12.49,12.49,0,0,0,2.52-.92,105.77,105.77,0,0,1,24.8-6.82A72.29,72.29,0,0,0,80,73.71l.54-.22-.54.69a5.68,5.68,0,0,1-1.74,1.27c-2.34,1.13-6.36,2.92-8.09,3.6-8.55,3.34-18.81,8.93-24,13.06-1.29,1-1.67,1.47-.7.8,8.69-6,13.33-8.46,23.6-12.69,3-1.24,6-2.52,6.7-2.84a4.35,4.35,0,0,1,1.26-.48,17.73,17.73,0,0,1-2.23,2c-1.29,1.06-3.28,2.75-4.5,3.79s-2.48,2.13-2.85,2.43c-2.72,2.25-4,3.24-5.52,4.4-1,.72-2.95,2.23-4.39,3.34s-3.45,2.57-4.45,3.24S50.71,97.72,50,98.19c-1.95,1.31-4.19,2.72-7.86,4.92a32.07,32.07,0,0,0-3.16,2c.56,0,8.71-4.77,13.25-7.76,3-2,10.83-7.56,12.27-8.75,5.83-4.84,10.76-8.85,11.66-9.5a18.52,18.52,0,0,0,2.06-1.76c.59-.61.82-.75.64-.37a39.88,39.88,0,0,1-4.6,5.67,18.42,18.42,0,0,0-2.35,3.11,14.93,14.93,0,0,1-3.1,3.55c-1.26,1.12-2.83,2.57-3.51,3.25a11.46,11.46,0,0,1-2.57,2.25,26.35,26.35,0,0,0-2.36,2.1,141.59,141.59,0,0,1-11.12,9.3c-1,.68-2,1.43-2.22,1.67a37.07,37.07,0,0,1-3.68,2.25c-7.14,4-9.91,5-15.15,5.61a21.22,21.22,0,0,1-6.86-.15,27.78,27.78,0,0,0-4.94-.34l-1.35.17,1-.65a115.3,115.3,0,0,0,8.73-8c1.31-1.31,2.85-2.79,3.41-3.26s1-.93.93-1-3.9,3.12-10.12,8.82c-5.39,4.94-5.94,5.21-10.09,5A7.47,7.47,0,0,1,3.55,114L2.45,113,3.76,112c.72-.52,2.28-1.84,3.49-3a59.36,59.36,0,0,1,10.5-8c2.52-1.48,2.54-1.63.06-.4a52.31,52.31,0,0,0-12.3,9.06c-2.21,2.12-3.6,2.9-4.37,2.44-1.48-.87-.69-2.37,10.8-20.67,4.68-7.45,12.21-15.32,17.68-18.48a28.28,28.28,0,0,1,12.94-4.13c3.68-.24,17.46-.19,21.83.09ZM78,69.47c.23.17.28.29.13.29a1.39,1.39,0,0,1-.67-.29c-.23-.16-.29-.28-.13-.28a1.46,1.46,0,0,1,.67.28ZM95.23,72c4,1.3,9.84,6.83,12.58,11.92.56,1,1.41,2.57,1.88,3.37A88.73,88.73,0,0,1,115.22,98a58.15,58.15,0,0,1,4.43,14.27c1.85,10.64,1.6,18.36-.9,27.63a38.92,38.92,0,0,0-1.65,8.76c0,1.49-.43,3-.84,3-.12,0-.29-.62-.39-1.4-.64-4.89-3.21-16.53-3.57-16.15a12.15,12.15,0,0,0,.46,2.3,17.67,17.67,0,0,1,.57,2.94,38.61,38.61,0,0,0,.8,4.25c.43,1.94.92,4.61,1.09,6,.27,2.24.25,2.51-.21,3.09a13.85,13.85,0,0,0-1,1.44c-.74,1.29-1.53,1.57-2.62.9-1.62-1-3.12-4-5.62-11.43-.44-1.29-1.24-3.49-1.78-4.87s-1.16-3-1.4-3.62-.47-1-.53-1a16.65,16.65,0,0,0,1,3c1.51,4.1,2.36,6.55,3.56,10.2.57,1.74,1.24,3.58,1.48,4.08a2.32,2.32,0,0,1,.33,1,14.89,14.89,0,0,1-2.15-2c-1.71-1.76-2.77-3.33-6.22-9.2-2.29-3.9-5-8.66-6.11-10.61s-2-3.61-2.1-3.7c-.84-.85,5.35,10.41,9.06,16.5,1.48,2.45,2.64,4.44,2.57,4.44a17.68,17.68,0,0,1-1.9-1.48c-3.44-2.86-4.11-3.52-11.68-11.48-8.07-8.46-7.91-8.25-10-13a31.58,31.58,0,0,1-2.15-7.81c-.18-1-.41-5.42-.5-9.88a96.92,96.92,0,0,1,.28-13.15c.47-5.05,1.57-11.07,2.31-12.63,1.15-2.44,3.62-5.95,2.92-4.16-.12.33-.76,2.31-1.41,4.41-1.73,5.58-2.08,8.62-1.88,16.37.35,13.2,2.13,20.68,6.92,29.06a34.71,34.71,0,0,0,2.18,3.54,13.4,13.4,0,0,0-1.33-2.58c-4.27-7.39-6-13-6.92-22.75a83.42,83.42,0,0,1,0-16.28c.37-2.42,3-11.76,3.27-11.51a73.3,73.3,0,0,1-1,7.72c-.12.64-.31,2-.41,3.09s-.23,2.17-.28,2.5A39,39,0,0,0,82.5,103c.65,2.77.68,2,0-1.29a28.25,28.25,0,0,1-.41-7.5c.08-2.53.41-6.42.73-8.7s.68-4.72.79-5.45l.19-1.32L84,80.38c.09.89.24,2.88.33,4.43a112.85,112.85,0,0,0,5,26.81c2.37,6.91,8.24,21.23,8.69,21.23a35.94,35.94,0,0,0-1.51-3.76C92.94,120.72,89.05,109.83,88,105c-.76-3.42-1.84-10.34-2.15-13.79-.37-4-1.09-14.37-1.06-15.11,0-.93.76,2.64,1.32,6.66.29,2,.59,3.86.68,4.1s.39,1.77.67,3.39c.65,3.7.85,4.44,3.78,14.07,2.35,7.72,4.54,14.24,4.72,14a34.39,34.39,0,0,0-1.2-3.93A233.66,233.66,0,0,1,88.24,91C88,89.48,87,82.31,86.76,79.78c-.17-1.64,3.85,11.2,6.07,19.35,1.83,6.74,3.4,11.84,4.77,15.47a82,82,0,0,0,3.51,8.45,13.3,13.3,0,0,0-.87-2.44,152.72,152.72,0,0,1-7-21.65c-1-3.65-2.55-9.28-3.52-12.52l-2-6.77c-.51-1.78,0-1,1.19,2S91.6,88.85,94,96.15c1.63,4.89,4.29,12.21,4.4,12.1s-6.37-19.32-8.16-24.17c-.37-1-.7-1.86-1.15-2.9,0-.13,0-.22,0-.22a86.88,86.88,0,0,1,4,8c.37.9,1.34,3.36,2.14,5.47s1.8,4.63,2.2,5.6c2.51,6.06,6.63,17.56,7.59,21.2a12.66,12.66,0,0,0,.84,2.64c.25-.84-2.69-10.17-5.94-18.84-1.1-2.92-2.5-6.7-3.13-8.4S95.55,93,95.28,92.33s-.79-2.1-1.17-3.26a67,67,0,0,0-3.9-8.78c-.37-.65-.53-1.07-.38-1s3.55,5.5,5.58,9a104.14,104.14,0,0,1,7.14,15,11,11,0,0,0,1,2.3c.16-.18-1.85-5.47-3.38-8.87a113.82,113.82,0,0,0-6.5-12.21c-2.62-4.36-2.71-4.55-1.36-3,2.27,2.67,6.55,10,9,15.3,1.31,2.86,4.06,9.65,4.91,12.1.67,1.94,1.14,2.83.78,1.49a168.83,168.83,0,0,0-8.55-20.64,77.16,77.16,0,0,0-6.55-10c-4-5.31-3.73-5.72.44-.68,7.86,9.52,10.07,12.86,13.23,20,.73,1.63,1.24,2.62,1.14,2.22a61.29,61.29,0,0,0-4.44-9.63,92.47,92.47,0,0,0-7-9.64,16.8,16.8,0,0,1-2.15-3,68.89,68.89,0,0,1,5.66,6.5,7.75,7.75,0,0,0,1,1.29,74.67,74.67,0,0,1,5.62,9,97.29,97.29,0,0,1,9,24.09,33,33,0,0,0,1,3.93c.23-.25-1.93-9.54-3-12.77C108.92,100.05,104,90.38,98.16,83c-.71-.9-2.72-3.2-4.45-5.11l-3.16-3.48,1.9,1.39c7,5.13,10.93,9.4,14.88,16.13,2,3.37,2,3.45.87,1a44.54,44.54,0,0,0-5.62-8.76,96.16,96.16,0,0,0-8.66-8l-.67-.53.63.2a7.63,7.63,0,0,1,1.74,1.07c.62.48,1.42,1.09,1.79,1.36a49,49,0,0,1,10.2,11,108.55,108.55,0,0,1,9,19.23c.43,1.3.72,2,.63,1.49-.59-3.25-6.28-16.59-9.06-21.25a40.76,40.76,0,0,0-15.61-15.4c-1.42-.79-1.57-.94-.8-.78a24.68,24.68,0,0,1,5.73,2.22,23.2,23.2,0,0,1,4.76,4.35c3,3.3,3.13,3.38,1.9,1.55-3.07-4.6-6.46-7.22-11.06-8.57l-2-.59,1.48,0a11.39,11.39,0,0,1,2.66.42Zm-2.8,6c.28.34.43.59.36.59a2,2,0,0,1-.62-.59c-.28-.34-.43-.59-.36-.59a2.15,2.15,0,0,1,.62.59Z" fill="#24242d"/><path d="M91.13,38.08c-.28.76-.21,1,.12.34.14-.28.22-.6.16-.67s-.19.08-.28.33Z" fill="#24242d"/><path d="M102.11,40.65l-.52.66.62-.56c.57-.52.73-.76.51-.76a3.15,3.15,0,0,0-.61.66Z" fill="#24242d"/><path d="M31.36,20.55a45.47,45.47,0,0,1,7.78,3,8.67,8.67,0,0,0,2.38,1,14.5,14.5,0,0,0-2.91-1.77,17.57,17.57,0,0,0-7-2.39c-1.15-.14-1.17-.14-.26.15Z" fill="#24242d"/><path d="M46.46,22.27A53.28,53.28,0,0,1,56.79,28c2.16,1.48,1.69.71-.54-.87a38.51,38.51,0,0,0-8.73-4.84c-3-1.09-3.73-1.09-1.06,0Z" fill="#24242d"/><path d="M37,31.74a1.47,1.47,0,0,0,.66.28c.16,0,.11-.12-.12-.28a1.43,1.43,0,0,0-.67-.28c-.16,0-.11.11.13.28Z" fill="#24242d"/><path d="M47.82,31.6a68.71,68.71,0,0,0,6.14,4,40.86,40.86,0,0,0-5.62-3.93c-.29-.08-.52-.1-.52,0Z" fill="#24242d"/><path d="M39.45,32.92a4.92,4.92,0,0,0,1.22.56c.15,0-.16-.26-.68-.56a4.43,4.43,0,0,0-1.22-.57c-.14,0,.17.26.68.57Z" fill="#24242d"/><path d="M26.23,34.38c.61.39,9.24,3.59,9.35,3.47s-4.55-2.11-7.14-3c-2.34-.79-2.89-.91-2.21-.48Z" fill="#24242d"/><path d="M57.53,38.92a7.5,7.5,0,0,0,.87.95l.88.85-.8-.95c-.74-.9-.95-1.09-.95-.85Z" fill="#24242d"/><path d="M43,53.09a6.86,6.86,0,0,0,.77.45c.64.34.64.33.15-.1s-1.3-.71-.92-.35Z" fill="#24242d"/><path d="M142.65,60.25a6.27,6.27,0,0,0,1.62,0c.42-.07,0-.13-.87-.13s-1.23.06-.75.13Z" fill="#24242d"/><path d="M145.35,60.24a1.1,1.1,0,0,0,.67,0c.18-.08,0-.14-.34-.14s-.51.06-.33.14Z" fill="#24242d"/><path d="M146.56,67.62a4.67,4.67,0,0,0,1.35,0c.33-.07,0-.12-.75-.11s-1,.06-.6.12Z" fill="#24242d"/><path d="M149.14,67.92a.52.52,0,0,0,.51,0c.09-.1-.06-.17-.34-.16s-.38.09-.17.19Z" fill="#24242d"/><path d="M142,71.75a1.38,1.38,0,0,0,.81,0c.18-.09,0-.15-.47-.14s-.59.07-.34.15Z" fill="#24242d"/><path d="M144.81,72a2.6,2.6,0,0,0,1.08,0c.25-.08,0-.13-.62-.13s-.8.08-.46.14Z" fill="#24242d"/><path d="M134.3,73.8a1.13,1.13,0,0,0,.68,0c.19-.08,0-.14-.35-.14s-.53.06-.33.14Z" fill="#24242d"/><path d="M34.06,75.67c-.23.16-.29.29-.14.29a1.57,1.57,0,0,0,.68-.29c.23-.17.29-.3.14-.3a1.49,1.49,0,0,0-.68.3Z" fill="#24242d"/><path d="M30.82,77.14c-.23.16-.29.28-.14.28a1.49,1.49,0,0,0,.68-.28c.23-.16.3-.28.15-.28a1.56,1.56,0,0,0-.69.28Z" fill="#24242d"/><path d="M27.44,84.1c-.51.44-.51.45.08.13.34-.18.61-.38.61-.46s-.13-.17-.69.33Z" fill="#24242d"/><path d="M41.34,84.22c-.51.3-.82.56-.67.56a4.6,4.6,0,0,0,1.21-.56c.51-.31.81-.56.67-.56a4.28,4.28,0,0,0-1.21.56Z" fill="#24242d"/><path d="M41.2,88.74c-5.47,3.13-9.92,6.35-11.32,8.17-.3.38.07.16.82-.5a80.79,80.79,0,0,1,10.5-7.3,30.43,30.43,0,0,0,3.5-2.24,37.21,37.21,0,0,0-3.5,1.87Z" fill="#24242d"/><path d="M24.64,90.82a53.94,53.94,0,0,0-10.79,7A54.57,54.57,0,0,0,7,104.49c-.39.66-.25.58.7-.38a65.67,65.67,0,0,1,5.91-5.32,21,21,0,0,0,1.63-1.35c.54-.73,6.05-4.46,8.49-5.74,3-1.61,3.55-2.08.95-.88Z" fill="#24242d"/><path d="M34.06,100.53c-2.49,2-10.17,10-11.11,11.51-.32.52.38-.07,1.56-1.31,5.88-6.19,10-10.3,11.09-11.14.77-.57,1.09-.94.82-.94,0,0-1.1.84-2.36,1.88Z" fill="#24242d"/><path d="M22.76,103.7a98.16,98.16,0,0,0-7.39,6.87c-1.76,1.79-.36.63,3.46-2.89,1.93-1.78,3.89-3.48,4.38-3.79a3.89,3.89,0,0,0,.89-.69c0-.27-.44-.1-1.34.5Z" fill="#24242d"/><path d="M35.22,107.65a20,20,0,0,0-5.73,4.27c-1.3,1.31-1.17,1.24,1.06-.61a38.22,38.22,0,0,1,4.65-3.25,12.87,12.87,0,0,0,2.1-1.3c0-.17.12-.23-2.08.89Z" fill="#24242d"/><path d="M106.86,102.34a1.9,1.9,0,0,0,.27.75c.15.25.27.32.27.15a1.82,1.82,0,0,0-.27-.74c-.15-.26-.27-.32-.27-.16Z" fill="#24242d"/><path d="M83.16,105.61c0,.34.08.41.16.19a.65.65,0,0,0,0-.57c-.09-.1-.16.07-.14.38Z" fill="#24242d"/><path d="M83.68,107.51a2,2,0,0,0,.26.88c.32.55.31.09,0-.73-.16-.39-.24-.44-.25-.15Z" fill="#24242d"/><path d="M117.67,112.39c0,.34.08.42.17.19a.63.63,0,0,0,0-.58c-.09-.1-.15.09-.14.39Z" fill="#24242d"/><path d="M107.42,112.52a3.25,3.25,0,0,0,.25,1c.15.36.24.42.24.14a3.21,3.21,0,0,0-.24-1c-.15-.36-.25-.42-.25-.14Z" fill="#24242d"/><path d="M96.1,118.85a3.53,3.53,0,0,0,.38,1c.22.42.39.62.39.45a3.35,3.35,0,0,0-.39-1c-.21-.42-.38-.61-.38-.45Z" fill="#24242d"/><path d="M96.9,120.93a1.71,1.71,0,0,0,.25.73c.15.25.26.31.26.14a1.74,1.74,0,0,0-.26-.73c-.15-.25-.25-.31-.25-.14Z" fill="#24242d"/><path d="M106.1,124.61a6.17,6.17,0,0,0,.22,1.18c.16.59.21.62.22.15a3.83,3.83,0,0,0-.22-1.18c-.14-.36-.23-.42-.22-.15Z" fill="#24242d"/><path d="M115.51,124.78c0,.33.09.41.17.18a.63.63,0,0,0,0-.58c-.09-.09-.15.09-.14.4Z" fill="#24242d"/><path d="M101.75,124.75a1.78,1.78,0,0,0,.26.74c.14.26.25.32.25.16a2,2,0,0,0-.25-.75c-.15-.25-.26-.32-.26-.15Z" fill="#24242d"/><path d="M91,125.49c.17.34.35.59.42.59s0-.25-.15-.59-.34-.59-.42-.59,0,.26.15.59Z" fill="#24242d"/><path d="M115.78,126.25c0,.34.07.41.16.18a.7.7,0,0,0,0-.56c-.08-.1-.15.07-.14.38Z" fill="#24242d"/><path d="M106.61,127.14c0,.33.08.41.16.18a.71.71,0,0,0,0-.58c-.09-.09-.15.09-.15.4Z" fill="#24242d"/><path d="M106.88,128.32c0,.33.09.41.17.18a.67.67,0,0,0,0-.58c-.09-.1-.16.09-.15.4Z" fill="#24242d"/><path d="M107.15,129.79c0,.34.07.41.16.18a.76.76,0,0,0,0-.56c-.09-.1-.15.07-.15.38Z" fill="#24242d"/><path d="M111.22,130.51a10.43,10.43,0,0,0,.49,1.91c.27.81.49,1.27.49,1a10.43,10.43,0,0,0-.49-1.91c-.27-.81-.49-1.27-.49-1Z" fill="#24242d"/><path d="M107.42,131.26c0,.34.09.42.17.19a.63.63,0,0,0,0-.58c-.08-.1-.15.09-.14.39Z" fill="#24242d"/><path d="M91,131.78a1.63,1.63,0,0,0,.47.52c.41.37.42.35.1-.1s-.57-.66-.57-.42Z" fill="#24242d"/><path d="M99,134.93a8.35,8.35,0,0,0,.95,1.77,6.38,6.38,0,0,0-.68-1.77,9.54,9.54,0,0,0-1-1.77,7.29,7.29,0,0,0,.68,1.77Z" fill="#24242d"/><path d="M111,138.3a87.84,87.84,0,0,1,1.75,9.29c.36,2.53.49,3,.51,2,0-2.78-1.66-11.51-2.43-12.44-.12-.14,0,.36.17,1.15Z" fill="#24242d"/></g></g></svg>