<svg xmlns="http://www.w3.org/2000/svg" viewBox="0 0 162.35 280.14"><g id="Layer_2" data-name="Layer 2"><g id="OBJECTS"><path d="M84,1.08a49.89,49.89,0,0,0-6.26,6c-1,1.1-2.64,2.83-3.62,3.83a42.26,42.26,0,0,0-5.69,7.2l-.77,1.4L67,18.43C65.88,16.49,57.18,9,56.17,9.13a4.62,4.62,0,0,1-1.94-.85c-1.2-.81-1.5-.88-2.41-.62-1.9.56-2.82,2.28-4.47,8.44A59,59,0,0,1,45,22.48c-2.45,5.72-2.69,6.38-2.91,8l-.19,1.53-2-1.76C37.83,28.4,35.5,27,29.06,23.67c-4.45-2.29-5.44-2.66-7.93-2.94-1.69-.19-3.52-1.17-6.82-3.61-1.46-1.09-2-1.34-2.82-1.24-1.51.19-1.76,1-2,6.36-.28,6.91,0,10.3,1,14.48a56.11,56.11,0,0,0,7.71,16.55A101.29,101.29,0,0,0,27.7,64.55c3,3.16,7.19,7.35,7.78,7.84s5.5,5.43,9.17,9.21c.89.92,1.57,1.85,1.51,2.08a1.28,1.28,0,0,0,.54,1,42.77,42.77,0,0,1,3.09,3.84c4,5.33,5,6.46,7.81,8.8,7.18,5.89,8.86,7.72,10,10.83.91,2.57,2.65,15.06,2.92,20.93.4,8.53.52,9.92,2,23,.81,7.18,2,16.09,2.66,20S76.64,181,77,183.32s.71,4.29.69,4.34-3.6-7.71-4-8.74c-.15-.39-.5-1.15-.78-1.68s-1-2-1.53-3.25c-1-2.27-4-8.05-5.15-10-.33-.54-1.1-1.83-1.68-2.81-2.19-3.72-6-9.54-8.55-13.15-2.44-3.41-5.45-7.57-6.12-8.46l-2.28-3c-1.43-1.88-4-5-6.82-8.21a115.74,115.74,0,0,0-10.71-10.27,90.67,90.67,0,0,0-8.66-5.8c-1-.59-2.83-1.64-4-2.31s-3.13-1.75-4.4-2.37-3.29-1.71-4.46-2.4-2.84-1.64-3.72-2.1a27,27,0,0,1-3-1.86,11.39,11.39,0,0,0-1.7-1.11c-.5-.1,0,2.15,1.14,5.68.63,1.89,1.3,3.8,1.5,4.27S3.55,112,4,113.27s1.35,3.78,2,5.57,1.59,4.31,2,5.57a33.5,33.5,0,0,0,1.71,4.13c1.38,2.6,1.82,3.45,3.43,6.47,1.35,2.55,9.75,15.71,11.7,18.32a28,28,0,0,0,1.82,2.18,19.57,19.57,0,0,1,1.58,1.92c2.1,3,6.82,7.42,14.7,13.63,8.39,6.6,21.08,16.83,22.63,18.25.47.43,2.1,1.84,3.62,3.14s3.59,3.21,4.6,4.25l5.62,5.74A19.73,19.73,0,0,1,81,204.8c1.22,2,2,3.89,3.81,9.08,2.91,8.41,4.38,12.25,6.55,17.13,1.32,3,2.66,6.06,3,6.87.8,2.07,3.44,7.81,3.85,8.39a2.18,2.18,0,0,1,.38.8c0,.31,2.06,4.39,3.4,6.88.6,1.11.87,1.57,2.35,4.1a10.92,10.92,0,0,1,.8,1.5c0,.36,11.62,18.13,12.65,19.4.61.75,1.08,1.28,1.08,1.18s-2.3-3.91-5.89-9.57c-3.3-5.21-5.17-8.25-6.44-10.44-.66-1.14-1.55-2.67-2-3.35s-1.85-3.47-3.18-6.19l-3.32-6.77c-.49-1-1.85-3.95-3-6.51l-2.87-6.38a120.49,120.49,0,0,1-4.92-13A114.29,114.29,0,0,0,81.68,204,31.29,31.29,0,0,0,77,198.71c-.69-.62-2.3-2.24-3.56-3.57a119.4,119.4,0,0,0-10-9A9.7,9.7,0,0,1,62,184.78c.73-.08,8.46,2.63,11,3.85,1.71.83,1.92,1.05,3.85,4.1a26,26,0,0,0,2.2,3.19c.58-.07-2.55-5.47-5.74-9.93-1.08-1.52-2.59-3.68-3.36-4.82l-1.39-2.07-.07-2.53c0-1.39-.2-3.53-.36-4.73l-.28-2.2.75,1.39c.87,1.6,4.3,8.53,5.42,11,.41.89,1.39,2.85,2.16,4.35s2,3.94,2.76,5.42c2,4,2.25,4.48,2.5,4.67.54.42,0-1.47-1.06-3.54-1.25-2.48-1.59-4.21-3.61-18.5-.56-3.94-1.28-8.62-1.59-10.38-1.2-6.78-3.18-24.35-3.65-32.39-.93-15.89-2.15-23.09-4.57-26.89-1.25-2-1.53-2.23-7.64-7.37-4.51-3.79-5.67-5-8.48-8.84l-1.44-2,1.22.84A17.31,17.31,0,0,1,53,89.54a111.16,111.16,0,0,0,10.71,9.81c2.48,1.81,3.36,2.18,2.21.93A22.77,22.77,0,0,1,63,94.43a20.35,20.35,0,0,0-1.92-3.5c-1.42-2-1.69-2.06-.36,0a27,27,0,0,1,1.78,3.44C63,95.49,63.65,97,64,97.66A3.22,3.22,0,0,1,64.47,99c-.13.18-3.89-2.78-5.12-4a26.49,26.49,0,0,1-2.24-3.39,28.71,28.71,0,0,0-2.57-3.8c-2.72-3-3.23-2.86-.74.14,3.88,4.69,4.24,5.91.62,2.15a42.53,42.53,0,0,0-3.84-3.46,12.62,12.62,0,0,1-2-1.77c-.11-.93,8.88,1.21,9.35,2.23A5.88,5.88,0,0,0,59,88.32l.88.79-.68-.82c-.37-.44-.8-1-1-1.18s.49,0,1.43.57a43,43,0,0,1,7.72,6l1.39,1.42-.22,1.56c-.39,2.83,0,3.51.57.9a41.8,41.8,0,0,1,2.38-6.08,16.54,16.54,0,0,1,.35,1.91,16.42,16.42,0,0,0,1.52,4.43,8.79,8.79,0,0,1,1.23,4v1.43l.16-1.67c.09-1,.33-1.72.59-1.81a3.08,3.08,0,0,0,1-.74c.29-.32,1.94-1.74,3.65-3.14s3.34-2.78,3.59-3c.41-.43.48-.44.52-.08.09.8-1.56,4.73-2.72,6.46a5.17,5.17,0,0,0-1,1.9c.16.13.7-.53,3.65-4.49,1.09-1.46,6.78-5.21,6.86-4.52A55.64,55.64,0,0,1,87,98.52a9.12,9.12,0,0,0-1.21,2.08,21.13,21.13,0,0,1-2.9,2.07A21.37,21.37,0,0,0,80,104.74a55.7,55.7,0,0,0,6.16-3.64c.32-.31,6.06-4.08,9.71-6.38,1.38-.86,3-2,3.69-2.51,1.91-1.51,1.13-.51-1.78,2.29-3.42,3.28-6.72,5.92-8.36,6.71A72.22,72.22,0,0,0,81.85,106c-4.27,3.38-7,15.33-6.35,27.84.14,2.77.31,6.8.38,8.91.24,7.92,5.58,41.08,8.46,52.56,1.66,6.63,1.88,7.47,3,11.45,1.59,5.81,3.21,12.28,3.37,13.47a4.46,4.46,0,0,0,.63,1.72c.43.6.41.09-.19-4.61a53.08,53.08,0,0,1-.44-13.82c.44-5.08.55-5.41,1-3.24a33.13,33.13,0,0,0,1.8,5.84c.24.44.18,1.6-.24,4.17-.57,3.48-.83,6.76-.51,6.37a35.59,35.59,0,0,0,.77-3.94c.33-2.06.73-4.1.87-4.52a10.88,10.88,0,0,1,2-2.47c1.58-1.58,1.68-1.64,1.37-.79a52.41,52.41,0,0,0-2.81,10.76c-.29,1.68-.76,3.81-1.05,4.75a12,12,0,0,0-.37,4.51c.17,3.14.57,4.53,2.73,9.68.72,1.7,3.1,6.57,4,8.19.52.93,1.43,2.76,2,4.09a21.53,21.53,0,0,0,1.53,2.94,15.87,15.87,0,0,1,1.24,2.1c.44.86,1,1.92,1.32,2.38a35.24,35.24,0,0,1,2.49,4.48c1,2,4,7.84,4.81,9.18,3.94,6.53,7,10.77,7.71,10.69.36,0,.31-.82-.06-1a54.56,54.56,0,0,1-4.25-5.51,99.88,99.88,0,0,1-5.6-10.09c-1.78-3.68-4.33-8.36-7-12.76a49.45,49.45,0,0,1-2.51-4.92c-.6-1.41-1.57-3.44-2.15-4.52s-1.47-2.93-2-4.09-1.17-2.66-1.47-3.31A30.24,30.24,0,0,1,94.5,224c0-2.43.5-5.4,2.23-12.26a65.36,65.36,0,0,1,4-10.67,25.32,25.32,0,0,0,1.17-2.46c.17-.66,4.61-9.44,5.4-10.66a4.68,4.68,0,0,0,.62-1.23,28.23,28.23,0,0,1,1.66-3.13,41.39,41.39,0,0,0,2-3.72c.17-.43.87-1.77,1.57-3s1.49-2.68,1.75-3.25,1.86-3.73,3.54-7c3.55-6.92,6.44-12.84,6.63-13.62a26.85,26.85,0,0,1,1.31-2.82,21.52,21.52,0,0,0,1.15-2.44c0-.09.72-1.7,1.61-3.57s1.9-4.11,2.22-5,1-2.64,1.54-3.92a137.53,137.53,0,0,0,4.46-13c.44-1.65,1-3.55,1.16-4.27a3.52,3.52,0,0,0,.22-1.45,18.94,18.94,0,0,0-3.38,1.89,33,33,0,0,1-3.55,2.06,40.4,40.4,0,0,0-5.83,3.83,1.64,1.64,0,0,1-.65.51,18.23,18.23,0,0,0-2.25,2c-1.13,1.09-2.71,2.55-3.55,3.27a20.19,20.19,0,0,0-1.93,1.86,19.68,19.68,0,0,1-1.43,1.56,129.05,129.05,0,0,0-9.62,12.34c-1.86,3-2.75,4.53-3.71,6.37-.41.8-1.15,2.18-1.62,3.06A94,94,0,0,0,95.71,169,158.61,158.61,0,0,0,92,185c-.11.66-.39,2.39-.63,3.81s-.51,3.68-.6,5-.25,2.88-.34,3.46-.24,2.22-.34,3.62-.26,3.14-.35,3.84-.18,2.57-.2,4.2c0,2.27-.09,2.63-.27,1.6A15.13,15.13,0,0,1,89,209c0-.14-.44-1.84-1-3.76s-1.19-4.31-1.4-5.27a18.83,18.83,0,0,0-.77-2.61c-.81-1.86-3.51-15.73-5.23-27-3.43-22.24-4.62-35.51-4-44.45a53.86,53.86,0,0,1,1.22-9.23c1.48-7.3,2.47-8.66,9.7-13.37,2.77-1.81,5.56-3.73,6.23-4.3,2.23-1.87,7.15-6.38,9.8-9,1.35-1.32,3.75-3.07,4.3-3.13.28,0,.56-.18.6-.3.11-.37,6.3-3.12,8.47-3.76a117.74,117.74,0,0,0,11.54-4.55c3.53-1.65,10.56-6.14,12.5-8a4.81,4.81,0,0,1,1-.83c.84-.1,4.75-4.32,9.42-10.14,3.07-3.83,5.79-7.21,6.05-7.52.69-.82,1.56-3,2.44-6.06a42.58,42.58,0,0,1,1.55-4.5c1.68-3.83,1.4-4.06-5.16-4.25-3.12-.09-20.14,2-23.81,2.91a48.91,48.91,0,0,0-10.91,4.86l-2.93,1.7c-.29.18-.35.09-.23-.35.27-.94.38-2.46.45-6.31,0-2,.12-4.4.18-5.39.24-3.51-.3-7.29-1.95-13.78-.35-1.38-.7-2.12-1.09-2.35-.91-.54-3.48.12-6.79,1.76-6.95,3.44-8.77,4.54-10.69,6.48l-1.32,1.33-.84-4.31a56.41,56.41,0,0,0-4-13.08A65.26,65.26,0,0,1,88.23.58,4.72,4.72,0,0,0,85.78,0,6.62,6.62,0,0,0,84,1.08ZM87.32.72c1.33.63,1.06,8.93-.54,16.85-.45,2.21-.88,4.32-.94,4.65s.14-.14.45-1.06,1-3.88,1.51-6.58A42.57,42.57,0,0,1,89,9.48a3.26,3.26,0,0,0,.29-1.3c.1-1.47.42-1.47,1,0,.37,1,.38,1.66.06,4-.21,1.53-.6,3.66-.88,4.75s-.55,2.25-.63,2.59.13,0,.45-.65a27.69,27.69,0,0,0,1.65-7c0-.6.19-1.13.32-1.15.65-.08.7,1.37.15,4a14.87,14.87,0,0,0-.47,3,10,10,0,0,0,.73-2.54l.58-2.66,1,3c1.48,4.39,2,6.79,3.2,15.43,1.7,12,1.7,21,0,29.24-1.62,7.74-2.58,11.5-3.15,12.3-2,2.79-4.58,7.85-4.2,8.16.09.07.28-.2.45-.62,1.13-2.9,11.7-16.88,16.77-22.17,7-7.36,18.94-14.85,27.39-17.25a50.19,50.19,0,0,1,6.43-1,61.17,61.17,0,0,0,6.81-1,7.56,7.56,0,0,1,2.41-.4c0,.36-2.7,2.85-5.93,5.37-1.75,1.36-4.49,3.52-6.15,4.84s-3.92,3.07-5.06,3.92a12,12,0,0,0-1.83,1.5c.4,0,2.39-1.43,6.81-4.74,8.85-6.65,10.87-8.31,12.1-10,.68-.91.94-1,2.4-1.19a21.66,21.66,0,0,1,2.8-.1l1.16.06-1.9,1.8c-1,1-2.38,2.15-2.95,2.58-1.78,1.32-6.05,4.88-6,5s.49-.22,1-.65c5.6-4.38,8-6.43,9.11-7.63l1.26-1.41,2.61.11c2.43.1,2.63.16,2.78.84a4.24,4.24,0,0,1-.75,2.46c-1,1.79-1,1.79-10.5,9.87-3.6,3-4.66,4.05-3.2,3.06,2.08-1.42,9.81-7.69,10.7-8.67A12.83,12.83,0,0,1,159,44.13l.71-.58L159,46c-1.05,3.82-1.52,4.76-3.7,7.38l-6.19,7.51c-5,6.09-6.85,7.72-13.66,12.18a58.24,58.24,0,0,1-10.37,5.62c-1.17.48-2.73,1.14-3.42,1.44a18.88,18.88,0,0,1-2.45.85,37.47,37.47,0,0,0-8.18,3.19c-4,1.92-4.08,2-6.66,2.09l-2.62.14,4.14-2.06c2.28-1.13,6.11-3.32,8.49-4.85,6.71-4.31,18.93-12.54,18.77-12.66s-3.69,2.19-8,5c-11.8,7.69-14.81,9.55-19.45,12-5.06,2.67-6.77,3.49-8.47,4-.88.29-2.39.84-3.37,1.22a6.4,6.4,0,0,1-1.94.56c-.16-.13,1.75-1.6,7.66-5.93,3.84-2.81,5.77-4.12,18.37-12.5,4.51-3,8.78-5.87,9.54-6.41,9.64-6.93,14.58-10.73,14.25-11-.09-.07-.49.18-.9.55C140.12,55,131.77,61,126,65c-1.51,1-7.35,4.94-12.94,8.62-11.5,7.56-16.95,11.41-21.28,15-2.9,2.42-5.33,4.16-5.56,4S94,83.48,96,81.77l2.65-2.28c1.1-1,2.21-1.88,2.48-2.08s1.42-1.11,2.59-2.06c6.58-5.34,10.29-8.15,17.95-13.59,3.71-2.64,2.25-1.92-2,1-5.92,4.05-8.42,5.9-14,10.34C95.77,81,92.91,83.64,88.06,89.6c-1.59,2-2.91,3.51-2.94,3.47a14.5,14.5,0,0,1,.23-2,71.23,71.23,0,0,0,.54-9.75c0-2,.12-3.7.18-3.83.35-.74-.46-.58-1.78.34a5.29,5.29,0,0,1-1.54.91,17.55,17.55,0,0,1,.55-1.95c1.61-5.19,4.42-19.06,4.67-23,0-.41.15-1.67.29-2.79.53-4.41.68-6,1.07-11.24.36-4.75.45-10.15.16-9.28-.06.18-.19,2-.29,4.07a215.14,215.14,0,0,1-4,31.64c-2.41,11.39-2.86,13.13-3.49,13.46a29.65,29.65,0,0,0-3,2.37,33.15,33.15,0,0,1-2.58,2.11c-.23,0-.23-2.19,0-8.22.12-3,.25-7.54.29-10.17s.09-5.18.1-5.67c.09-5.46,1.41-16.87,4.16-36a52.54,52.54,0,0,0,.61-5.22,30.1,30.1,0,0,0-.77,4.08c-.36,2.31-1,6.1-1.31,8.44-2.18,14-3.24,24.25-3.39,32.93-.06,3.1-.18,7.33-.26,9.34s-.13,5.3-.1,7.31l.06,3.64-1.19,1.34c-.67.74-1.83,2.17-2.64,3.23L70.27,91l-.37-2.13c-.21-1.17-1.07-8-1.91-15.21L66.45,60.61l.43-4.83A98.59,98.59,0,0,1,70,36.8,32.17,32.17,0,0,0,71,32.57c-.21-.17-2.83,10.25-3.48,13.88-.36,2-.78,5.23-1,7.27-.74,9-.76,8.33.61,19.62.7,5.83,1.62,12.33,2,14.45.6,3,.7,4,.46,4.49s-.37.64-.45.65a27,27,0,0,1-2.6-1.78c-1.33-1-3.33-2.3-4.39-2.9a8.33,8.33,0,0,1-3.3-3.09,87.2,87.2,0,0,0-9.26-11c-3.89-4.12-11-12.34-12.68-14.54-.35-.48-1.31-1.73-2.13-2.77C33.32,55,27.55,46.38,25.69,43.3c-.56-.93-.89-1.36-.75-1,.52,1.4,8.51,13.52,11,16.75,4.7,6,11.32,13.64,14.15,16.38,1.45,1.4,7.39,8.32,8.58,10l.82,1.15-2.13-.91a31.23,31.23,0,0,0-8.71-2.11c-1.19,0-1.48-.2-2.55-1.44s-2.2-2.45-3.33-3.59l-1.93-2c-.93-1-3.21-3.25-5.07-5.07s-4.07-4-4.91-4.9-2-2.07-2.64-2.69c-1.07-1.07-2.58-2.72-3.31-3.64-.19-.25-1-1.22-1.82-2.15a96.59,96.59,0,0,1-6.4-8.57,71.15,71.15,0,0,1-4.5-9.76c-1.49-4.14-2.55-13.31-2-17.21a17.15,17.15,0,0,0,.16-1.81c0-.74,0-.74.48.09,1.55,2.77,6.14,10.21,6.56,10.62.27.27,0-.26-.58-1.18-2.93-4.6-6.53-12.3-6.15-13.12.88-1.85,3.52.1,6.48,4.78,2.12,3.36,6.24,9.22,6.46,9.19A14,14,0,0,0,22.36,29c-1.74-2.66-3.88-6.19-4.89-8.09-.34-.63-.32-.63,1.29,0a11.24,11.24,0,0,0,2.9.74c1.16.05,4.46,1.37,7.78,3.11,7.87,4.11,9.42,5.25,13.05,9.55,1.61,1.92,3.93,5,5.13,6.75s2.31,3.37,2.46,3.52,1.05,1.71,2,3.5,2.35,4.29,3.1,5.6a44.74,44.74,0,0,1,5.58,15.77,40.63,40.63,0,0,0,3.07,10.78c.94,2.19,1.5,2.82.71.8a92.23,92.23,0,0,1-3.34-13.73,64.58,64.58,0,0,1-.09-19.23c.15-1,.37-2.5.49-3.35a94.24,94.24,0,0,1,3.14-13.92c3.07-10.56,5-14.27,10.29-19.92,1.85-2,3.89-4.21,4.53-5A34.13,34.13,0,0,1,85.05,1,2.66,2.66,0,0,1,87.32.72ZM53.31,9a37.46,37.46,0,0,1,2.47,8L56.39,20l-.46-4.13a39.06,39.06,0,0,0-.83-5.2c-.21-.6-.28-1.09-.16-1.1.71-.09,3.56,1.8,5.63,3.71l4,3.67a9.77,9.77,0,0,1,2,2.51c.4,1,.35,1.28-.75,4.34L64.61,27.1,64,23.29a37.17,37.17,0,0,0-1.09-4.94l-.45-1.14.27,1.16c.14.64.58,3.13,1,5.55.7,4.35.7,4.41.11,6l-.6,1.56-.38-4.57a45.9,45.9,0,0,0-.8-6c-.33-1.11-.29-.09.17,4.46C63,33.62,63,33.88,62,36.86l-.45,1.33V36.54c0-1.9-1.87-17.95-2.13-18.16A51.73,51.73,0,0,0,60,24.51c.93,7.9,1.2,13.83.8,17.44a12.15,12.15,0,0,1-.44,2.69,22.78,22.78,0,0,1-1-2.94,70,70,0,0,1-1.74-10.65l-.93-7.8.09,3.88c.14,5.81,1.74,14.79,3.09,17.39.36.7.27,3-.18,4.63-.15.51-.24.42-.54-.53C57,41.67,55.71,34.67,54.69,24.53c-.91-9.16-1-7.32-.17,3.18a109.05,109.05,0,0,0,3.14,18.75c.42,1.4,1,3.26,1.23,4.11s.37,1.67.22,1.87-.37-.08-.58-.79S57.69,49,57.07,47.1A157.35,157.35,0,0,1,51.6,24.36c-.76-4.46-.76-4.41.09,1.86a120.37,120.37,0,0,0,6.5,26A13.22,13.22,0,0,1,59,55.27c0,.31-.21.06-.42-.62s-1.79-4.95-3.52-9.58-3.26-8.68-3.37-9l-.21-.57,0,.59c.05.64.22,1.17,3.8,11.34,1.35,3.85,2.48,7.14,2.5,7.3.07.75-1.09-1.78-2.73-5.93-1-2.5-2.33-5.79-3-7.27A78.2,78.2,0,0,1,48.37,29.9l-.53-2.32.46,2.93c.6,3.8,1.49,6.59,4.24,13.37,1.25,3.06,2.39,5.95,2.54,6.42.26.84.25.84-.35-.11C51.15,44.47,47,38.27,45.54,36.52c-2.34-2.86-2.74-4.09-2.24-6.9a23,23,0,0,1,1.36-4.34c.53-1.21,1.45-3.52,2-5.09l1-2.88.41,2c.23,1.09.51,2.67.62,3.55s.28,1.49.38,1.37A33.66,33.66,0,0,0,48.91,19c-.39-4.76-.38-5,.28-7,.74-2.13,1.25-2.89,2.36-3.5S52.83,8,53.31,9Zm62.39,9.91c.76.37.7,2.31-.13,3.8a9,9,0,0,0-.73,1.48c0,.08-.4,1-.9,2.15-1.26,2.76-2.72,6.45-2.41,6.05.14-.17,1.32-2.48,2.64-5.17,2-4.16,2.42-4.76,2.65-4.2.92,2.23,1.56,17.55.93,22.05-.26,1.91-.4,2.3-.85,2.35a3,3,0,0,0-1,.67c-.4.36-1.27,1.05-2,1.57l-1.27.93,1.34-2.6c1.38-2.69,2.64-6,2.56-6.75,0-.25-.39.54-.82,1.78a44.75,44.75,0,0,1-2.41,5.26,13.6,13.6,0,0,1-4,5.06l-2.39,2,1.35-2.71c2.05-4.14,2.32-4.72,3.57-7.78s2.84-8.2,2.62-8.38a7.43,7.43,0,0,0-.75,2,124.61,124.61,0,0,1-7.43,17.1,20.29,20.29,0,0,1-3.44,4.21,10.28,10.28,0,0,1,.87-2.32c2.84-6.41,8.78-21.47,8.54-21.66,0,0-1.33,3-2.84,6.73-2.79,6.89-5.52,13.43-7.06,16.88a18.36,18.36,0,0,1-2.14,3.49l-1.31,1.6.56-1.21c.3-.66.76-1.62,1-2.1s1.46-3.78,2.68-7.33,2.81-8.1,3.56-10.12a36.94,36.94,0,0,0,1.23-3.65c-.24,0-2.46,5.6-4.75,11.89-2.09,5.76-5.39,13.76-5.68,13.79-.11,0,1.13-3.65,4.76-14.17.71-2.07,2-6,2.86-8.67s2.07-6.28,2.68-8a20.13,20.13,0,0,0,1-3c-.2,0-3.24,8.39-4.88,13.41-.69,2.12-2.28,6.82-3.53,10.4l-2.62,7.54c-.56,1.68-.64.93-.11-1.15.27-1.07.78-3.09,1.11-4.44s1.07-3.83,1.6-5.48,1.46-5,2-7.39,1.18-4.74,1.36-5.2a3.91,3.91,0,0,0,.27-1c-.1-.54-1.42,3.52-2.7,8.27-1.55,5.75-3.1,10.81-3.17,10.31s2.07-10.78,2.92-14a92.67,92.67,0,0,1,5.72-15.22c.24-.48.38-.87.3-.86-.25,0-2.54,4.85-3.77,7.91a78.41,78.41,0,0,0-4.07,14.18c-.27,1.54-.54.94-.39-.87.07-.88.12-2.82.11-4.3a33.65,33.65,0,0,1,1.93-10.54,18.66,18.66,0,0,0,.81-3.05,42,42,0,0,0-2.35,6.75c-.35,1.32-.67,2.45-.71,2.5a15.72,15.72,0,0,1-.3-2.49c-.23-2.67-.13-3.17,1.61-8.17.34-1,.34-1.13,0-.63a23,23,0,0,0-1.27,3.13L97.83,34l-.27-2.22c-.32-2.57-.12-3,2.54-5.29A30.76,30.76,0,0,1,107,22.12a17.94,17.94,0,0,0,2.24-1.24,4.47,4.47,0,0,1,1.15-.62,9.42,9.42,0,0,0,1.56-.71c1.2-.67,3.11-1,3.79-.69ZM97.6,60.26c-.09.49-.2.67-.25.39-.09-.53.12-1.53.29-1.39a2.11,2.11,0,0,1,0,1ZM83.11,81c-.8,1.28-1.66,2.63-1.89,3l-2,3a42.43,42.43,0,0,0-2.41,4.23,14,14,0,0,1-.93,1.84,32.73,32.73,0,0,1,.8-4.41c.14-.52.73-2.07,1.33-3.48a8,8,0,0,1,2.32-3.55c3.07-2.49,4-3.18,4.09-3.11A12,12,0,0,1,83.11,81Zm1.83,1.36c-.08,3.12-.21,3.35-4.42,7.63-1.73,1.75-3.3,3.43-3.5,3.75-.54.83,4.79-4.36,6.39-6.23,1.15-1.35,1.38-1.51,1.43-1,.11,1.09-.5,5.43-.78,5.56a102,102,0,0,0-7.91,6.74c-1.17,1.29-1.33,1-.84-1.72.43-2.4,2.7-7,5.57-11.45,1-1.51,2.24-3.5,2.8-4.44s1.08-1.64,1.17-1.57a13.75,13.75,0,0,1,.09,2.72Zm-7.25,2.75a24.85,24.85,0,0,0-2.11,7.75,7.71,7.71,0,0,1-.31,2,16.2,16.2,0,0,0-.54,2.45l-.28,1.82-.64-1.12A19.66,19.66,0,0,1,72.51,94l-.66-2.82,1.29-1.88c1.22-1.79,5.08-6.11,5.3-5.94a7.5,7.5,0,0,1-.75,1.71ZM104.8,87.2c-.94,1.19-10.82,8.54-10.87,8.09,0,0,1.43-1.63,3.17-3.51s3.17-3.49,3.16-3.57C100.2,87.7,95,93,93.33,95.33A49.57,49.57,0,0,1,86,100.52,20.08,20.08,0,0,1,87.68,98a42.75,42.75,0,0,0,3-4.77c1.1-2.15,1.23-2.28,2.83-2.94,2-.81,3.7-1.42,5.81-2.07l2.17-.68c1.07-.34,3.48-.6,3.28-.35ZM4.25,106.67a19,19,0,0,0,1.62,2c.24.22,1.21,1.3,2.16,2.41,1.7,2,5.26,5.72,9.56,10l4.91,5c1.48,1.52,4.43,4.4,6.5,6.38a53.75,53.75,0,0,1,3.82,3.84,15.41,15.41,0,0,1-3-1.74c-1.66-1.1-3.86-2.51-4.93-3.16s-2.79-1.74-3.86-2.44c-1.91-1.25-6.32-4-10.94-6.82-2.15-1.31-2.37-1.54-2.88-3-.3-.83-.93-2.43-1.39-3.51s-1-2.52-1.21-3.15-1.15-3.21-2.1-5.72-1.77-4.75-1.79-5,.48.38,1.14,1.36,1.72,2.5,2.37,3.41Zm-.08-3.15c.33.26,7.56,4.43,9,5.18s4.47,2.57,6.26,3.73c1.22.79,4.78,5.83,6.56,9.29,3.18,6.19,7.29,13.65,7.85,14.28a2.24,2.24,0,0,1,.52.8c0,.15-.64-.43-1.48-1.3s-2.63-2.65-4-4-4.28-4.23-6.43-6.45-4.14-4.24-4.41-4.46c-.69-.54-7.14-7.35-9.61-10.13a92,92,0,0,1-6.24-7.9l-.64-1,1.24.89,1.4,1Zm60.84-4c.14.27.1.39-.08.31a.64.64,0,0,1-.35-.43c0-.43.17-.36.43.12ZM30.62,120.07a78.38,78.38,0,0,1,7.77,7.32c2.37,2.6,4.84,5.44,5.46,6.27.33.45,1.42,1.85,2.43,3.13,3.16,4,5.83,10.39,8,19.26.48,1.93,1,3.76,1.12,4s-.27-.14-.91-.94c-2.37-3-10.1-11.92-11.74-13.6-7.15-7.32-8.25-8.7-10.62-13.36-.6-1.16-1.9-3.57-2.88-5.33s-2.37-4.3-3.07-5.61-2-3.54-2.95-4.94l-1.68-2.55,3.1,2a71.94,71.94,0,0,1,5.93,4.33Zm-12.75,7.51c3,1.86,6.17,3.85,7.07,4.39s3,1.87,4.7,2.94a16.17,16.17,0,0,0,3.23,1.81c.12-.09.37,0,.62.24s.3.41.16.42.56.71,1.56,1.53c3.62,3,12.07,12.25,17.36,19.07l2.35,3c.65.82.65.82-.62-.09-2.79-2-6.55-3.82-15.49-7.55-10.75-4.48-14.11-6-17.09-7.92-1.32-.84-2.95-3.09-6.31-8.75-.55-.93-1.21-2.05-1.49-2.51s-.79-1.4-1.15-2.1-.87-1.63-1.13-2.08a42.44,42.44,0,0,1-2.8-6.47l-.62-1.91,2.11,1.29c1.16.7,4.56,2.82,7.54,4.68Zm119.25-9a33,33,0,0,1-2.79,2.58,53.75,53.75,0,0,0-7.22,8.14l-4.53,5.83.54-2.36c1.35-5.86,1.88-6.58,7.38-10,1.64-1,3.77-2.41,4.77-3.08l1.89-1.26s0,0,0,.2Zm-.72,3.77c-.84,3-.9,3.15-3,5.37-2.57,2.71-4,3.89-8.46,6.87-2.23,1.51-2.22,1.46,1-2.81,4-5.26,6.85-8.62,9-10.54,1.21-1.07,2.23-2,2.26-2s-.35,1.39-.82,3.09Zm-12.46,5.83c-.14.46-.42,1.29-.61,1.79a25.23,25.23,0,0,0-.78,3.23c-.51,2.82-.35,2.49-2.73,6-1.12,1.63-2.26,3.39-2.53,3.88L115.05,147a80.77,80.77,0,0,0-4.26,8.17c-.15.41-.33.69-.4.64s.16-4.39.58-6.58a14.16,14.16,0,0,0,.31-2.55,24.58,24.58,0,0,1,.54-3.61l.61-3,2.5-2.92c3.18-3.71,8.79-9.62,9.21-9.7a3.71,3.71,0,0,1-.2.84Zm9.7,2.12c-.49,1.17-1.08,2.57-1.31,3.08s-.68,1.63-1,2.49a19.74,19.74,0,0,1-2.46,3.88c-2.92,3.65-10.33,11.83-12.15,13.41-.91.79-2.85,2.58-4.34,4a22.91,22.91,0,0,1-2.81,2.46c-.34-.28,4.84-10.49,7.81-15.38,3.68-6.06,4.86-7.58,6.64-8.54a56.26,56.26,0,0,0,8.52-6.07,11.24,11.24,0,0,1,1.88-1.55,10.68,10.68,0,0,1-.77,2.22Zm-108,17.72c1.95,1,12.69,5.66,16.68,7.24,6.47,2.57,12.82,6.11,14.33,8,1.29,1.61,6.79,9.46,7.36,10.5a27.61,27.61,0,0,0,1.71,2.55,12.61,12.61,0,0,1,1.2,1.74,10.8,10.8,0,0,1-2.32-1.42c-4.86-3.35-8.54-5.18-16.26-8.07-7.14-2.66-12.44-5-13.47-5.87a38.18,38.18,0,0,1-3.16-3.21c-.24-.29-1.07-1.24-1.85-2.12a92.68,92.68,0,0,1-8.3-11l-.58-1,1.38.86c.77.48,2.23,1.3,3.28,1.84Zm28-1.43c2.53,3.59,9.51,14.26,9.55,14.59a13.44,13.44,0,0,0,1,1.79c.52.85,1.09,1.82,1.24,2.13s.57,1.07.93,1.71c.47.83.77,2.12,1.12,4.78.51,4,.63,6.55.27,6.25-.11-.1-1.59-2.23-3.27-4.73s-4-5.86-5.13-7.44C56,161,56,161.07,55.08,157.09a91.26,91.26,0,0,0-3.79-12.2c-.31-.7-.69-1.62-.82-2l-.24-.72.57.64c.32.35,1.59,2.09,2.83,3.85Zm57.77-4a19.6,19.6,0,0,0-.65,3.58,26.91,26.91,0,0,1-.37,3.26c-.18,1-.4,2.91-.48,4.23-.23,3.39-.57,4.64-2.52,9.24-.95,2.26-2.71,6.76-3.91,10a53.49,53.49,0,0,1-2.09,5.32c.05-.33,0-3.21-.12-6.38-.22-6.2,0-10.28.71-13.69.63-3,4.78-10.9,7.49-14.19a21.09,21.09,0,0,0,1.68-2.39,6.75,6.75,0,0,1,.76-1.15,13.29,13.29,0,0,1-.5,2.15Zm17.34-.31c-.66,1.35-1.43,3.1-1.71,3.86a31.63,31.63,0,0,1-1.51,3.3,33.85,33.85,0,0,0-2.09,4.42q-3.54,9-12.29,17.06c-3.62,3.32-5.71,5.22-7.35,6.68l-1.85,1.65,1.83-5.08c1-2.79,2.62-7,3.57-9.33,1.58-3.85,1.85-4.32,3-5.11a23.41,23.41,0,0,0,2.42-2c.64-.61,2-1.83,3-2.71s2.25-2,2.76-2.6c3.58-3.87,9.6-10.7,10.52-11.92,1.08-1.44,1-.86-.3,1.77ZM40,165.75c.9.44,4.33,1.79,7.66,3,11.7,4.35,19.21,8.89,22.08,13.33.62,1,1.87,2.81,2.76,4.07s1.62,2.36,1.63,2.44-.38-.08-.86-.35a45.46,45.46,0,0,0-6.61-2.56,23.22,23.22,0,0,1-3.21-1c-2.47-.87-3.38-1.4-6.44-3.79-2-1.54-4.17-3.37-4.91-4.09s-3.37-2.83-5.84-4.68-5.74-4.43-7.27-5.7c-3-2.47-2.82-2.58,1-.73Zm61.09-5.61c-.57,2.76-.66,6.28-.33,12.89l.33,6.61-1.18,3.49c-1.62,4.76-1.79,5.28-2.59,8.17l-.7,2.53-.6-2.09a62.82,62.82,0,0,1-1.91-9.67c-.22-2.06-.13-2.85.72-6.3,1.32-5.39,5.88-17.65,6.41-17.23a4.23,4.23,0,0,1-.15,1.6ZM117.48,166c-.5,1-1.28,2.48-1.72,3.27s-1,1.94-1.27,2.53a23.86,23.86,0,0,1-1.19,2.37c-.4.72-1.21,2.22-1.82,3.4a43.19,43.19,0,0,1-6.08,8.71c-.82.83-2.94,3-4.69,4.81s-3.27,3.3-3.36,3.31a32.79,32.79,0,0,1,1.32-5.07l.86-2.8c2-6.52,1.72-6.06,5.91-9.64,6.41-5.48,8.07-7.07,11.24-10.82.87-1,1.6-1.86,1.64-1.87s-.35.8-.84,1.8ZM93.83,184.12a39.56,39.56,0,0,0,1.77,7.81l.79,2.49-1.1,5.3c-.61,2.92-1.15,5.51-1.21,5.77-.1.44-.43-.52-2.13-6.17l-.78-2.58.48-3.5c.62-4.61,1.48-10,1.65-10.33.27-.59.38-.33.53,1.21ZM107,185.85a15,15,0,0,0-.92,1.52c-3,5.87-5.07,10-5.57,11.2-.34.83-.78,1.83-1,2.27-.47.94-4.53,5.55-4.74,5.39a45,45,0,0,1,1-5.41l1.1-5.29L99.57,193c2.68-2.56,4.51-4.45,6.61-6.83,1.16-1.31,1.69-1.48.86-.27Z" fill="#24242d"/><path d="M68.91,103.14a3,3,0,0,0,.6,1,13.45,13.45,0,0,1,1.32,2.45l.76,1.76-.32-1.53c-.34-1.66-1.6-4.07-2.09-4a.31.31,0,0,0-.27.35Z" fill="#24242d"/><path d="M72.7,107.6c0,.42.21.72.38.7s.25-.35.2-.77-.21-.73-.38-.71-.25.35-.2.78Z" fill="#24242d"/><path d="M75.58,107.64a39.57,39.57,0,0,0-.62,5.7,32.5,32.5,0,0,0,1-5.14c.09-.78-.09-1.08-.34-.56Z" fill="#24242d"/><path d="M71.51,115.11c0,.11.23.84.49,1.63a24.34,24.34,0,0,1,.69,5.83c.11,2.41.53,7.79.94,11.92.65,6.63.71,7,.47,2.95-.15-2.52-.26-5.74-.25-7.14s-.19-4.93-.44-7.86c-.42-4.89-.51-5.4-1.18-6.42-.4-.61-.72-1-.72-.91Z" fill="#24242d"/><path d="M78.27,17.68A63.72,63.72,0,0,0,75.2,29.86c-.43,2.92-.15,3.08.36.21A120.9,120.9,0,0,1,78.89,17a27.79,27.79,0,0,0,1-3.79c-.07,0-.82,2-1.67,4.46Z" fill="#24242d"/><path d="M28.08,28.93c8.05,6.56,18.5,19.28,23.81,29A5.89,5.89,0,0,0,53,59.54c.32-.4-4.59-8.35-8.22-13.33A121.23,121.23,0,0,0,35,34.91c-2.81-2.85-9.58-8.74-10-8.69a25.63,25.63,0,0,0,3.07,2.71Z" fill="#24242d"/><path d="M12.77,28.72c.06.33.14.4.2.16a.58.58,0,0,0-.09-.57c-.11-.09-.16.1-.11.41Z" fill="#24242d"/><path d="M13.23,30a3.21,3.21,0,0,0,.37,1c.2.35.31.39.27.11a3.17,3.17,0,0,0-.37-1c-.2-.35-.3-.39-.27-.12Z" fill="#24242d"/><path d="M14.08,32.13a5.58,5.58,0,0,0,.61,1.56l.54,1-.3-1a11.08,11.08,0,0,0-.61-1.56L14,31.54l.07.59Z" fill="#24242d"/><path d="M15.3,35A99.19,99.19,0,0,0,20,45.47c3.57,6.71,6.71,11,15.82,21.36C37.73,69,45.54,76.92,45.75,76.9s-.21-.49-2.17-2.59C37,67.21,37.39,67.7,30.67,59.94a95.19,95.19,0,0,1-9.8-13.86c-.56-1-2.05-4-3.3-6.62A44.57,44.57,0,0,0,15.3,35Z" fill="#24242d"/><path d="M71.54,29.89c-.2.76-.09.93.19.29.13-.3.17-.62.09-.68s-.21.13-.28.39Z" fill="#24242d"/><path d="M28.79,35.72a1.86,1.86,0,0,0,.57.46c.49.31.5.3.1-.11s-.7-.59-.67-.35Z" fill="#24242d"/><path d="M71.12,31.42c-.2.79-.09,1,.19.32.13-.3.18-.63.09-.7s-.21.11-.28.38Z" fill="#24242d"/><path d="M89.54,29.4c0,.4.14.56.2.35a1.09,1.09,0,0,0-.09-.73c-.11-.19-.16,0-.11.38Z" fill="#24242d"/><path d="M29.8,36.8a1.83,1.83,0,0,0,.58.45c.52.32.53.31.11-.11s-.72-.59-.69-.34Z" fill="#24242d"/><path d="M74.74,33.1c.06.33.14.4.21.16a.62.62,0,0,0-.1-.56c-.11-.09-.16.09-.11.4Z" fill="#24242d"/><path d="M84.38,32.71a58.13,58.13,0,0,0-1.3,13.22c.09,1,.53-.15.56-1.43,0-1.56.42-5.31.9-8.86.34-2.48.46-4.23.29-4.21a4.78,4.78,0,0,0-.45,1.28Z" fill="#24242d"/><path d="M33.69,41.17C44.63,54.27,50.91,63.75,57.3,76.88c2,4,3.45,6.61,3.79,6.57.07,0,0-.24-.19-.5s-1.27-2.54-2.42-5a111.43,111.43,0,0,0-5.42-10.47,11.21,11.21,0,0,1-.73-1.31c-.12-1-7.75-12.25-11.14-16.42-3-3.74-8.79-10.5-9.28-10.88-.27-.22.52.82,1.78,2.32Z" fill="#24242d"/><path d="M24,40.5a1.73,1.73,0,0,0,.37.71c.19.24.32.29.3.12a1.86,1.86,0,0,0-.37-.71c-.19-.23-.32-.28-.3-.12Z" fill="#24242d"/><path d="M92.13,41.33c.05.42.13.57.2.35a1.24,1.24,0,0,0-.09-.74c-.11-.2-.16,0-.11.39Z" fill="#24242d"/><path d="M92.07,43.27c.06.48.14.64.18.35a1.64,1.64,0,0,0-.1-.88c-.1-.19-.13,0-.08.53Z" fill="#24242d"/><path d="M91.92,44.87c.09,1.1-.9,12.69-1.28,15-.19,1.18-.89,4.52-1.54,7.44S88,72.63,88,72.68s1.69-5.57,2.54-9.59c1-4.6,2-17.59,1.48-18.55-.11-.19-.17,0-.14.33Z" fill="#24242d"/><path d="M154.88,44.36a31,31,0,0,0-3.16,3.08c.19.15,5.41-4.38,6.08-5.29.34-.46.56-.82.49-.81s-1.61,1.38-3.41,3Z" fill="#24242d"/><path d="M121.7,49.75a123.72,123.72,0,0,0-17,13.48,63.3,63.3,0,0,0-5.62,5.92c.08,0,1.46-1.36,3.09-3A126.41,126.41,0,0,1,121.9,50a48.17,48.17,0,0,0,4.39-3.14c-.16,0-2.22,1.3-4.59,2.86Z" fill="#24242d"/><path d="M130.46,48.48c-.71.57-3.05,2.23-5.24,3.72C121.15,55,119,56.69,121.75,55c4.08-2.52,11.06-7.77,10.08-7.58-.05,0-.67.49-1.37,1Z" fill="#24242d"/><path d="M53.12,60.08a1.68,1.68,0,0,0,.37.69c.19.24.32.28.3.11a1.68,1.68,0,0,0-.37-.69c-.19-.24-.32-.28-.3-.11Z" fill="#24242d"/><path d="M154.45,50.4c-.6.54-1.81,1.49-2.73,2.14-4.59,3.27-5.38,4.11-1.39,1.49,2.24-1.47,5.69-4.26,5.66-4.56s-.54,0-1.54.93Z" fill="#24242d"/><path d="M110.8,63.19a105.9,105.9,0,0,0-13,11.19,101.8,101.8,0,0,0-9.4,11.76c-.56,1,.13.28,2.14-2.28,1.64-2.1,4-4.91,5.23-6.27s2.4-2.62,2.56-2.81.63-.67,1.07-1.09,1.35-1.32,2.08-2a127.64,127.64,0,0,1,10.49-8.77c3.5-2.63,4.14-3.18,3.64-3.09-.15,0-2.29,1.55-4.77,3.41Z" fill="#24242d"/><path d="M146.14,61c-3.77,3.69-9.33,7.92-17,13-4.56,3-8.23,5.46-8.14,5.46.32,0,12.07-7.39,14.8-9.3a72.3,72.3,0,0,0,7.86-6.35c2-1.77,4-3.84,3.68-3.81a7.63,7.63,0,0,0-1.22,1Z" fill="#24242d"/><path d="M135.37,65.08c-1,.72-.91,1,.12.26a2.93,2.93,0,0,0,.8-.69c0-.19,0-.18-.92.43Z" fill="#24242d"/><path d="M97.85,70.43l-.62.89.73-.81a5,5,0,0,0,.72-.92c0-.22-.25,0-.83.84Z" fill="#24242d"/><path d="M133.81,66.29c-.26.22-.29.33-.07.3a.67.67,0,0,0,.5-.34c.18-.39.09-.38-.43,0Z" fill="#24242d"/><path d="M58.34,15.33c.06.33.14.4.2.16a.6.6,0,0,0-.09-.56c-.11-.09-.16.09-.11.4Z" fill="#24242d"/><path d="M58.9,17.18c.06.56.15.78.2.49a2.4,2.4,0,0,0-.12-1c-.11-.26-.15,0-.08.54Z" fill="#24242d"/><path d="M51,18.56c.06.48.14.64.18.35a1.69,1.69,0,0,0-.1-.89c-.1-.18-.14.06-.08.54Z" fill="#24242d"/><path d="M47.37,26c.05.39.14.55.2.34a1.06,1.06,0,0,0-.09-.72c-.1-.19-.16,0-.11.38Z" fill="#24242d"/><path d="M45.89,30.22A29.39,29.39,0,0,0,47.18,35c1.29,3.4,3.74,8.88,3.88,8.69a46.25,46.25,0,0,0-2-5.25,63,63,0,0,1-3.36-9.55c-.13-.57-.07,0,.14,1.34Z" fill="#24242d"/><path d="M50.8,31.71c.24,2.1.38,2.92.31,1.81s-.28-2.84-.45-3.83-.11-.08.14,2Z" fill="#24242d"/><path d="M110.89,20.43a16.73,16.73,0,0,0-1.35,3.82,8.52,8.52,0,0,0,1-2.08c.82-2,1-2.68.36-1.74Z" fill="#24242d"/><path d="M113.31,21.76a8.21,8.21,0,0,0-1,1.7c-.33.92-.09.64,1-1.25.93-1.56.89-1.77-.08-.45Z" fill="#24242d"/><path d="M115.56,27.18c-.63,1.18-.82,1.66-.66,1.64a6.79,6.79,0,0,0,.75-1.28c.72-1.42.64-1.73-.09-.36Z" fill="#24242d"/><path d="M110.75,27.73c-.32.52-.31.53.11.11s.59-.72.35-.69a2,2,0,0,0-.46.58Z" fill="#24242d"/><path d="M109.65,29.81c-.11.22-.33.73-.52,1.18-.31.75-.31.75.09.14.52-.8.94-1.75.75-1.73s-.23.2-.32.41Z" fill="#24242d"/><path d="M104.39,36.47c-.37,1.15-.24,1.38.18.32.21-.5.3-.94.22-1s-.25.24-.4.68Z" fill="#24242d"/></g></g></svg>