<?xml version="1.0" encoding="UTF-8"?>
<svg id="Layer_2" data-name="Layer 2" xmlns="http://www.w3.org/2000/svg" viewBox="0 0 1170 228.73">
  <defs>
    <style>
      .cls-1 {
        fill: #9f2212;
      }
    </style>
  </defs>
  <g id="Layer_1-2" data-name="Layer 1">
    <path class="cls-1" d="M0,0v151.35c.17-.21.34-.41.51-.62,76.31-91.76,169.89,110.02,407.01,73.53,130.64-20.1,168.28-91.51,302.46-70.47,108.6,17.04,112.57,68.31,210.97,73.54,127.16,6.75,165.75-76.48,249.05-81.13V27.79c-6.45-2.29-12.83-4.2-19.07-5.74-117.27-28.89-145.57,84.43-293.13,76.6-98.4-5.23-102.36-56.5-210.97-73.54-134.17-21.04-171.82,50.37-302.46,70.47C166.7,122.92,69.61,16.48,0,0Z"/>
  </g>
</svg>