<?xml version="1.0" encoding="UTF-8"?>
<svg id="Layer_2" data-name="Layer 2" xmlns="http://www.w3.org/2000/svg" viewBox="0 0 1922.12 796.56" preserveAspectRatio="none">
  <defs>
    <style>
      .cls-1 {
        fill: #fff;
      }
    </style>
  </defs>
  <g id="Layer_1-2" data-name="Layer 1">
    <path class="cls-1" d="M1230.63,793.53c-161.79-15.15-161.09-42.82-275.92-48.51-180.39-8.94-225.99,45.83-349.92,12.48-83.64-22.51-156.79-79.9-139.41-127.99,13.69-37.85,110.28-73.92,150.4-86.19,210.69-64.42,346.42-10.61,371.63-45.96,17.09-23.97-20.49-43.97-30.81-49.01-12.04-5.88-24.12-10.95-36.04-15.33-59.86-22.01-124.35-28.3-187.53-19.55-74.33,10.29-149.62,17.86-275.39,13.88-61.19-1.93-331.96-12.85-358.47-76.14-16.94-40.48,76.34-77.73,46.48-111.58-24.2-27.41-93.91-12.69-145.65-41.65V50.3c17.59-14.05,44.61-30.16,83.69-40.4,92.07-24.12,185.1,1.65,261.11,15.75,143.72,26.66,155.89-1.56,500.07-2.63,446.74-1.39,422.68,46.15,677.1,22.32,169.98-15.93,300.3-48.35,362.88-7.88,22.84,14.77,33.41,37.14,36.37,59.35,1.26,9.44,1.14,18.85,0,27.63-.7,5.42-1.79,10.61-3.18,15.42-10.52,36.29-54.11,41-55.32,70.89-1.52,37.89,58.43,50.98,55.32,80.07-3.96,37.17-106.79,62.21-146.04,70.89-227.61,50.34-403.17,11.84-680.04,18.06-21.86.49-43.32,6.51-61.92,18-13.24,8.18-22.84,17.68-23.63,28.92-3.22,46.06,74.05,66.97,169.05,84.97,69.06,13.08,194.71,5.37,385.27,10.21,266.15,6.77,326.94,39.82,361.4,56.58v125.88c-3.94,4.27-11.2,12.25-19.56,19.7-76.93,68.49-171.51,72.09-438.26,72.46-132.76.18-199.84.21-233.66-2.96Z"/>
  </g>
</svg>